<svg xmlns="http://www.w3.org/2000/svg" xmlns:xlink="http://www.w3.org/1999/xlink" width="16.37799072265625" height="16.3780517578125" viewBox="0 0 16.37799072265625 16.3780517578125" fill="none">
<path d="M15.089 3.77883C15.1596 3.89524 15.2264 4.01383 15.2893 4.1346C15.3522 4.25537 15.4111 4.37806 15.466 4.50267C15.5209 4.62727 15.5717 4.75354 15.6184 4.88146C15.6651 5.00938 15.7075 5.13868 15.7457 5.26937C15.784 5.40005 15.8179 5.53185 15.8475 5.66476C15.8772 5.79766 15.9025 5.93138 15.9234 6.06593C15.9443 6.20046 15.9608 6.33556 15.9729 6.47123C15.985 6.60683 15.9927 6.74269 15.996 6.87883C15.9935 6.82823 15.9897 6.77769 15.9847 6.72723C15.9797 6.67676 15.9735 6.62646 15.966 6.57633C15.9586 6.52619 15.95 6.47626 15.9401 6.42653C15.9303 6.37679 15.9193 6.32733 15.907 6.27813C15.8948 6.22893 15.8814 6.18005 15.8668 6.13151C15.8522 6.08295 15.8364 6.03478 15.8195 5.987C15.8026 5.93921 15.7845 5.89186 15.7653 5.84495C15.7461 5.79803 15.7258 5.75161 15.7043 5.70568C15.6829 5.65975 15.6604 5.61437 15.6367 5.56953C15.613 5.52468 15.5883 5.48043 15.5625 5.43679C15.5368 5.39314 15.51 5.35014 15.4821 5.3078C15.4542 5.26544 15.4254 5.22379 15.3955 5.18284C15.3656 5.14188 15.3348 5.10167 15.3029 5.06221C15.2711 5.02274 15.2384 4.98406 15.2047 4.94618C15.171 4.9083 15.1364 4.87125 15.1009 4.83505C15.0654 4.79883 15.0291 4.7635 14.9919 4.72905C14.9548 4.69459 14.9168 4.66105 14.8779 4.62844C14.8391 4.59582 14.7995 4.56415 14.7592 4.53345C14.7189 4.50274 14.6778 4.47302 14.6361 4.4443C14.5943 4.41558 14.5518 4.38788 14.5087 4.36121C14.4656 4.33453 14.4219 4.30892 14.3776 4.28436C14.3332 4.2598 14.2883 4.23633 14.2428 4.21394C14.1973 4.19155 14.1513 4.17027 14.1048 4.15011C14.0583 4.12995 14.0114 4.11092 13.9639 4.09302C13.9165 4.07512 13.8687 4.05838 13.8204 4.0428C13.7721 4.02722 13.7235 4.01281 13.6746 3.99958C13.6257 3.98634 13.5765 3.97429 13.527 3.96344C13.4775 3.95258 13.4277 3.94292 13.3777 3.93447C13.3277 3.92602 13.2775 3.91878 13.2272 3.91275C13.1769 3.90672 13.1264 3.90191 13.0759 3.89832C13.0253 3.89473 12.9747 3.89236 12.924 3.89122C12.8733 3.89008 12.8227 3.89016 12.772 3.89146C12.7213 3.89276 12.6707 3.89529 12.6201 3.89905C12.5696 3.9028 12.5191 3.90777 12.4688 3.91396C12.4185 3.92014 12.3683 3.92754 12.3184 3.93616C12.2685 3.94477 12.2188 3.95458 12.1693 3.9656C12.1198 3.97661 12.0706 3.98881 12.0217 4.00221C11.9728 4.01559 11.9243 4.03016 11.8761 4.0459C11.8279 4.06163 11.7801 4.07852 11.7327 4.09657C11.6854 4.11461 11.6385 4.13379 11.592 4.15411C11.5455 4.17442 11.4996 4.19584 11.4542 4.21838C11.4088 4.24091 11.364 4.26453 11.3197 4.28923C11.2754 4.31393 11.2318 4.33968 11.1887 4.36649C11.1457 4.3933 11.1034 4.42113 11.0617 4.44999C11.02 4.47884 10.9791 4.50869 10.9388 4.53953C10.8986 4.57036 10.8591 4.60215 10.8204 4.63489C10.7817 4.66763 10.7438 4.70129 10.7067 4.73587C10.6696 4.77044 10.6334 4.80589 10.5981 4.84221C10.5627 4.87853 10.5282 4.91569 10.4947 4.95368C10.4611 4.99166 10.4285 5.03044 10.3968 5.07001C10.3651 5.10957 10.3344 5.14988 10.3046 5.19094C10.2749 5.23198 10.2461 5.27373 10.2184 5.31617C10.1907 5.35861 10.164 5.40169 10.1384 5.44542C10.1127 5.48915 10.0882 5.53347 10.0647 5.57839C10.0412 5.62331 10.0187 5.66877 9.9974 5.71477C9.97614 5.76076 9.95597 5.80724 9.9369 5.85422C9.91784 5.9012 9.89994 5.94861 9.8832 5.99645C9.8664 6.04429 9.85077 6.0925 9.8363 6.1411C9.8219 6.18972 9.80867 6.23863 9.7966 6.28783C9.78454 6.33709 9.77364 6.38659 9.7639 6.43633C9.75424 6.48606 9.74577 6.53603 9.7385 6.58623C9.73124 6.63643 9.7252 6.68676 9.7204 6.73723C9.71554 6.78763 9.7119 6.83816 9.7095 6.88883C9.7071 6.93949 9.70594 6.99016 9.706 7.04083C9.70607 7.09149 9.7049 7.14216 9.7025 7.19283C9.7001 7.24349 9.69647 7.29403 9.6916 7.34443C9.6868 7.39489 9.68077 7.44523 9.6735 7.49543C9.66624 7.54563 9.65777 7.59559 9.6481 7.64533C9.63837 7.69506 9.62747 7.74456 9.6154 7.79383C9.60334 7.84303 9.5901 7.89193 9.5757 7.94053C9.56124 7.98913 9.5456 8.03736 9.5288 8.08523C9.51207 8.13303 9.49417 8.18043 9.4751 8.22743C9.45604 8.27443 9.43587 8.32093 9.4146 8.36693C9.39327 8.41293 9.37084 8.45836 9.3473 8.50323C9.32384 8.54816 9.29927 8.59249 9.2736 8.63623C9.248 8.67996 9.22134 8.72306 9.1936 8.76553C9.16587 8.80793 9.13714 8.84966 9.1074 8.89073C9.0776 8.93179 9.04687 8.97209 9.0152 9.01163C8.98354 9.05123 8.9509 9.09003 8.9173 9.12803C8.88377 9.16596 8.8493 9.20309 8.8139 9.23943C8.77857 9.27576 8.74237 9.31123 8.7053 9.34583C8.66824 9.38036 8.63034 9.41399 8.5916 9.44673C8.55287 9.47953 8.5134 9.51133 8.4732 9.54213C8.43294 9.57299 8.39197 9.60283 8.3503 9.63163C8.30864 9.66049 8.2663 9.68833 8.2233 9.71513C8.18024 9.74199 8.13657 9.76776 8.0923 9.79243C8.04804 9.81716 8.0032 9.84079 7.9578 9.86333C7.9124 9.88579 7.86647 9.90719 7.82 9.92753C7.77354 9.94786 7.72664 9.96706 7.6793 9.98513C7.6319 10.0031 7.5841 10.02 7.5359 10.0357C7.48777 10.0515 7.43924 10.066 7.3903 10.0794C7.34144 10.0928 7.29224 10.105 7.2427 10.116C7.19324 10.1271 7.14354 10.1369 7.0936 10.1455C7.04367 10.1541 6.99354 10.1615 6.9432 10.1677C6.89287 10.1739 6.84244 10.1789 6.7919 10.1826C6.7413 10.1864 6.69067 10.1889 6.64 10.1902C6.58934 10.1915 6.53867 10.1916 6.488 10.1904C6.43734 10.1893 6.3867 10.1869 6.3361 10.1833C6.28557 10.1797 6.23513 10.1749 6.18477 10.1689C6.13444 10.1629 6.08428 10.1556 6.03429 10.1472C5.98431 10.1388 5.93456 10.1291 5.88504 10.1182C5.83552 10.1074 5.7863 10.0953 5.73736 10.0821C5.68842 10.0689 5.63983 10.0544 5.59159 10.0388C5.54335 10.0232 5.49552 10.0065 5.44809 9.98863C5.40066 9.97076 5.35369 9.95173 5.30718 9.93153C5.26067 9.91139 5.21467 9.89013 5.16919 9.86773C5.12371 9.84533 5.0788 9.82186 5.03444 9.79733C4.9901 9.77273 4.94637 9.74709 4.90325 9.72043C4.86015 9.69376 4.81771 9.66606 4.77593 9.63733C4.73416 9.60859 4.69311 9.57889 4.65277 9.54823C4.61244 9.51749 4.57287 9.48583 4.53406 9.45323C4.49526 9.42063 4.45726 9.38709 4.42007 9.35263C4.38289 9.31816 4.34656 9.28283 4.31108 9.24663C4.27561 9.21043 4.24103 9.17336 4.20733 9.13543C4.17365 9.09756 4.1409 9.05889 4.10908 9.01943C4.07726 8.97996 4.04642 8.93976 4.01654 8.89883C3.98667 8.85789 3.9578 8.81623 3.92993 8.77383C3.90207 8.73149 3.87525 8.68849 3.84946 8.64483C3.82368 8.60123 3.79897 8.55699 3.77532 8.51213C3.75168 8.46726 3.72913 8.42186 3.70767 8.37593C3.68622 8.32999 3.66589 8.28359 3.64668 8.23673C3.62748 8.18979 3.60941 8.14243 3.59248 8.09463C3.57556 8.04683 3.55981 7.99866 3.54521 7.95013C3.53062 7.90159 3.51721 7.85273 3.50498 7.80353C3.49275 7.75433 3.48171 7.70486 3.47187 7.65513C3.46203 7.60539 3.4534 7.55546 3.44597 7.50533C3.43854 7.45519 3.43233 7.40489 3.42733 7.35443C3.42233 7.30396 3.41856 7.25343 3.416 7.20283C3.416 7.14883 3.416 7.09483 3.416 7.04083C3.416 6.98683 3.416 6.93283 3.416 6.87883C3.418 6.80096 3.42143 6.72316 3.42631 6.64543C3.43119 6.56769 3.43751 6.49009 3.44527 6.41263C3.45303 6.33516 3.46223 6.25784 3.47286 6.18068C3.4835 6.10353 3.49556 6.02661 3.50905 5.94991C3.52254 5.87321 3.53745 5.79678 3.55377 5.72064C3.5701 5.64449 3.58784 5.56867 3.60698 5.49319C3.62612 5.4177 3.64666 5.34259 3.66859 5.26787C3.69053 5.19314 3.71384 5.11885 3.73852 5.04499C3.76322 4.97113 3.78927 4.89775 3.81668 4.82486C3.8441 4.75196 3.87285 4.6796 3.90295 4.60778C3.93305 4.53596 3.96448 4.46472 3.99722 4.39406C4.02997 4.3234 4.06402 4.25337 4.09936 4.18398C4.13471 4.11458 4.17133 4.04587 4.20923 3.97784C4.24713 3.9098 4.28628 3.8425 4.32667 3.77592C4.36707 3.70934 4.40869 3.64353 4.45153 3.57849C4.49437 3.51345 4.53841 3.44924 4.58363 3.38584C4.62886 3.32244 4.67525 3.2599 4.72279 3.19823C4.77034 3.13655 4.81902 3.07577 4.86882 3.0159C4.91863 2.95603 4.96953 2.89711 5.02151 2.83913C5.07351 2.78115 5.12656 2.72415 5.18067 2.66814C5.23478 2.61213 5.28991 2.55714 5.34606 2.50318C5.40221 2.44922 5.45934 2.39631 5.51745 2.34447C5.57557 2.29263 5.63463 2.24188 5.69462 2.19224C5.75462 2.14258 5.81552 2.09406 5.87732 2.04668C5.93912 1.99929 6.00178 1.95307 6.0653 1.90801C6.12882 1.86295 6.19316 1.81908 6.2583 1.77641C6.32344 1.73373 6.38934 1.69229 6.456 1.65207C6.52274 1.61184 6.59017 1.57287 6.6583 1.53515C6.72644 1.49742 6.79524 1.46097 6.8647 1.42581C6.93417 1.39064 7.00427 1.35678 7.075 1.32422C7.1458 1.29165 7.21714 1.26041 7.289 1.2305C7.36094 1.20058 7.43337 1.17201 7.5063 1.14479C7.57924 1.11756 7.65267 1.0917 7.7266 1.0672C7.80054 1.0427 7.8749 1.01959 7.9497 0.997846C8.0245 0.976106 8.09967 0.955762 8.1752 0.936816C8.25074 0.917869 8.3266 0.900333 8.4028 0.884206C8.47894 0.868073 8.55537 0.853363 8.6321 0.840076C8.7089 0.826783 8.78587 0.814919 8.863 0.804486C8.9402 0.794053 9.01754 0.785056 9.095 0.777496C9.17254 0.769936 9.25017 0.763816 9.3279 0.759136C9.40564 0.754456 9.48344 0.751223 9.5613 0.749436C9.63917 0.747643 9.71704 0.747296 9.7949 0.748396C9.87277 0.749503 9.9506 0.752049 10.0284 0.756036C10.1061 0.760029 10.1838 0.765462 10.2614 0.772336C10.3389 0.779209 10.4163 0.787523 10.4936 0.797276C10.5709 0.807022 10.6479 0.818203 10.7248 0.830816C10.8017 0.843423 10.8783 0.857453 10.9546 0.872906C11.0309 0.888366 11.1069 0.905233 11.1826 0.923506C11.2583 0.941786 11.3337 0.961463 11.4086 0.982536C11.4836 1.00361 11.5582 1.02607 11.6323 1.04992C11.7064 1.07376 11.7801 1.09897 11.8533 1.12555C11.9265 1.15213 11.9992 1.18005 12.0714 1.20933C12.1435 1.23861 12.2151 1.26921 12.2861 1.30115C12.3572 1.33309 12.4276 1.36633 12.4974 1.40088C12.5672 1.43543 12.6363 1.47126 12.7048 1.50838C12.7733 1.5455 12.841 1.58387 12.908 1.62351C12.9751 1.66314 13.0414 1.704 13.1069 1.7461C13.1724 1.78819 13.2371 1.83149 13.301 1.87599C13.3649 1.92048 13.428 1.96615 13.4902 2.01299C13.5524 2.05983 13.6137 2.1078 13.6742 2.15692C13.7346 2.20604 13.7941 2.25626 13.8527 2.30758C13.9113 2.3589 13.9689 2.4113 14.0255 2.46477C14.0821 2.51823 14.1377 2.57272 14.1923 2.62826C14.2469 2.68378 14.3005 2.74031 14.353 2.79783C14.2381 2.66651 14.1192 2.539 13.9962 2.41529C13.8732 2.29157 13.7464 2.17191 13.6158 2.05631C13.4851 1.94069 13.3509 1.82937 13.2131 1.72235C13.0754 1.61531 12.9343 1.51279 12.79 1.41477C12.6457 1.31675 12.4984 1.22344 12.3481 1.13484C12.1978 1.04624 12.0449 0.962519 11.8893 0.883686C11.7336 0.804859 11.5756 0.731079 11.4153 0.662346C11.255 0.593619 11.0926 0.530076 10.9282 0.471716C10.7638 0.413363 10.5977 0.360316 10.4299 0.312576C10.2621 0.264843 10.093 0.222509 9.9225 0.185576C9.75197 0.148649 9.58047 0.117203 9.408 0.0912361C9.23547 0.0652695 9.0623 0.044836 8.8885 0.0299358C8.71464 0.0150291 8.5405 0.00568924 8.3661 0.00191612C8.1917 -0.00185738 8.01737 -5.72205e-05 7.8431 0.00731583C7.66877 0.0146828 7.49487 0.0276093 7.3214 0.046096C7.14794 0.064576 6.97524 0.0885761 6.8033 0.118096C6.63137 0.147616 6.46054 0.182596 6.2908 0.223036C6.12112 0.263469 5.95289 0.309283 5.78611 0.360476C5.61934 0.411663 5.45437 0.468122 5.29121 0.529856C5.12805 0.591589 4.96702 0.658469 4.80812 0.730496C4.64923 0.802516 4.4928 0.879539 4.33883 0.961566C4.18487 1.04359 4.03367 1.13044 3.88525 1.22212C3.73683 1.3138 3.59149 1.41013 3.44923 1.51111C3.30697 1.61208 3.16808 1.71749 3.03255 1.82735C2.89703 1.93719 2.76515 2.05126 2.63691 2.16954C2.50868 2.28781 2.38435 2.41006 2.26392 2.53629C2.1435 2.66251 2.02724 2.79245 1.91512 2.92611C1.803 3.05976 1.69527 3.19686 1.59191 3.3374C1.48855 3.47794 1.38979 3.62163 1.29561 3.76849C1.20145 3.91534 1.11206 4.06505 1.02745 4.21761C0.942847 4.37017 0.8632 4.52529 0.788514 4.68295C0.71382 4.8406 0.644237 5.00048 0.579763 5.16258C0.51529 5.32468 0.456057 5.48868 0.402063 5.65457C0.348077 5.82045 0.299437 5.98789 0.256144 6.15689C0.21285 6.32591 0.175 6.49613 0.142593 6.66753C0.11018 6.83893 0.0832703 7.01119 0.0618633 7.18433C0.0404636 7.35746 0.0246101 7.53109 0.0143036 7.70523C0.00399666 7.87943 -0.00073967 8.05373 9.34601e-05 8.22813C0.000926971 8.40259 0.00733032 8.57686 0.0193035 8.75093C0.0312767 8.92493 0.04879 9.09839 0.0718433 9.27133C0.0949036 9.44426 0.12346 9.61629 0.157513 9.78743C0.19156 9.95849 0.231037 10.1283 0.275943 10.2969C0.32085 10.4655 0.37109 10.6324 0.426664 10.7978C0.482243 10.9632 0.543044 11.1266 0.609063 11.288C0.675084 11.4496 0.74619 11.6088 0.822383 11.7657C0.898577 11.9227 0.979704 12.077 1.06576 12.2287C1.15182 12.3805 1.24264 12.5293 1.33821 12.6752C1.43379 12.8212 1.53392 12.9639 1.63861 13.1035C1.74331 13.2431 1.85235 13.3791 1.96574 13.5116C2.07913 13.6442 2.19664 13.7731 2.31826 13.8981C2.43988 14.0232 2.56537 14.1443 2.69473 14.2613C2.82409 14.3783 2.95706 14.4911 3.09363 14.5997C3.2302 14.7083 3.37009 14.8123 3.51331 14.9119C3.65653 15.0115 3.80279 15.1065 3.95208 15.1967C4.10137 15.287 4.25339 15.3724 4.40813 15.4529C4.56288 15.5335 4.72004 15.609 4.87961 15.6795C5.03919 15.75 5.20085 15.8153 5.36459 15.8755C5.52834 15.9357 5.69384 15.9905 5.8611 16.0401C6.02836 16.0897 6.19702 16.1339 6.3671 16.1727C6.53717 16.2116 6.7083 16.245 6.8805 16.2728C7.05277 16.3007 7.2257 16.323 7.3993 16.3398C7.57297 16.3566 7.74697 16.3679 7.9213 16.3736C8.0957 16.3794 8.27007 16.3795 8.4444 16.374C8.6188 16.3686 8.79284 16.3576 8.9665 16.341C9.14017 16.3244 9.3131 16.3023 9.4853 16.2747C9.65757 16.2471 9.82877 16.2141 9.9989 16.1755C10.169 16.1369 10.3378 16.093 10.5051 16.0436C10.6724 15.9943 10.838 15.9397 11.0019 15.8797C11.1657 15.8198 11.3275 15.7547 11.4872 15.6844C11.6469 15.6142 11.8041 15.5389 11.959 15.4586C12.1139 15.3783 12.266 15.2931 12.4154 15.203C12.5649 15.113 12.7113 15.0183 12.8546 14.9189C12.998 14.8195 13.1381 14.7157 13.2748 14.6073C13.4115 14.499 13.5447 14.3864 13.6742 14.2695C13.8037 14.1527 13.9294 14.0318 14.0512 13.9069C14.173 13.7821 14.2907 13.6534 14.4043 13.521C14.5179 13.3886 14.6271 13.2527 14.732 13.1133C14.8369 12.9739 14.9373 12.8313 15.0331 12.6855C15.1288 12.5397 15.2199 12.391 15.3062 12.2394C15.3925 12.0878 15.4738 11.9335 15.5503 11.7767C15.6267 11.6199 15.698 11.4608 15.7643 11.2994C15.8306 11.138 15.8916 10.9747 15.9474 10.8094C16.0033 10.6442 16.0538 10.4773 16.0989 10.3087C16.144 10.1403 16.1838 9.97049 16.2181 9.79943C16.2524 9.62836 16.2812 9.45639 16.3045 9.28353C16.3278 9.11066 16.3456 8.93719 16.3578 8.76313C16.3701 8.58913 16.3767 8.41489 16.3778 8.24043C16.3789 8.06596 16.3745 7.89166 16.3644 7.71753C16.3543 7.54333 16.3387 7.36966 16.3176 7.19653C16.2965 7.02333 16.2698 6.85099 16.2377 6.67953C16.2055 6.50813 16.1679 6.33788 16.1249 6.16879C16.0818 5.99973 16.0334 5.83221 15.9797 5.66624C15.926 5.50027 15.867 5.33619 15.8028 5.17399C15.7385 5.01179 15.6692 4.8518 15.5947 4.69404C15.5203 4.53627 15.4409 4.38104 15.3565 4.22836C15.2721 4.07566 15.1829 3.92582 15.089 3.77883ZM12.853 8.08883C12.8358 8.08883 12.8186 8.08839 12.8015 8.08753C12.7844 8.08673 12.7672 8.08546 12.7501 8.08373C12.733 8.08206 12.716 8.07996 12.699 8.07743C12.682 8.07489 12.6651 8.07196 12.6482 8.06863C12.6314 8.06529 12.6147 8.06153 12.598 8.05733C12.5813 8.05319 12.5648 8.04863 12.5483 8.04363C12.5319 8.03863 12.5156 8.03323 12.4994 8.02743C12.4832 8.02163 12.4672 8.01546 12.4513 8.00893C12.4354 8.00233 12.4197 7.99536 12.4042 7.98803C12.3887 7.98063 12.3733 7.97289 12.3582 7.96483C12.3431 7.95669 12.3281 7.94823 12.3134 7.93943C12.2987 7.93056 12.2842 7.92136 12.2699 7.91183C12.2556 7.90229 12.2416 7.89239 12.2278 7.88213C12.214 7.87193 12.2005 7.86136 12.1872 7.85043C12.1739 7.83956 12.1609 7.82833 12.1482 7.81673C12.1355 7.80519 12.123 7.79336 12.1109 7.78123C12.0988 7.76909 12.0869 7.75666 12.0754 7.74393C12.0639 7.73119 12.0527 7.71816 12.0418 7.70483C12.0309 7.69156 12.0203 7.67803 12.0101 7.66423C11.9998 7.65043 11.9899 7.63639 11.9804 7.62213C11.9709 7.60779 11.9617 7.59326 11.9529 7.57853C11.9441 7.56379 11.9356 7.54886 11.9275 7.53373C11.9194 7.51859 11.9117 7.50326 11.9044 7.48773C11.8971 7.47219 11.8901 7.45646 11.8836 7.44053C11.877 7.42466 11.8708 7.40866 11.8651 7.39253C11.8593 7.37633 11.8539 7.35999 11.8489 7.34353C11.844 7.32713 11.8394 7.31059 11.8352 7.29393C11.8311 7.27726 11.8273 7.26049 11.824 7.24363C11.8207 7.22676 11.8177 7.20983 11.8152 7.19283C11.8127 7.17583 11.8107 7.15879 11.809 7.14173C11.8073 7.12459 11.8061 7.10746 11.8052 7.09033C11.8044 7.07319 11.804 7.05603 11.804 7.03883C11.804 7.02163 11.8044 7.00446 11.8053 6.98733C11.8062 6.97019 11.8075 6.95306 11.8092 6.93593C11.8109 6.91886 11.813 6.90183 11.8155 6.88483C11.818 6.86783 11.821 6.85089 11.8244 6.83403C11.8277 6.81723 11.8315 6.80049 11.8357 6.78383C11.8399 6.76716 11.8445 6.75063 11.8495 6.73423C11.8545 6.71776 11.8599 6.70146 11.8657 6.68533C11.8715 6.66913 11.8777 6.65309 11.8843 6.63723C11.8909 6.62136 11.8979 6.60566 11.9053 6.59013C11.9126 6.57466 11.9204 6.55933 11.9285 6.54413C11.9366 6.52899 11.9451 6.51406 11.9539 6.49933C11.9628 6.48466 11.972 6.47019 11.9816 6.45593C11.9911 6.44166 12.001 6.42763 12.0113 6.41383C12.0216 6.40003 12.0321 6.38649 12.043 6.37323C12.0539 6.35996 12.0652 6.34696 12.0767 6.33423C12.0883 6.32156 12.1002 6.30916 12.1123 6.29703C12.1245 6.28489 12.137 6.27306 12.1497 6.26153C12.1624 6.24999 12.1754 6.23879 12.1887 6.22793C12.202 6.21706 12.2156 6.20653 12.2294 6.19633C12.2432 6.18611 12.2573 6.17623 12.2716 6.16671C12.2859 6.15719 12.3004 6.14802 12.3151 6.13922C12.3299 6.13041 12.3449 6.12197 12.36 6.1139C12.3751 6.10582 12.3905 6.09813 12.4061 6.09081C12.4216 6.08349 12.4373 6.07655 12.4532 6.07001C12.4691 6.06346 12.4851 6.05731 12.5013 6.05155C12.5175 6.04579 12.5338 6.04043 12.5502 6.03547C12.5667 6.03051 12.5832 6.02596 12.5999 6.02182C12.6166 6.01767 12.6333 6.01394 12.6502 6.01062C12.6671 6.0073 12.684 6.00439 12.701 6.00191C12.718 5.99941 12.735 5.99734 12.7521 5.99569C12.7692 5.99404 12.7864 5.99281 12.8035 5.992C12.8206 5.99118 12.8378 5.99079 12.855 5.99083C12.8722 5.99086 12.8894 5.99132 12.9065 5.9922C12.9236 5.99307 12.9408 5.99437 12.9579 5.99609C12.975 5.9978 12.992 5.99993 13.009 6.00249C13.026 6.00505 13.0429 6.00802 13.0597 6.0114C13.0766 6.01478 13.0933 6.01858 13.11 6.02279C13.1267 6.027 13.1432 6.03162 13.1596 6.03664C13.176 6.04166 13.1923 6.04708 13.2085 6.0529C13.2246 6.05872 13.2406 6.06493 13.2565 6.07154C13.2724 6.07814 13.2881 6.08514 13.3036 6.09252C13.3191 6.0999 13.3344 6.10765 13.3495 6.11579C13.3646 6.12391 13.3796 6.13241 13.3943 6.14128C13.409 6.15014 13.4235 6.15936 13.4378 6.16894C13.4521 6.17851 13.4661 6.18844 13.4798 6.19873C13.4936 6.20899 13.5071 6.21959 13.5204 6.23053C13.5336 6.24146 13.5466 6.25269 13.5593 6.26423C13.572 6.27583 13.5844 6.28769 13.5965 6.29983C13.6086 6.31203 13.6205 6.32449 13.632 6.33723C13.6435 6.34996 13.6546 6.36299 13.6655 6.37633C13.6764 6.38966 13.6869 6.40323 13.6971 6.41703C13.7073 6.43083 13.7172 6.44489 13.7267 6.45923C13.7362 6.47356 13.7453 6.48809 13.7541 6.50283C13.7629 6.51756 13.7713 6.53253 13.7794 6.54773C13.7875 6.56286 13.7951 6.57823 13.8024 6.59383C13.8097 6.60936 13.8167 6.62506 13.8232 6.64093C13.8297 6.65679 13.8359 6.67283 13.8416 6.68903C13.8473 6.70523 13.8527 6.72156 13.8576 6.73803C13.8626 6.75449 13.8672 6.77106 13.8713 6.78773C13.8754 6.80439 13.8791 6.82116 13.8824 6.83803C13.8857 6.85489 13.8886 6.87183 13.8911 6.88883C13.8936 6.90583 13.8956 6.92286 13.8972 6.93993C13.8989 6.95706 13.9001 6.97419 13.9009 6.99133C13.9017 7.00846 13.9021 7.02563 13.902 7.04283C13.9019 7.05996 13.9015 7.07709 13.9006 7.09423C13.8997 7.11129 13.8984 7.12836 13.8967 7.14543C13.895 7.16249 13.8928 7.17949 13.8902 7.19643C13.8877 7.21336 13.8847 7.23023 13.8813 7.24703C13.878 7.26383 13.8742 7.28053 13.87 7.29713C13.8657 7.31379 13.8611 7.33029 13.8561 7.34663C13.8511 7.36303 13.8457 7.37929 13.8399 7.39543C13.8341 7.41156 13.8279 7.42753 13.8213 7.44333C13.8147 7.45913 13.8077 7.47479 13.8004 7.49033C13.793 7.50579 13.7853 7.52106 13.7772 7.53613C13.7691 7.55126 13.7606 7.56616 13.7517 7.58083C13.7429 7.59549 13.7337 7.60996 13.7242 7.62423C13.7147 7.63843 13.7048 7.65239 13.6945 7.66613C13.6843 7.67986 13.6737 7.69336 13.6628 7.70663C13.6519 7.71983 13.6407 7.73276 13.6292 7.74543C13.6177 7.75816 13.6058 7.77056 13.5937 7.78263C13.5816 7.79476 13.5691 7.80656 13.5564 7.81803C13.5437 7.82949 13.5308 7.84066 13.5175 7.85153C13.5042 7.86239 13.4907 7.87293 13.4769 7.88313C13.4631 7.89333 13.4491 7.90316 13.4349 7.91263C13.4206 7.92216 13.4061 7.93133 13.3914 7.94013C13.3767 7.94893 13.3618 7.95736 13.3467 7.96543C13.3316 7.97349 13.3162 7.98116 13.3007 7.98843C13.2852 7.99576 13.2696 8.00269 13.2537 8.00923C13.2379 8.01583 13.2219 8.02199 13.2058 8.02773C13.1897 8.03346 13.1734 8.03883 13.157 8.04383C13.1406 8.04876 13.1241 8.05333 13.1074 8.05753C13.0908 8.06166 13.0741 8.06539 13.0573 8.06873C13.0405 8.07206 13.0236 8.07499 13.0066 8.07753C12.9897 8.08006 12.9727 8.08216 12.9556 8.08383C12.9386 8.08549 12.9215 8.08673 12.9044 8.08753C12.8873 8.08839 12.8701 8.08883 12.853 8.08883Z"   fill="#FFC300" >
</path>
</svg>
