<svg xmlns="http://www.w3.org/2000/svg" xmlns:xlink="http://www.w3.org/1999/xlink" width="48" height="48" viewBox="0 0 48 48" fill="none">
<rect x="23.3662109375" y="8.657989501953125" width="3.0640029907226562" height="6.944000244140625"   fill="#4080FF" >
</rect>
<path d="M35.2719 12.504C32.3139 13.256 30.8319 13.626 29.5519 13.78C23.3879 14.526 14.7519 12.104 10.5519 8.67401C10.1999 8.38201 9.46588 7.75001 8.51388 7.80001C6.58188 7.91601 5.17388 10.8 4.27588 13.264C4.90508 13.4251 5.52899 13.6046 6.14762 13.8025C6.76624 14.0004 7.37852 14.2163 7.98442 14.4502C8.59032 14.6842 9.18882 14.9358 9.77992 15.2049C10.371 15.4741 10.9537 15.7605 11.5279 16.064C13.2719 17 14.2719 17.752 14.8579 18.262L17.1999 33.918L17.1999 41.658L20.8219 41.658L20.8219 33.918L28.8319 33.918L28.8319 41.658L32.4519 41.658L32.4519 33.918L34.4259 20.698C35.3199 19.47 36.5939 17.822 38.2399 15.976C40.9699 12.916 42.7339 11.54 42.4259 10.976C42.1179 10.412 39.9439 11.316 35.2719 12.504ZM26.4299 28.538L23.3659 28.538L23.3659 21.6L26.4299 21.6L26.4299 28.538Z"   fill="#FFFFFF" >
</path>
</svg>
