<svg id="图层_1" data-name="图层 1" xmlns="http://www.w3.org/2000/svg" viewBox="0 0 240 240"><path d="M54.65,127.08c2,1.2,3.85.56,5.6.24,7.42-1.36,12.88-10.39,11.49-17.39-1.34-6.75-4.78-12-9.56-16.66a11.93,11.93,0,0,0-3.63-2.13c-1.28-.54-1.46-1.35-.93-2.56a36.9,36.9,0,0,1,4.77-7.33c4.21-5.54,8.91-10.65,15-14.07,3.76-2.11,7.63-4,11.4-6.16,5-2.83,10.43-2.71,15.93-1.76a48.81,48.81,0,0,1,27,13.91c8.7,8.78,12.37,19.15,8.76,31.56-1.37,4.69-3,9.12-6.68,12.44-5.49,4.94-11.89,7.08-19.18,5.07a16.29,16.29,0,0,1-11.1-20.93,25,25,0,0,1,4.86-8.81c3.13-3.58,7.43-4.9,12.22-4.35.71.09,1.42.25,2.6.47a9.63,9.63,0,0,0-5.34-3.2c-9.26-2.23-20.52,2.21-25.87,10-1,1.48-2.26,2.8-3.27,4.29-8.09,11.95-8.15,24-.78,36.4,6.78,11.4,17.22,16.65,29.87,17.42,5.43.34,11.07-1.09,16.3-3.18,11.74-4.7,20.88-12.46,26.28-24,5.93-12.68,6-25.23-2.33-37.15a39.85,39.85,0,0,0-4.45-4.82,10,10,0,0,1-1.23-1.39,2,2,0,0,1-.1-2.37c.61-.82,1.46-.67,2.3-.37a24.55,24.55,0,0,1,5.65,3.33c7.43,5.12,12.45,12.19,16.65,20A30.07,30.07,0,0,0,192,117.08a22.77,22.77,0,0,1,12.66,13.53,73.61,73.61,0,0,1,2.62,8,18.65,18.65,0,0,0,5.4,8.81,7.66,7.66,0,0,0,12.26-2.25,3.88,3.88,0,0,1,.75-1.14,10,10,0,0,1-1.86,5.46c-2.42,2.92-5.21,5.08-9.42,5.48-6.39.62-10.18-2.84-13.33-7.45-3.61-5.29-7-6.29-13.39-5a29.9,29.9,0,0,0-14.58,7.73c-2.81,2.61-4.69,6-7.14,9-6.7,8.07-14.67,14.23-25,17-4.8,1.29-9.55,1.49-14.12-.91a3,3,0,0,1-.87-.51c-1.83-2.19-3.65-1.43-5.88-.42-13.14,5.89-26.44,5.36-39.77.6-8.26-3-15.14-8.1-21.68-13.74-2.54-2.18-4.09-5.2-6-7.89A9,9,0,0,0,48,149.91c-11.89-4.27-20.94-11.73-23.23-24.76a20.88,20.88,0,0,1,6.6-19.45c3.48-3.31,7.42-4.36,11.93-4.47,4-.09,7.89-.18,11.61,1.5,5,2.26,9.1,7.92,8.64,14.09-.3,4.14-2.78,7-6.33,9C56.45,126.23,55.65,126.59,54.65,127.08Z"/></svg>