<svg id="图层_1" data-name="图层 1" xmlns="http://www.w3.org/2000/svg" viewBox="0 0 240 240"><path d="M126.37,114.82a74.2,74.2,0,0,1-1.75,8.09,27.44,27.44,0,0,1-5.31,10.73c-.57.75-1.13,1.07-2,.55-6.58-4-13.84-4.12-21.14-3.55a53.22,53.22,0,0,0-28.94,11.19c-3.17,2.47-6,5.32-9.63,7.24-2.57,1.36-3.62,1-4.85-1.55-1.73-3.62-.79-7,.59-10.44a1,1,0,0,1,.94-.72c.52,0,.65.46.81.86,1.18,2.86,1.25,2.85,3.82,1.11,7.63-5.18,14.91-10.81,22.14-16.83a11.88,11.88,0,0,0-3.52.87c-8.69,3.23-17.28,6.73-25.81,10.35-1.55.65-1.5,2-1.78,3.28-.13.59.14,1.43-.61,1.67s-1.19-.53-1.61-1a4.83,4.83,0,0,1-.85-1.34,6,6,0,0,0-3.39-3.68c-1.49-.68-2.12-2.47-3-3.84a22.6,22.6,0,0,1-3.3-13.68c.13-2.15.79-2.6,2.89-2.14a56.73,56.73,0,0,0,10.54,1.42,9.68,9.68,0,0,0,4.76-1c5.1-2.6,10.42-4.79,15-8.3.51-.39,1-.76,1.54-1.13a4.45,4.45,0,0,0,2-4.93,21.22,21.22,0,0,1-.12-4.91c.07-2.1,1.35-3.45,3-4.63,4.52-3.31,9.14-6.47,13.52-10a21.31,21.31,0,0,0,8.21-15.2,9.32,9.32,0,0,0-.16-2.53c-.08-.54-.35-1.28.39-1.52s.84.49,1.11.93a23.65,23.65,0,0,1,3.12,15c-.16,1.61,0,1.73,1.59,1.46,2.31-.39,4-1.83,5.79-3.18C119,66.62,126.74,58.75,134.59,51c3.7-3.65,6.75-7.88,10-11.94a56,56,0,0,1,6.55-6.7c2.43-2.18,4.51-1.41,5.29,1.79.63,2.58-.09,4.94-1.17,7.22-1.67,3.58-4.09,6.68-6.36,9.88A4,4,0,0,0,148,53a11.31,11.31,0,0,0,2.81-1c6.48-2.82,12.1-7,17.51-11.43,2.12-1.75,4.28-3.47,6.43-5.2.58-.47,1.18-1,2-.61a2,2,0,0,1,1,2.17,10.93,10.93,0,0,1-1.56,4.8c-4.63,8.58-11.1,15-20.76,17.79-3.21.92-6.31,2.18-9.5,3.15-4.46,1.36-8.19,3.94-11.79,6.76a59.68,59.68,0,0,0-7.46,6.38c6.8-2.66,14-4,20.46-7.67.55-.31,1.1-.63,1.67-.91a1.82,1.82,0,0,1,2.08,0c.67.59.39,1.27.17,1.93a29,29,0,0,1-2.47,5.15,47.79,47.79,0,0,1-4.09,6.17c1.81-.4,3.23-.68,4.63-1a25.29,25.29,0,0,1,15.91,1,42.23,42.23,0,0,1,11.31,6A28.51,28.51,0,0,1,186,102.36c.53,2.11,1.17,4.18,1.73,6.28a2.79,2.79,0,0,1-.06,2.23c-.56-1.15-1-2.1-1.47-3-3.61-6.69-8.57-12-15.81-14.7-3.48-1.31-7-.74-10.39.57-.54.21-1.24.53-1.18,1.14s.91.54,1.44.63c6.82,1.21,12.59,4.2,17,9.7,3.55,4.44,6.68,9.15,9.77,13.92,4.15,6.41,5.27,13.78,6.69,21.06a28.59,28.59,0,0,1,.47,4.8,13.25,13.25,0,0,1-1.89-3.8,50.56,50.56,0,0,0-6.91-11.93c-1.64-2.1-3.89-3.58-5.91-5.28a1,1,0,0,0-1.31-.21c-.42.29-.26.76-.19,1.18,1,5.82.29,11.61-.3,17.41-.3,2.9-.71,5.78-1,8.68-.55,6.32-3,12-5.78,17.56A67,67,0,0,1,161.1,183c-5.27,6.06-12.07,9.78-19.38,12.65a77.61,77.61,0,0,1-29.19,5.49c-10.12-.08-19.5-2.64-27.72-8.76a41,41,0,0,1-10-10.73c-.17-.25-.42-.49-.32-.85.24-.17.4,0,.55.13,8.45,7.62,18.16,9,28.58,5.23a51.55,51.55,0,0,0,19.69-12.54c5.39-5.54,8.39-12.14,8.08-20a20.28,20.28,0,0,0-3.32-10,2.57,2.57,0,0,1-.29-2.64,30.14,30.14,0,0,0,1.95-15.74,29.1,29.1,0,0,0-1.57-5.33C127.58,118.19,127,116.51,126.37,114.82Z"/></svg>