<svg id="图层_1" data-name="图层 1" xmlns="http://www.w3.org/2000/svg" viewBox="0 0 240 240"><path d="M124.89,182.69A86.11,86.11,0,0,1,100,179.78c-9.83-2.82-18.71-7.69-27.15-13.4-7.59-5.14-13.32-11.95-18.49-19.48-4-5.81-8.24-11.55-13.93-15.93-.36-.28-.92-.51-.72-1.07s.8-.35,1.24-.41c2.85-.36,5.69-.69,8.53-1.09a11.25,11.25,0,0,0,5.42-2.74c.76-.6.78-1.08-.08-1.59-2.6-1.57-4.15-4.08-5.69-6.58-1.13-1.83-1-1.94,1-2.55,6.06-1.83,12.16-3.55,17.3-7.52a5.67,5.67,0,0,0,2.48-4.68c.24-6.14.95-12.26,1.19-18.4s.14-12.4.18-18.61c0-3.45,0-6.91.07-10.37,0-2.73.71-3.16,3.17-2.16,4.28,1.74,8.75,3,12.9,5.07,6.38,3.2,12.88,6.2,19.19,9.52,3.57,1.88,7.18,2.31,11,2.58a70,70,0,0,1,26.49,7,8.66,8.66,0,0,0,6.91.5c10.88-3.58,22.14-4.86,33.49-5.81,5.31-.44,10.52.18,15.77.55,1.83.13,2.13.66,1.24,2.22-5.92,10.48-9.41,21.94-13.32,33.22-1.89,5.44-3.89,10.81-7.06,15.65-.77,1.17-.63,1.83.48,2.74a60.86,60.86,0,0,0,11.68,7.11,27.22,27.22,0,0,0,3.72,1.93c1.31.41.47,1.34-.13,1.81a26.54,26.54,0,0,1-5,2.84,16,16,0,0,0-3.13,1.93c-.94.77-1.16,1.67-.33,2.58,3.11,3.38,5.71,7.3,9.8,9.69.86.5.78.92.09,1.42a4.93,4.93,0,0,1-1.07.61,42.84,42.84,0,0,0-10.82,6.47,132.28,132.28,0,0,1-18.72,11.76,55.89,55.89,0,0,1-21.39,6.54C139,181.85,131.81,182.87,124.89,182.69Zm7.35-46.24a23.33,23.33,0,0,0,1.35,10.31c1.63,4,3.92,7.45,8.13,9.19,7.34,3,14.81-3.24,17.19-8.68A44.48,44.48,0,0,0,162.28,126c-.56-8.42-6.42-14.17-14.84-14.24a14.32,14.32,0,0,1-7.13-2c-.68-.38-1.4-1.49-2.17-.77s0,1.74.28,2.6a3.6,3.6,0,0,0,.38.76c1.52,2.62,1.43,3.28-.74,5.54a6.86,6.86,0,0,0-.93,1.16C134,124.5,131.65,130.19,132.24,136.45ZM108,122.36a27.17,27.17,0,0,0-.67-6.87c-1.32-6.19-4.44-11.95-13.32-11.3a8.13,8.13,0,0,1-4.73-1.4c-1.31-.76-2.55-1.65-3.8-2.49-.43-.29-.85-.64-1.36-.22a1.13,1.13,0,0,0-.21,1.39,9.2,9.2,0,0,0,3.29,4.7c1.23.87,1.3,1.81.3,2.87a30.29,30.29,0,0,0-8.12,18.63c-.65,7.51.92,14.43,6.78,19.83,4.08,3.75,8.45,3.72,12.33-.19C105.33,140.38,107.37,131.62,108,122.36Z"/></svg>