<svg id="图层_1" data-name="图层 1" xmlns="http://www.w3.org/2000/svg" viewBox="0 0 240 240"><path d="M148.14,190.25c-1,2.78-2.18,6.39-2.79,8,1.34-.75,4.3-2.12,6.59-3.4,28.11-15.75,30.15-17.94,31.68-20,2.09-2.82,7.85-11.88,6.11-30.64-15.41-2.12-22.85,4.88-25.17,7.43C162.87,153.54,161.07,156,148.14,190.25Z"/><path d="M91.36,190.25c1.06,2.78,2.19,6.39,2.8,8-1.35-.75-4.31-2.12-6.6-3.4-28.11-15.75-30.14-17.94-31.68-20C53.79,172.06,48,163,49.77,144.24c15.41-2.12,22.86,4.88,25.17,7.43C76.64,153.54,78.43,156,91.36,190.25Z"/><path d="M127.48,57.79c-2.52-5.72-6.28-12.72-7.77-16.07-1.5,3.35-5.25,10.35-7.78,16.07-31,70.23-31.52,76.79-31.18,82.32.41,7,3.44,27,32,48.56-16.14-14.68-17.94-28-18.2-32.79-.21-4,.11-8.71,20.15-59.25,1.63-4.11,4.06-9.15,5-11.56,1,2.41,3.39,7.45,5,11.56,20,50.54,20.36,55.27,20.15,59.25-.26,4.81-2,18.11-18.2,32.79,28.54-21.56,31.57-41.56,32-48.56C159,134.58,158.5,128,127.48,57.79Z"/><path d="M58.62,56.94c4.85,15.21,3.75,25.52,2.08,31.87-4,15.13-14,18.79-18.52,34.59-3.25,11.37-1.7,22.25-.17,29-.49-4.89-.68-12.86,2.73-20.33,7.16-15.7,23.06-13.49,28.5-24.72C76.62,100.38,76.65,86.7,58.62,56.94Z"/><path d="M181.38,56.94c-4.85,15.21-3.75,25.52-2.08,31.87,4,15.13,14,18.79,18.52,34.59,3.25,11.37,1.7,22.25.17,29,.49-4.89.68-12.86-2.73-20.33-7.16-15.7-23.06-13.49-28.5-24.72C163.38,100.38,163.35,86.7,181.38,56.94Z"/></svg>