<svg id="图层_1" data-name="图层 1" xmlns="http://www.w3.org/2000/svg" viewBox="0 0 240 240"><path d="M151.37,190.78c-4.27-3-13.13-1.3-15.68-3.94a16.87,16.87,0,0,1-2.74-3.5,10.43,10.43,0,0,1-.58-6.57q4.84-4.92,9.71-9.83a41.13,41.13,0,0,1-21.82,7.83,41.06,41.06,0,0,1-21.82-7.83l9.71,9.83a10.38,10.38,0,0,1-.59,6.57,17.05,17.05,0,0,1-2.73,3.5c-2.56,2.64-11.42,1-15.69,3.94a33.87,33.87,0,0,0-8.18,8A113.45,113.45,0,0,0,120.26,209a113.24,113.24,0,0,0,39.29-10.22A33.69,33.69,0,0,0,151.37,190.78Z"/><path d="M72.13,123.48c-.47-.39-3.11-2.57-5.76-2.12-3.66.61-5.47,5.94-5.39,9.7.17,8.15,9.3,13.16,10.23,13.65A25.21,25.21,0,0,0,77.34,147c-.5-5.51-1.12-11-1.86-16.53A10,10,0,0,0,72.13,123.48Z"/><path d="M173.63,121.36c-2.65-.45-5.29,1.73-5.76,2.12a10,10,0,0,0-3.35,7c-.74,5.56-1.36,11-1.86,16.53a25.21,25.21,0,0,0,6.13-2.27c.93-.49,10.06-5.5,10.23-13.65C179.1,127.3,177.29,122,173.63,121.36Z"/><path d="M100.46,67.16a11.44,11.44,0,0,0-.9,3.23c-.13,0-.27.1-.39.16a38.76,38.76,0,0,0-12.63,8.36c-7.69,7.83-9.27,17.43-10.1,22.51a53.33,53.33,0,0,0,0,16.22,55.61,55.61,0,0,0,6.38,18.71,34.67,34.67,0,0,1,7.44-17.22C93.63,115,99.71,107.51,108.1,108c5.32.34,9.12,3.73,10.78,5.46.38.35.82.71,1.19,1.06.38-.35.82-.71,1.19-1.06,1.67-1.73,5.47-5.12,10.78-5.46,8.4-.53,14.48,6.95,17.85,11.09a34.64,34.64,0,0,1,7.43,17.22,55.59,55.59,0,0,0,6.39-18.71,53.33,53.33,0,0,0,0-16.22c-.84-5.08-2.41-14.68-10.1-22.51A38.76,38.76,0,0,0,141,70.55c-.53-.23-1.08-.45-1.64-.66a11.63,11.63,0,0,0-.86-2.81c-2.95-6.54-11.09-8.75-12.29-9.06,0,0,1.74-16.51,1.55-21.13s-3.67-5.78-8.34-5.89c-4.66.13-8.13,1.3-8.31,5.92s1.62,21.13,1.62,21.13C111.52,58.36,103.39,60.61,100.46,67.16Z"/></svg>