<svg width="21" height="20" viewBox="0 0 21 20" fill="none" xmlns="http://www.w3.org/2000/svg">
<path d="M8.95462 3.25238C9.73249 1.96404 11.601 1.96404 12.3789 3.25238L13.528 5.15567C13.8069 5.61757 14.2606 5.9472 14.7861 6.0697L16.9513 6.57447C18.417 6.91615 18.9944 8.6932 18.0095 9.83112L16.5545 11.5122C16.2013 11.9202 16.0281 12.4535 16.0739 12.9911L16.263 15.2064C16.3909 16.7059 14.8793 17.8042 13.4927 17.2191L11.4443 16.3548C10.9471 16.145 10.3864 16.145 9.88923 16.3548L7.84082 17.2191C6.45423 17.8042 4.94258 16.7059 5.07054 15.2064L5.25957 12.9911C5.30545 12.4535 5.13215 11.9202 4.77903 11.5122L3.32401 9.83112C2.3391 8.6932 2.9165 6.91615 4.38217 6.57447L6.54741 6.0697C7.07289 5.9472 7.52657 5.61757 7.80546 5.15567L8.95462 3.25238Z" stroke="#24292E" stroke-width="2"/>
</svg>
