<?xml version="1.0" standalone="no"?><!DOCTYPE svg PUBLIC "-//W3C//DTD SVG 1.1//EN" "http://www.w3.org/Graphics/SVG/1.1/DTD/svg11.dtd"><svg t="1748486869116" class="icon" viewBox="0 0 1024 1024" version="1.1" xmlns="http://www.w3.org/2000/svg" p-id="2561" width="120" height="120" xmlns:xlink="http://www.w3.org/1999/xlink"><path d="M588.8 358.4H204.8c-42.3552 0-76.8 34.4448-76.8 76.8v384c0 42.3552 34.4448 76.8 76.8 76.8h384c42.3552 0 76.8-34.4448 76.8-76.8V435.2c0-42.3552-34.4448-76.8-76.8-76.8z" fill="#7C7F82" p-id="2562"></path><path d="M819.2 128H435.2a76.8064 76.8064 0 0 0-76.8 76.8v76.8h307.2a76.8064 76.8064 0 0 1 76.8 76.8v307.2h76.8c20.368 0 39.904-8.0928 54.3072-22.4928A76.816 76.816 0 0 0 896 588.8V204.8a76.8096 76.8096 0 0 0-76.8-76.8z" fill="#7C7F82" p-id="2563"></path></svg>