<svg width="20" height="20" viewBox="0 0 20 20" fill="none" xmlns="http://www.w3.org/2000/svg">
<path d="M7.72565 2.32102C7.83345 2.28422 7.94865 2.29142 8.06065 2.29122C9.34725 2.29122 10.6338 2.29122 11.9204 2.29122C12.0388 2.29222 12.1612 2.28222 12.2754 2.32142C12.4596 2.37942 12.6118 2.52802 12.674 2.71102C12.7218 2.84362 12.7168 2.99022 12.6756 3.12382C13.8572 3.12362 15.0388 3.12362 16.2204 3.12382C16.3568 3.12102 16.4952 3.15682 16.6072 3.23662C16.7708 3.34822 16.874 3.54242 16.875 3.74062C16.881 3.96102 16.7588 4.17902 16.5678 4.28882C16.4114 4.38962 16.22 4.37682 16.0426 4.37522C16.0424 8.74342 16.0426 13.1118 16.0426 17.4802C16.0452 17.6262 15.9984 17.773 15.9076 17.8878C15.7926 18.0356 15.6072 18.1248 15.4202 18.125C11.8066 18.125 8.19305 18.1252 4.57965 18.125C4.43005 18.1246 4.28205 18.0678 4.16965 17.9696C4.03045 17.8484 3.95325 17.6634 3.95745 17.4796C3.95745 13.1114 3.95765 8.74322 3.95745 4.37522C3.83285 4.37162 3.70505 4.38742 3.58325 4.35282C3.41865 4.30822 3.27505 4.19282 3.19645 4.04142C3.09105 3.84482 3.10305 3.59182 3.22725 3.40662C3.34085 3.22922 3.54905 3.12102 3.75905 3.12402C4.94745 3.12322 6.13585 3.12382 7.32445 3.12382C7.28305 2.99022 7.27825 2.84382 7.32585 2.71122C7.38805 2.52782 7.54085 2.37882 7.72565 2.32102ZM5.20885 16.8736C8.40305 16.8738 11.597 16.8738 14.7912 16.8736C14.7912 12.7074 14.7914 8.54122 14.791 4.37522C11.597 4.37502 8.40305 4.37502 5.20905 4.37522C5.20865 8.54122 5.20885 12.7074 5.20885 16.8736Z" fill="#1C1C1C" fill-opacity="0.2"/>
<path d="M8.18736 6.89183C8.45836 6.82223 8.76416 6.96083 8.88856 7.21183C8.93856 7.30603 8.96056 7.41343 8.95916 7.51983C8.95876 9.45343 8.95916 11.3872 8.95896 13.3208C8.96376 13.5226 8.86476 13.7238 8.69976 13.8404C8.54816 13.9516 8.34536 13.9868 8.16476 13.9356C7.88776 13.864 7.69056 13.5842 7.70756 13.2998C7.70796 11.3666 7.70696 9.43343 7.70796 7.50043C7.70316 7.21863 7.91216 6.95283 8.18736 6.89183Z" fill="#1C1C1C" fill-opacity="0.2"/>
<path d="M11.5456 6.88643C11.8074 6.83083 12.0944 6.96563 12.2174 7.20343C12.2818 7.31763 12.2974 7.45103 12.2928 7.57983C12.2922 9.49403 12.293 11.408 12.2924 13.3222C12.2956 13.507 12.2134 13.6916 12.0714 13.8106C11.879 13.9776 11.5822 14.0066 11.3612 13.8792C11.1622 13.771 11.035 13.5476 11.0412 13.3214C11.0414 11.3806 11.0408 9.43963 11.0414 7.49883C11.036 7.20863 11.2598 6.93703 11.5456 6.88643Z" fill="#1C1C1C" fill-opacity="0.2"/>
</svg>
