<?xml version="1.0" standalone="no"?><!DOCTYPE svg PUBLIC "-//W3C//DTD SVG 1.1//EN" "http://www.w3.org/Graphics/SVG/1.1/DTD/svg11.dtd"><svg t="1748351553849" class="icon" viewBox="0 0 1024 1024" version="1.1" xmlns="http://www.w3.org/2000/svg" p-id="4205" width="24" height="24" xmlns:xlink="http://www.w3.org/1999/xlink"><path d="M467.5008 880c-13.056 0-23.9936-4.416-32.8096-13.248s-13.2384-19.7504-13.2704-32.752v-276L154.1568 217.6c-11.52-15.3344-13.2416-31.4336-5.1616-48.3008C157.0752 152.4352 171.0848 144 191.0208 144h645.12c19.968 0 33.9904 8.432 42.0704 25.2992 8.08 16.8672 6.3456 32.9664-5.2064 48.3008l-267.264 340.4v276c0 13.0336-4.4224 23.9648-13.2704 32.7968-8.848 8.832-19.7856 13.2352-32.8096 13.2032h-92.16z m46.08-354.2016l228.096-289.7984H285.4848l228.096 289.7984z" fill="#FEDAA3" p-id="4206"></path></svg>