<svg id="图层_1" data-name="图层 1" xmlns="http://www.w3.org/2000/svg" viewBox="0 0 240 240"><path d="M84.53,61.84q-.19,2.11,34.55,6.81a4.93,4.93,0,0,0,2.22-.05h0l.48-.12q34.35-4.66,34.17-6.75-.13-1.63-21.17-1.71Q152.14,43.48,151,42.32T128.51,56.61a29.57,29.57,0,0,0-3.16-18.38c-1.76-3.25-3.24-5.72-5.08-7.49l0,.15c-1.84,1.76-3.31,4.22-5.07,7.47A29.57,29.57,0,0,0,112,56.74Q90.75,41.23,89.54,42.44t16.17,17.7Q84.67,60.22,84.53,61.84Z"/><path d="M151.36,191.05c-4.27-3-13.12-1.3-15.67-3.94-1.68-1.73-4.33-3.88-3.33-10.06l9.71-9.83a41,41,0,0,1-21.8,7.83,41.07,41.07,0,0,1-21.81-7.83l9.71,9.83a10.5,10.5,0,0,1-.59,6.56,16.78,16.78,0,0,1-2.73,3.5c-2.56,2.64-11.41,1-15.68,3.94A33.79,33.79,0,0,0,81,199a108.32,108.32,0,0,0,11.52,4.6,110.31,110.31,0,0,0,27.75,5.62A110.24,110.24,0,0,0,148,203.64a108.32,108.32,0,0,0,11.52-4.6A33.79,33.79,0,0,0,151.36,191.05Z"/><path d="M175.08,125.42c-2.36-.45-4.71,1.44-5.53,2.17q-.11-7.35-.55-14.23c.1-2.07.65-22-17-34.71-13.27-9.54-28.16-8.72-31.74-8.43-3.59-.29-18.48-1.11-31.75,8.43-17.64,12.67-17.09,32.64-17,34.71-.3,4.74-.5,9.66-.56,14.75-.1-.1-.18-.21-.29-.31-.47-.44-3.11-2.88-5.76-2.38-3.65.69-5.46,6.67-5.38,10.89.17,9.14,9.29,14.76,10.21,15.32.69.4,1.36.75,2,1.05.63,8.21,1.63,16.72,3.12,25.52,1.19,7,2.6,13.75,4.18,20.16-.29-9.72-.32-19.86,0-30.37a503.79,503.79,0,0,1,5.08-57.75,39.24,39.24,0,0,0,1.61,15.63c.39,1.23.78,2.27,1.11,3.06h66.83c.33-.79.73-1.83,1.11-3.06a39.24,39.24,0,0,0,1.61-15.63A503.79,503.79,0,0,1,161.48,168c.32,10.51.3,20.65,0,30.37,1.58-6.41,3-13.14,4.18-20.16,1.51-8.89,2.52-17.5,3.14-25.79.47-.23.95-.49,1.45-.78.92-.56,10-6.18,10.21-15.32C180.54,132.09,178.73,126.11,175.08,125.42Z"/></svg>