<svg width="30" height="30" viewBox="0 0 30 30" fill="none" xmlns="http://www.w3.org/2000/svg">
<path d="M15 6.66666C10.4167 6.66666 6.66667 10.4167 6.66667 15C6.66667 19.5833 10.4167 23.3333 15 23.3333C19.5833 23.3333 23.3333 19.5833 23.3333 15C23.3333 10.4167 19.5833 6.66666 15 6.66666ZM15 21.6667C11.325 21.6667 8.33334 18.675 8.33334 15C8.33334 11.325 11.325 8.33332 15 8.33332C18.675 8.33332 21.6667 11.325 21.6667 15C21.6667 18.675 18.675 21.6667 15 21.6667ZM15.4167 11.4583C15.4167 11.1131 15.1369 10.8333 14.7917 10.8333C14.4465 10.8333 14.1667 11.1131 14.1667 11.4583V14.7157C14.1667 15.4103 14.527 16.0551 15.1185 16.4191L17.9614 18.1685C18.2589 18.3516 18.6484 18.2588 18.8315 17.9614C19.016 17.6615 18.9201 17.2687 18.6182 17.0876L16.3877 15.7493C15.7853 15.3878 15.4167 14.7368 15.4167 14.0343V11.4583Z" fill="#FEDAA3"/>
</svg>
