<svg id="图层_1" data-name="图层 1" xmlns="http://www.w3.org/2000/svg" viewBox="0 0 240 240"><path d="M89,155a57.54,57.54,0,0,1-7.15-27.07l4.85.77c.4-5.47,2.08-16.58,10.47-25.28,3.09-3.2,7.61-8,13.79-7.4a14.6,14.6,0,0,1,9.49,5.11A14.6,14.6,0,0,1,129.91,96c6.18-.58,10.7,4.2,13.79,7.4,8.38,8.7,10.06,19.81,10.46,25.28l4.85-.77A57.37,57.37,0,0,1,151.87,155c1.71-.18,15.22-1.79,20.68-12.51,3.21-6.32,4.06-16.65-.77-19.41-2.88-1.64-6.83,0-8.94,1a36.09,36.09,0,0,0,2.3-17.1A38.82,38.82,0,0,0,144,77.09a33.66,33.66,0,0,0-5.36-2,15.9,15.9,0,0,0-.77-7.66c-2.69-7.35-10.13-9.86-11.23-10.21,0,0,1.62-18.55,1.45-23.74s-3.35-6.51-7.62-6.64c-4.28.13-7.45,1.44-7.62,6.64s1.45,23.74,1.45,23.74c-1.1.35-8.54,2.86-11.24,10.21a15.75,15.75,0,0,0-.76,7.66,34.07,34.07,0,0,0-5.37,2A38.82,38.82,0,0,0,75.69,107a36.35,36.35,0,0,0,2.3,17.1c-2.11-1.07-6.06-2.66-8.94-1-4.83,2.76-4,13.09-.76,19.41C73.74,153.18,87.26,154.79,89,155Z"/><path d="M153.58,182.29a6.11,6.11,0,0,0-10.21-3.83c.09-3.15.17-6.3.26-9.45a37.52,37.52,0,0,1-10.47,9.7A36.36,36.36,0,0,1,120,183.82a36.36,36.36,0,0,1-13.16-5.11A37.52,37.52,0,0,1,96.37,169c.09,3.15.17,6.3.26,9.45a6.11,6.11,0,0,0-10.21,3.83H55A73.33,73.33,0,0,0,83.86,204c15.92,6.63,29.64,9.86,36.14,9.1,6.5.76,20.22-2.47,36.14-9.1A73.33,73.33,0,0,0,185,182.29Z"/></svg>