<svg width="20" height="20" viewBox="0 0 20 20" fill="none" xmlns="http://www.w3.org/2000/svg">
<path d="M9.41075 1.91083C9.56703 1.7546 9.77895 1.66684 9.99992 1.66684C10.2209 1.66684 10.4328 1.7546 10.5891 1.91083L13.0891 4.41083C13.2409 4.568 13.3249 4.7785 13.323 4.997C13.3211 5.21549 13.2334 5.4245 13.0789 5.57901C12.9244 5.73352 12.7154 5.82116 12.4969 5.82306C12.2784 5.82496 12.0679 5.74096 11.9108 5.58916L10.8333 4.51166V12.5C10.8333 12.721 10.7455 12.933 10.5892 13.0893C10.4329 13.2455 10.2209 13.3333 9.99992 13.3333C9.7789 13.3333 9.56694 13.2455 9.41066 13.0893C9.25438 12.933 9.16658 12.721 9.16658 12.5V4.51166L8.08909 5.58916C7.93192 5.74096 7.72142 5.82496 7.50292 5.82306C7.28442 5.82116 7.07541 5.73352 6.9209 5.57901C6.7664 5.4245 6.67876 5.21549 6.67686 4.997C6.67496 4.7785 6.75895 4.568 6.91075 4.41083L9.41075 1.91083ZM3.33325 9.16666C3.33325 8.72463 3.50885 8.30071 3.82141 7.98815C4.13397 7.67559 4.55789 7.49999 4.99992 7.49999H6.66659C6.8876 7.49999 7.09956 7.58779 7.25584 7.74407C7.41212 7.90035 7.49992 8.11231 7.49992 8.33333C7.49992 8.55434 7.41212 8.7663 7.25584 8.92258C7.09956 9.07886 6.8876 9.16666 6.66659 9.16666H4.99992V16.6667H14.9999V9.16666H13.3333C13.1122 9.16666 12.9003 9.07886 12.744 8.92258C12.5877 8.7663 12.4999 8.55434 12.4999 8.33333C12.4999 8.11231 12.5877 7.90035 12.744 7.74407C12.9003 7.58779 13.1122 7.49999 13.3333 7.49999H14.9999C15.4419 7.49999 15.8659 7.67559 16.1784 7.98815C16.491 8.30071 16.6666 8.72463 16.6666 9.16666V16.6667C16.6666 17.1087 16.491 17.5326 16.1784 17.8452C15.8659 18.1577 15.4419 18.3333 14.9999 18.3333H4.99992C4.55789 18.3333 4.13397 18.1577 3.82141 17.8452C3.50885 17.5326 3.33325 17.1087 3.33325 16.6667V9.16666Z" fill="#24292E"/>
</svg>
