<svg width="20" height="20" viewBox="0 0 20 20" fill="none" xmlns="http://www.w3.org/2000/svg">
<path d="M9.41083 1.91083C9.5671 1.7546 9.77902 1.66684 9.99999 1.66684C10.221 1.66684 10.4329 1.7546 10.5892 1.91083L13.0892 4.41083C13.241 4.568 13.325 4.7785 13.3231 4.997C13.3212 5.21549 13.2335 5.4245 13.079 5.57901C12.9245 5.73352 12.7155 5.82116 12.497 5.82306C12.2785 5.82496 12.068 5.74096 11.9108 5.58916L10.8333 4.51166V12.5C10.8333 12.721 10.7455 12.933 10.5893 13.0893C10.433 13.2455 10.221 13.3333 9.99999 13.3333C9.77898 13.3333 9.56702 13.2455 9.41074 13.0893C9.25446 12.933 9.16666 12.721 9.16666 12.5V4.51166L8.08916 5.58916C7.93199 5.74096 7.72149 5.82496 7.50299 5.82306C7.2845 5.82116 7.07549 5.73352 6.92098 5.57901C6.76647 5.4245 6.67883 5.21549 6.67693 4.997C6.67503 4.7785 6.75903 4.568 6.91083 4.41083L9.41083 1.91083ZM3.33333 9.16666C3.33333 8.72463 3.50892 8.30071 3.82148 7.98815C4.13404 7.67559 4.55797 7.49999 4.99999 7.49999H6.66666C6.88768 7.49999 7.09964 7.58779 7.25592 7.74407C7.4122 7.90035 7.49999 8.11231 7.49999 8.33333C7.49999 8.55434 7.4122 8.7663 7.25592 8.92258C7.09964 9.07886 6.88768 9.16666 6.66666 9.16666H4.99999V16.6667H15V9.16666H13.3333C13.1123 9.16666 12.9004 9.07886 12.7441 8.92258C12.5878 8.7663 12.5 8.55434 12.5 8.33333C12.5 8.11231 12.5878 7.90035 12.7441 7.74407C12.9004 7.58779 13.1123 7.49999 13.3333 7.49999H15C15.442 7.49999 15.8659 7.67559 16.1785 7.98815C16.4911 8.30071 16.6667 8.72463 16.6667 9.16666V16.6667C16.6667 17.1087 16.4911 17.5326 16.1785 17.8452C15.8659 18.1577 15.442 18.3333 15 18.3333H4.99999C4.55797 18.3333 4.13404 18.1577 3.82148 17.8452C3.50892 17.5326 3.33333 17.1087 3.33333 16.6667V9.16666Z" fill="#FEDAA3"/>
</svg>
