<?xml version="1.0" standalone="no"?><!DOCTYPE svg PUBLIC "-//W3C//DTD SVG 1.1//EN" "http://www.w3.org/Graphics/SVG/1.1/DTD/svg11.dtd"><svg t="1749626601698" class="icon" viewBox="0 0 1024 1024" version="1.1" xmlns="http://www.w3.org/2000/svg" p-id="3073" width="24" height="24" xmlns:xlink="http://www.w3.org/1999/xlink"><path d="M599.2768 144h1.9968c13.9328 0 27.296 5.536 37.1488 15.3984a52.5888 52.5888 0 0 1 0 74.3456 52.5184 52.5184 0 0 1-37.1488 15.3984c-68.0384 0-119.0528 0-159.5584 3.2608-40.6144 3.2576-64.624 9.408-80.8064 18.032a194.464 194.464 0 0 0-82.4864 86.848c-8.9824 18.608-14.7104 42.3712-17.7568 81.3792-2.7328 34.592-3.0464 77.5968-3.152 135.6352l36.4096-36.3808a52.5472 52.5472 0 0 1 37.152-15.4144 52.5536 52.5536 0 0 1 52.5664 52.5632 52.5952 52.5952 0 0 1-15.376 37.1872l-126.0928 126.1728a52.56 52.56 0 0 1-38.496 15.424 52.5664 52.5664 0 0 1-37.6864-17.3184l-114.0064-126.1696a52.5792 52.5792 0 0 1-13.52-37.8976 52.6176 52.6176 0 0 1 17.2224-36.3584 52.512 52.512 0 0 1 74.2112 3.7056l22.592 25.024c0.0512-53.52 0.5248-97.5744 3.4144-134.32 3.52-45.1584 10.8224-83.696 28.0032-119.1264a299.5744 299.5744 0 0 1 127.456-133.6896c35.2032-18.8736 76.4992-26.4448 121.9968-30.0704C478.544 144 533.76 144 599.2768 144z m219.4528 126.1728a52.512 52.512 0 0 1 37.6192 17.3472l114.0608 126.1728a52.6176 52.6176 0 0 1 10.368 58.9728 52.544 52.544 0 0 1-51.536 30.432 52.528 52.528 0 0 1-36.6944-18.96l-22.592-24.9728c-0.1056 53.52-0.576 97.5744-3.4656 134.32-3.5232 45.1584-10.8256 83.696-28.0032 119.1264a299.5712 299.5712 0 0 1-127.4592 133.6896c-35.2 18.8224-76.496 26.4448-121.9968 30.0704C543.8496 880 488.6848 880 423.168 880h-2.1024c-13.9328 0-27.296-5.5392-37.1488-15.3984a52.5856 52.5856 0 0 1 0-74.3456 52.5216 52.5216 0 0 1 37.1488-15.3984c68.0896 0 119.104 0 159.6128-3.2608 40.6112-3.2576 64.6208-9.408 80.8032-18.032a194.4512 194.4512 0 0 0 82.4864-86.848c8.9856-18.608 14.7104-42.3712 17.7568-81.3792 2.7328-34.592 3.1008-77.5968 3.1552-135.6352l-36.4096 36.3808a52.528 52.528 0 0 1-73.6512-0.64 52.5856 52.5856 0 0 1-0.64-73.696l126.0928-126.1728a52.5504 52.5504 0 0 1 38.4576-15.4016z" fill="#D9D9D9" p-id="3074"></path></svg>