<svg xmlns="http://www.w3.org/2000/svg" width="14" height="14" viewBox="0 0 14 14" fill="">
  <path fill-rule="evenodd" clip-rule="evenodd" d="M5.70992 1.5232C5.45286 1.41683 5.16409 1.41683 4.90702 1.5232L2.04822 2.7062C1.85656 2.78558 1.69271 2.91997 1.57734 3.09239C1.46198 3.26481 1.40028 3.46754 1.40002 3.675V11.2889C1.4 11.4616 1.44257 11.6316 1.52396 11.7839C1.60535 11.9362 1.72304 12.0661 1.86662 12.162C2.01019 12.258 2.17521 12.317 2.34706 12.334C2.51891 12.3509 2.69229 12.3252 2.85182 12.2591L5.30882 11.2427L8.29082 12.4761C8.54769 12.5823 8.83616 12.5823 9.09302 12.4761L11.9511 11.2931C12.1428 11.2139 12.3067 11.0796 12.4222 10.9073C12.5377 10.7351 12.5996 10.5324 12.6 10.325V2.7104C12.6 2.5378 12.5574 2.36788 12.4761 2.21566C12.3947 2.06344 12.2771 1.93362 12.1336 1.83769C11.9901 1.74177 11.8252 1.68268 11.6535 1.66568C11.4817 1.64867 11.3084 1.67427 11.1489 1.7402L8.69192 2.7566L5.70992 1.5232ZM5.30602 3.5C5.44526 3.5 5.5788 3.55531 5.67726 3.65377C5.77571 3.75222 5.83102 3.88576 5.83102 4.025V8.575C5.83102 8.71424 5.77571 8.84777 5.67726 8.94623C5.5788 9.04469 5.44526 9.1 5.30602 9.1C5.16679 9.1 5.03325 9.04469 4.93479 8.94623C4.83634 8.84777 4.78102 8.71424 4.78102 8.575V4.025C4.78102 3.88576 4.83634 3.75222 4.93479 3.65377C5.03325 3.55531 5.16679 3.5 5.30602 3.5ZM9.21903 5.425C9.21903 5.28576 9.16371 5.15222 9.06526 5.05377C8.9668 4.95531 8.83326 4.9 8.69403 4.9C8.55479 4.9 8.42125 4.95531 8.32279 5.05377C8.22434 5.15222 8.16902 5.28576 8.16902 5.425V9.975C8.16902 10.1142 8.22434 10.2478 8.32279 10.3462C8.42125 10.4447 8.55479 10.5 8.69403 10.5C8.83326 10.5 8.9668 10.4447 9.06526 10.3462C9.16371 10.2478 9.21903 10.1142 9.21903 9.975V5.425Z" fill=""/>
</svg>