<svg xmlns="http://www.w3.org/2000/svg" width="12" height="14" viewBox="0 0 12 14" fill="">
  <path d="M8.09566 1.76586C7.56355 1.19137 6.82035 0.875 6.00003 0.875C5.17535 0.875 4.42968 1.18945 3.90003 1.76039C3.36464 2.33762 3.10378 3.12211 3.16503 3.96922C3.28644 5.64047 4.5582 7 6.00003 7C7.44187 7 8.71144 5.64074 8.83476 3.96977C8.89683 3.13031 8.63433 2.34746 8.09566 1.76586ZM10.8125 13.125H1.18753C1.06155 13.1266 0.936788 13.1002 0.822321 13.0475C0.707854 12.9949 0.606562 12.9174 0.525816 12.8207C0.348081 12.6082 0.276441 12.3181 0.329487 12.0247C0.560269 10.7445 1.2805 9.66902 2.41253 8.91406C3.41824 8.24387 4.69218 7.875 6.00003 7.875C7.30789 7.875 8.58183 8.24414 9.58753 8.91406C10.7196 9.66875 11.4398 10.7442 11.6706 12.0244C11.7236 12.3178 11.652 12.6079 11.4743 12.8204C11.3935 12.9172 11.2923 12.9947 11.1778 13.0474C11.0633 13.1001 10.9385 13.1266 10.8125 13.125Z" fill=""/>
</svg>