<svg xmlns="http://www.w3.org/2000/svg" width="20" height="20" viewBox="0 0 20 20" fill="none">
  <path d="M9.1624 2.05455C9.393 2.01215 9.6244 1.96295 9.8602 1.96495C10.6586 1.94055 11.4646 2.22495 12.064 2.75475C12.385 3.02755 12.6322 3.37535 12.8324 3.74355C14.5994 6.80535 16.3674 9.86635 18.1342 12.928C18.2486 13.127 18.369 13.323 18.4632 13.5328C18.633 13.9248 18.7396 14.3506 18.733 14.7796C18.7594 15.6142 18.422 16.4464 17.8496 17.0504C17.3286 17.6082 16.599 17.9632 15.8396 18.0338C15.6344 18.0612 15.4272 18.0462 15.221 18.05C11.5548 18.0506 7.8888 18.0487 4.2228 18.051C4.2298 18.0462 4.2438 18.0364 4.2508 18.0316C8.0682 18.03 11.8866 18.0332 15.7046 18.0302C11.877 18.0258 8.049 18.031 4.2218 18.0274C4.2146 18.0302 4.2 18.0358 4.1928 18.0386C3.9418 18.038 3.6906 17.9841 3.4494 17.915C2.7236 17.7052 2.0874 17.2188 1.6786 16.5856C1.1646 15.804 1.0148 14.7928 1.2944 13.8988C1.385 13.587 1.5398 13.2996 1.705 13.022C3.4672 9.97055 5.2284 6.91895 6.9902 3.86755C7.1306 3.62535 7.2632 3.37655 7.4422 3.15995C7.8442 2.65535 8.4038 2.27835 9.0236 2.09775C9.0794 2.07935 9.1366 2.06215 9.1964 2.06655C9.185 2.06255 9.1736 2.05855 9.1624 2.05455ZM9.6998 3.18655C9.457 3.21795 9.2188 3.28995 9.0024 3.40515C8.6578 3.58435 8.3754 3.87315 8.1876 4.21175C6.3382 7.41575 4.4886 10.6198 2.6388 13.8236C2.4712 14.113 2.3668 14.445 2.3664 14.781C2.341 15.4612 2.7012 16.1368 3.2678 16.5102C3.583 16.7196 3.96 16.8404 4.3394 16.836C8.0864 16.8356 11.8334 16.836 15.5804 16.8356C16.2452 16.835 16.8838 16.4526 17.2264 15.8874C17.495 15.4556 17.5972 14.9196 17.4874 14.4218C17.436 14.1664 17.3244 13.9276 17.1878 13.7074C15.3462 10.5168 13.5042 7.32675 11.6626 4.13655C11.5814 4.00915 11.494 3.88415 11.3844 3.77955C10.962 3.32595 10.311 3.10915 9.6998 3.18655Z" fill="white" fill-opacity="0.4"/>
  <path d="M9.34545 5.95879C9.34665 5.65619 9.61825 5.38499 9.92085 5.38459C10.1272 5.36879 10.3366 5.47639 10.449 5.64919C10.5514 5.79759 10.5648 5.98579 10.5618 6.16079C10.5618 8.20019 10.5616 10.2398 10.5618 12.2794C10.5638 12.3446 10.5628 12.4098 10.5498 12.4742C10.5282 12.7434 10.308 12.9804 10.0394 13.0164C9.69805 13.0814 9.34045 12.79 9.34545 12.44C9.34525 10.2796 9.34505 8.11919 9.34545 5.95879Z" fill="white" fill-opacity="0.4"/>
  <path d="M9.81523 14.0364C9.96463 14.0126 10.1252 14.0232 10.2578 14.1022C10.423 14.1956 10.5444 14.3686 10.5646 14.5586C10.605 14.826 10.4432 15.1072 10.1914 15.2066C9.98663 15.2922 9.73523 15.2586 9.56483 15.1144C9.32043 14.9244 9.26923 14.5396 9.44823 14.2894C9.53023 14.1594 9.66963 14.0766 9.81523 14.0364Z" fill="white" fill-opacity="0.4"/>
</svg>