<svg width="48" height="48" viewBox="0 0 48 48" fill="none" xmlns="http://www.w3.org/2000/svg">
    <path
        d="M27.3242 26.0483C29.809 24.1083 30.2507 20.5213 28.3108 18.0365C26.3708 15.5516 22.7838 15.1099 20.2989 17.0499C17.8141 18.9899 17.3724 22.5769 19.3124 25.0617C21.2524 27.5466 24.8394 27.9883 27.3242 26.0483Z"
        fill="#4080FF" />
    <path
        d="M18.176 44.064L20.976 39.23C16.6098 38.5316 12.657 36.2409 9.88 32.8L7.08 37.658L14.626 37.4L18.176 44.064Z"
        fill="#1C1C1C" />
    <path d="M27 39.172L29.824 44.064L33.374 37.4L40.924 37.66L37.962 32.528C35.2534 36.0199 31.3489 38.3864 27 39.172Z"
        fill="#1C1C1C" />
    <path
        d="M23.812 37.538C26.9745 37.538 30.066 36.6002 32.6956 34.8432C35.3251 33.0862 37.3746 30.5889 38.5848 27.6671C39.7951 24.7453 40.1117 21.5303 39.4948 18.4285C38.8778 15.3267 37.3549 12.4776 35.1186 10.2414C32.8824 8.00512 30.0332 6.48222 26.9315 5.86524C23.8297 5.24826 20.6147 5.56492 17.6929 6.77516C14.7711 7.98541 12.2738 10.0349 10.5168 12.6644C8.7598 15.294 7.822 18.3855 7.822 21.548C7.822 25.7888 9.50666 29.8559 12.5054 32.8546C15.5041 35.8533 19.5712 37.538 23.812 37.538ZM13.164 21.548C13.161 18.9608 14.1042 16.4619 15.816 14.522C14.9402 12.9857 13.8581 11.5767 12.6 10.334C13.8423 11.5928 15.2507 12.6761 16.786 13.554C18.7279 11.8449 21.2261 10.9021 23.813 10.9021C26.3999 10.9021 28.8981 11.8449 30.84 13.554C32.376 12.6762 33.785 11.5928 35.028 10.334C33.7663 11.5765 32.6803 12.9855 31.8 14.522C33.5091 16.4639 34.4519 18.9621 34.4519 21.549C34.4519 24.1359 33.5091 26.6341 31.8 28.576C32.6779 30.1113 33.7612 31.5197 35.02 32.762C33.7775 31.5031 32.3684 30.4204 30.832 29.544C28.8901 31.2531 26.3919 32.1959 23.805 32.1959C21.2181 32.1959 18.7199 31.2531 16.778 29.544C15.2451 30.4211 13.8394 31.5038 12.6 32.762C13.8588 31.5202 14.9415 30.1117 15.818 28.576C14.1061 26.6352 13.1623 24.1359 13.164 21.548Z"
        fill="#1C1C1C" />
</svg>