<svg width="18" height="18" viewBox="0 0 18 18" fill="none" xmlns="http://www.w3.org/2000/svg">
    <path
        d="M11.926 1.70531C12.5979 1.61585 13.3026 1.84895 13.7888 2.32127C14.041 2.57327 14.2952 2.82347 14.5441 3.07853C14.979 3.52151 15.2168 4.14953 15.184 4.76945C15.166 5.18111 15.0321 5.58719 14.802 5.92901C14.6793 6.11945 14.5166 6.27821 14.3562 6.43625C13.3451 7.44731 12.3341 8.45837 11.323 9.46943C10.8561 9.93833 10.3848 10.4031 9.92135 10.8754C9.08453 11.7126 8.24699 12.5494 7.41035 13.3868C6.98591 13.8186 6.38489 14.0701 5.77883 14.0627C4.97477 14.0621 4.17071 14.0627 3.36647 14.0625C3.25379 14.0616 3.14165 14.0254 3.04985 13.9597C2.90153 13.8582 2.81099 13.6796 2.81243 13.5002C2.81297 12.7742 2.81243 12.0481 2.81261 11.3222C2.81423 11.1784 2.80703 11.0342 2.82197 10.8909C2.85671 10.4978 2.99765 10.1153 3.22409 9.79235C3.37115 9.57761 3.56663 9.40391 3.74771 9.21905C4.74275 8.22203 5.74229 7.22933 6.73373 6.22871C7.71743 5.24519 8.70095 4.26149 9.68465 3.27779C9.89363 3.07223 10.0952 2.85947 10.304 2.65373C10.5071 2.45501 10.6971 2.23883 10.9353 2.08025C11.2303 1.88009 11.5721 1.74995 11.926 1.70531ZM12.0426 2.82581C11.8077 2.86037 11.5863 2.97179 11.4161 3.13685C10.0884 4.47245 8.75045 5.79833 7.42421 7.13555C6.42215 8.13761 5.42009 9.13967 4.41785 10.1419C4.32839 10.2321 4.23443 10.3194 4.15883 10.4222C4.05155 10.5707 3.97811 10.7438 3.95111 10.9253C3.93185 11.0383 3.93869 11.1533 3.93761 11.2676C3.93761 11.8242 3.93761 12.3808 3.93761 12.9375C4.51541 12.9375 5.09303 12.9375 5.67083 12.9375C5.75363 12.9371 5.83679 12.9406 5.91923 12.9305C6.11759 12.9083 6.30965 12.8329 6.47003 12.7145C6.57245 12.6387 6.65813 12.5442 6.74849 12.4553C7.10255 12.1012 7.45661 11.7472 7.81067 11.3931C8.77223 10.4225 9.74171 9.45971 10.7069 8.49257C11.7089 7.49051 12.7106 6.48845 13.7129 5.48657C13.8144 5.38559 13.8995 5.26733 13.9586 5.13665C14.1038 4.82273 14.0943 4.44383 13.9335 4.13765C13.8723 4.01903 13.7899 3.91229 13.6923 3.82139C13.458 3.58811 13.2299 3.34871 12.992 3.11903C12.7419 2.88413 12.3818 2.77145 12.0426 2.82581Z"
        fill="currentColor" fill-opacity="0.4" />
    <path
        d="M1.75312 15.2005C1.82746 15.1835 1.90414 15.1875 1.97992 15.1875C6.6961 15.1875 11.4121 15.1875 16.1283 15.1875C16.2795 15.1877 16.4301 15.2516 16.5338 15.3621C16.689 15.5218 16.7307 15.7757 16.6402 15.9784C16.5691 16.1433 16.4136 16.2677 16.2374 16.3019C16.1601 16.3183 16.0809 16.3114 16.0028 16.3125C11.2985 16.3129 6.59422 16.312 1.88992 16.3129C1.7362 16.3177 1.5823 16.256 1.4743 16.1467C1.30996 15.9847 1.2664 15.7189 1.36486 15.5111C1.43686 15.3544 1.58446 15.2366 1.75312 15.2005Z"
        fill="currentColor" fill-opacity="0.4" />
</svg>