<?xml version="1.0" encoding="UTF-8"?>
<svg id="_图层_1" xmlns="http://www.w3.org/2000/svg" version="1.1" viewBox="0 0 40 40">
  <!-- Generator: Adobe Illustrator 30.2.1, SVG Export Plug-In . SVG Version: 2.1.1 Build 1)  -->
  <defs>
    <style>
      .st0 {
        fill: #a3a5a7;
      }
    </style>
  </defs>
  <path class="st0" d="M15.6,20.3c2-.5,2-.5,2-.5l1.2,4.2s3.4-.7,6.7-3.1c2-1.4,2.8-3.7,2.3-6.1l-1.1-5.1c3.1-1.8,6.1-4,8.7-6.3H15.1L3.3,19.6s5.3-1.4,12.2-4.3c.4,1.6.7,3.6,0,5Z"/>
  <path class="st0" d="M29.6,17.2c-.2,1.2-.7,3.4-2.4,5.4-3,3.6-7.5,3.7-8.5,3.7,0,1.3-.3,3.1-.9,5.1-.8,2.5-2,4.3-2.9,5.4,0,0,11.5,1,16.2-5.8s-1.5-13.8-1.5-13.8h0Z"/>
  <path class="st0" d="M6.4,34.1c3.3,1.6,6.5,2.4,6.5,2.4,0,0,2-2.1,2.9-6.2,0,0-3.8,3.4-9.4,3.8Z"/>
  <path class="st0" d="M7.4,26.4l.5-.2,2.2,5.1c2-.6,3.8-1.5,5.5-2.7l-2.1-4.9h.2c0,0,.3-.2.3-.2v-2.8s-1.3.6-1.3.6l-1.5.7-.4.2-1.4-3.1-2.2,1,1.4,3.1-3.2,1.4,2.1,1.9Z"/>
</svg>