<?xml version="1.0" encoding="UTF-8"?>
<svg id="_图层_1" data-name="图层 1" xmlns="http://www.w3.org/2000/svg" viewBox="0 0 40 40">
  <defs>
    <style>
      .cls-1 {
        fill: #fff;
      }

      .cls-2 {
        fill: #434649;
      }

      .cls-3 {
        fill: #324148;
      }

      .cls-4 {
        fill: #24292e;
      }

      .cls-5 {
        fill: #242424;
      }

      .cls-6 {
        fill: #e54e60;
      }
    </style>
  </defs>
  <rect class="cls-1" width="40" height="40" rx="5" ry="5"/>
  <path class="cls-2" d="M14.36,12.14s2.47,5.22,1.21,8.21c1.96-.54,2.04-.54,2.04-.54l1.18,4.2s3.42-.73,6.7-3.11c1.96-1.42,2.77-3.72,2.29-6.05l-1.57-7.57-11.85,4.85Z"/>
  <path class="cls-4" d="M35.37,3.38H15.13L3.33,19.59S23.37,14.37,35.37,3.38Z"/>
  <path class="cls-3" d="M29.61,17.24c-.17,1.19-.67,3.41-2.39,5.43-3.04,3.56-7.54,3.7-8.5,3.71-.05,1.35-.26,3.13-.89,5.08-.81,2.47-2,4.27-2.92,5.43,0,0,11.51.96,16.2-5.84s-1.49-13.8-1.49-13.8Z"/>
  <path class="cls-6" d="M15.85,30.29s-3.76,3.37-9.41,3.78c3.27,1.65,6.51,2.4,6.51,2.4,0,0,2.04-2.13,2.9-6.18Z"/>
  <path class="cls-5" d="M13.46,23.73l.2-.09.29-.13.03-2.78-1.33.59-1.53.68-.37.16-1.36-3.1-2.18.96,1.36,3.1-3.23,1.42,2.06,1.85.49-.21,2.24,5.09c1.98-.6,3.82-1.52,5.48-2.69l-2.14-4.86Z"/>
</svg>