<?xml version="1.0" encoding="UTF-8"?>
<svg id="_图层_1" data-name="图层 1" xmlns="http://www.w3.org/2000/svg" viewBox="0 0 40 40">
  <g>
    <path d="M15.56,20.35c1.96-.54,2.04-.54,2.04-.54l1.18,4.2s3.42-.73,6.7-3.11c1.96-1.42,2.77-3.72,2.29-6.05l-1.06-5.13c3.07-1.85,6.06-3.96,8.66-6.34H15.13L3.33,19.59s5.34-1.39,12.15-4.25c.43,1.64.68,3.58.08,5.01Z"  fill="#A3A5A7"/>
    <path d="M27.22,22.67c-3.04,3.56-7.54,3.7-8.5,3.71-.05,1.35-.26,3.13-.89,5.08-.81,2.47-2,4.27-2.92,5.43,0,0,11.51.96,16.2-5.84s-1.49-13.8-1.49-13.8c-.17,1.19-.67,3.41-2.39,5.43Z"  fill="#A3A5A7"/>
    <path d="M6.43,34.07c3.27,1.65,6.51,2.4,6.51,2.4,0,0,2.04-2.13,2.9-6.18,0,0-3.76,3.37-9.41,3.78Z"  fill="#A3A5A7"/>
  </g>
  <path d="M13.46,23.73l.2-.09.29-.13.03-2.78-1.33.59-1.53.68-.37.16-1.36-3.1-2.18.96,1.36,3.1-3.23,1.42,2.06,1.85.49-.21,2.24,5.09c1.98-.6,3.82-1.52,5.48-2.69l-2.14-4.86Z"  fill="#A3A5A7"/>
</svg>