<?xml version="1.0" encoding="UTF-8"?>
<svg id="_图层_1" data-name="图层 1" xmlns="http://www.w3.org/2000/svg" viewBox="0 0 40 40">
  <g>
    <path d="M30.47,30.07c-.2.15-.06.27-.01.41.23-.15.09-.27.01-.41Z"/>
    <path d="M33,34.54c.66-.07,1.13-.66,1.9-.74-.35-.23-.68-.23-.94-.36-.13.21-.28.42-.43.61-.15.17-.44.18-.52.49Z"/>
    <path d="M30.94,30.04h0c-.14.07-.12.16-.12.27.18-.02.17-.12.12-.27Z"/>
    <path d="M30.78,30.92l-.32-.09c.02.13.09.25.2.33l.11-.24Z"/>
    <path d="M32.83,34.6s.02.05.03.05c0,0,0,0,.01,0,.04,0,.06-.02.08-.05-.05-.06-.09-.06-.12,0Z"/>
    <path d="M34.08,33.02s.05-.02.05-.03c0,0,0,0,0-.01,0-.06-.04-.1-.1-.1,0,0,0,0,0,.01-.02.05,0,.11.05.13Z"/>
    <path d="M31.32,31.95s-.09.03-.12.08c0,0,.02.05.03.05,0,0,0,0,.01,0,.06,0,.1-.05.1-.1.17.03.34.08.49.12.07-.03.08-.09.03-.11-.17-.03-.34-.22-.55-.04Z"/>
    <path d="M30.38,30.53c-.12-.04-.23-.09-.35-.12.18.18.19.19.35.12Z"/>
    <path d="M34.03,32.87c.02-.15-.06-.29-.19-.36l-.08.28.27.08Z"/>
    <path d="M24.48,29.01c-.08.03-.09.08-.04.14.08-.03.09-.08.04-.14Z"/>
    <path d="M24.04,28.82s.02.05.03.05c0,0,0,0,.01,0,.06,0,.1-.05.1-.1,0,0,0,0-.01,0-.05-.02-.11,0-.13.06Z"/>
    <path d="M27.21,29.99c.09.14.27.2.42.12-.09-.14-.27-.2-.42-.12Z"/>
    <path d="M24.14,29.45c-.03-.08-.07-.09-.13-.04.03.08.07.09.13.04Z"/>
    <path d="M24.68,28.52c-.08,0-.16-.02-.23-.03.12-.09.02-.11-.02-.02,0,0,0,.01,0,.02-.1-.01-.2,0-.3-.03l.06.32c.21.04.16-.14.22-.24.01,0,.01-.01.02-.02,0,.06.13.02.17.07,0,0,.06-.04.09-.06Z"/>
    <path d="M31.23,24.33c-.11-.07-.26-.04-.34.06-.05.33.09.41.44.29-.02-.15.04-.27-.1-.36Z"/>
    <path d="M31.33,25.31c.07.1.15.1.22,0-.07-.11-.15-.11-.22,0Z"/>
    <path d="M31.86,26.32l.36-.35-.36-.35c-.14.21-.14.48,0,.69Z"/>
    <path d="M24.25,29.58c.01.19.11.17.26.12-.06-.14-.15-.12-.26-.12Z"/>
    <path d="M32.17,24.15c-.1-.11-.2-.07-.34-.05-.11.28-.06.58.11.82.26-.21.38-.46.23-.77Z"/>
    <path d="M32.76,24.75c-.26-.05-.42.26-.78.24,0,0,0,.02.02.02.26.27.57.16.86.16.06-.22.06-.35-.09-.43Z"/>
    <path d="M32.43,33.63c-.21.27-.46.51-.73.72,0,0,0,0,0,0,0,.11.1.19.2.18.31-.39.64-.83,1.19-.99-.23-.02-.44-.05-.66.09Z"/>
    <path d="M33.64,32.15s.01-.03.01-.05c0-.07-.04-.13-.11-.13,0,.01-.01.03-.01.05,0,.07.04.13.11.13Z"/>
    <path d="M33.74,32.33s.01-.03.01-.05c0-.07-.04-.13-.11-.13,0,.01-.01.03-.01.05,0,.07.04.13.11.13Z"/>
    <path d="M33.5,31.83s-.05.02-.05.03c0,0,0,0,0,.01,0,.06.04.1.1.1,0,0,0,0,0-.01.02-.05,0-.11-.05-.13Z"/>
    <path d="M33.84,32.51s.01-.03.01-.05c0-.07-.04-.13-.11-.13,0,.01-.01.03-.01.05,0,.07.04.13.11.13Z"/>
    <path d="M32.69,24.41s0,.01,0,.02c0,.02.05.07.06.06.09-.01.15-.09.14-.18,0,0,0-.01,0-.02-.08-.02-.17.03-.19.11Z"/>
    <path d="M31.87,24.99s.07,0,.11,0c-.02-.02-.03-.04-.04-.06-.02.02-.04.04-.07.06Z"/>
    <path d="M30.38,30.53s.07.02.1.03c0-.03-.01-.05-.02-.08-.02.01-.02.02-.05.04-.01,0-.02,0-.03.01Z"/>
    <polygon points="24.01 29.41 24.01 29.41 24.01 29.41 24.01 29.41"/>
    <path d="M32.96,34.6s.01,0,.02.02c0-.03.02-.05.03-.08,0,0-.01,0-.02,0,0,.02-.01.04-.02.05Z"/>
    <path d="M16.89,3.94l.83.83c.08.43.24.85.46,1.23.21.36.53.65.91.82.63.31.6.36,1.2.29-.34-.28-.62-.62-.83-1l.07-.68c-.13-.42-.51-.63-.8-1.02.43.12.54.51.87.6-.2-.64-.35-1.34-.94-1.69-.61-.4-1.4-.41-2.02-.03.35.16.16.42.24.64Z"/>
    <path d="M16.15,4.11c.24-.38.28-.69-.05-.97-.26.03-.57-.11-.76.2l-.02.54c.23.34.52.22.82.23Z"/>
  </g>
  <g>
    <path d="M21.39,33.05V7.54l-4.95.62,1.01-1.3h-4.56V2.82h.16l.89-1.14h-4.42l.89,1.14h.16v4.04h-4.56l1.85,2.39-3.06.39v25.51l4.53-.57c.28.4.59.78.94,1.13l1.12,1.12.35.35.35-.35,1.12-1.12c.54-.54.99-1.14,1.35-1.79l3.2-.4,3.65-.46ZM11.73,7.86l.8.8.16.16-.51.51-.42.42h-.06l-.42-.42-.45-.45-.05-.05.96-.96ZM15.04,30.05c0,.5-.05.99-.15,1.47-.18.88-.51,1.72-.99,2.48-.04.07-.08.15-.13.22-.27.41-.59.79-.94,1.14l-1.12,1.12-1.12-1.12c-.27-.27-.5-.55-.72-.85-.07-.1-.15-.19-.22-.29-.34-.51-.62-1.06-.82-1.63-.21-.57-.34-1.17-.4-1.79-.02-.25-.04-.49-.04-.74V9.83h1.62l.53.53v18.62c0,.98.28,1.91.77,2.6l.39.55.39-.55c.49-.69.77-1.63.77-2.6V10.35l.53-.53h1.62v20.23Z"/>
    <path d="M23.01,9.02v23.83l-5.27,2.69h13.18c.16-.18.32-.34.47-.51.06-.42.32-.81.25-1.27l.99-.58c-.13-.3-.29-.59-.6-.7-.39-.14-.78,0-1.15.14-.31-.45-.7-.76-1.09-1.09-.43-.36-.99-.34-1.48-.58,0-.38-.45-.32-.59-.59l-.45.1c-.05.19-.1.37-.4.44-.23-.25-.61-.13-.92-.08-.33.05-.59-.09-.87-.12-.12-.34-.54-.2-.7-.5-.24-.44-.65-.77-.8-1.24.02-.16.13-.17.2-.22-.09-.44-.02-.61.31-.58.18,0,.36-.04.51-.14.12-.06.22.03.34.06l.02.28.3.13.08.49c-.14.18-.52.19-.42.57.17.35.53.57.91.56.41.03.62-.22.81-.53-.06-.18-.12-.35.06-.55.35.06.57.35.87.55.29-.28.61.21.89-.04.24.22.43.48.57.77.16.28.08.71.58.91l-.22-.47.14-.51.35-.09c-.1-.14-.14-.22-.11-.27l.48-.34.56.15.33-.19.26.07c.18.18.12.39.1.59.27.12.32.37.44.62-.21.16-.23.41-.54.47-.2.04-.34.35-.51.55.42-.11.73-.42,1.11-.56.54.12,1.06-.07,1.61-.03.18.76.61,1.38,1.06,1.97.29-.15.5.05.77.06l-.15.52c-.39.23-.75.57-1.15.75-.45.21-.84.49-1.27.67-.02.14-.07.25-.14.36h3.29V9.02h-12.95ZM34.18,25.57l-.77.74h-.39c-.24.16.04.21.02.51,0-.04-.24.03-.15.24-.51.45-1.11.39-1.69.33-.32-.18-.35-.46-.33-.84-.26.09-.49.3-.67.22-.42-.17-.38-.59-.62-.78v-.86c.16-.54.63-.28.85-.51-.26-.13-.54-.2-.7-.52.18-.55.7-.72,1.26-.97l.39.61.28-.49c.8-.2,1.38-.06,1.87.46-.1.09-.17.21-.2.35.09,0,.15.04.2.1-.39-.08-.62-.18-.64.13.16-.03.4.08.68-.08.04.06.06.09.05-.03.52.55.7.89.56,1.38Z"/>
  </g>
</svg>