<?xml version="1.0" encoding="UTF-8"?>
<svg id="_图层_1" data-name="图层 1" xmlns="http://www.w3.org/2000/svg" viewBox="0 0 40 40">
  <defs>
    <style>
      .cls-1 {
        fill: #fff;
      }

      .cls-2 {
        fill: #6c8277;
      }

      .cls-3 {
        fill: #434649;
      }

      .cls-4 {
        fill: #878787;
      }

      .cls-5 {
        fill: #324148;
      }

      .cls-6 {
        fill: #c4a44d;
      }

      .cls-7 {
        fill: #eacf9f;
      }

      .cls-8 {
        fill: #bcbeb5;
      }

      .cls-9 {
        fill: #556860;
      }
    </style>
  </defs>
  <rect class="cls-1" width="40" height="40" rx="5" ry="5"/>
  <rect class="cls-2" x="17.74" y="9.02" width="18.22" height="26.51"/>
  <polygon class="cls-8" points="23.01 32.85 4.79 35.15 4.79 9.63 23.01 7.33 23.01 32.85"/>
  <g>
    <path class="cls-1" d="M8.41,9.83v20.23c0,1.99.79,3.9,2.2,5.31l1.12,1.12,1.12-1.12c1.41-1.41,2.2-3.32,2.2-5.31V9.83h-6.63Z"/>
    <path class="cls-7" d="M15.04,9.83v20.23c0,1.99-.79,3.9-2.2,5.31l-1.12,1.12-1.12-1.12c-1.41-1.41-2.2-3.32-2.2-5.31V9.83h6.63M15.54,9.33h-7.63v20.73c0,2.14.83,4.15,2.34,5.66l1.12,1.12.35.35.35-.35,1.12-1.12c1.51-1.51,2.34-3.52,2.34-5.66V9.33h0Z"/>
  </g>
  <path class="cls-4" d="M10.56,9.75v19.22c0,.98.28,1.91.77,2.6l.39.55.39-.55c.49-.69.77-1.63.77-2.6V9.75h-2.33Z"/>
  <polygon class="cls-9" points="17.74 35.54 23.01 32.85 17.74 33.51 17.74 35.54"/>
  <polygon class="cls-6" points="15.15 9.83 8.3 9.83 6 6.86 17.45 6.86 15.15 9.83"/>
  <polygon class="cls-4" points="13.05 2.82 10.41 2.82 9.52 1.68 13.94 1.68 13.05 2.82"/>
  <rect class="cls-3" x="10.56" y="2.67" width="2.33" height="5"/>
  <rect class="cls-6" x="9.82" y="6.91" width="3.81" height="3.81" transform="translate(9.67 -5.71) rotate(45)"/>
  <rect class="cls-1" x="11.05" y="8.14" width="1.36" height="1.36" transform="translate(9.67 -5.71) rotate(45)"/>
  <path class="cls-1" d="M33.62,24.2c.52.55.7.89.56,1.38l-.77.74h-.39c-.24.16.04.21.02.51,0-.04-.24.03-.15.24-.51.45-1.11.39-1.69.33-.32-.18-.35-.46-.33-.84-.26.09-.49.3-.67.22-.42-.17-.38-.59-.62-.78v-.86c.16-.54.63-.28.85-.51-.26-.13-.54-.2-.7-.52.18-.55.7-.72,1.26-.97l.39.61.28-.49c.8-.2,1.38-.06,1.87.46-.1.09-.17.21-.2.35.22-.02.3.35.29.12-.45-.08-.71-.22-.73.11-.08-.02-.17.03-.19.11,0,0,0,.01,0,.02,0,.02.05.07.06.06.09-.01.15-.09.14-.18,0,0,0-.01,0-.02.17-.03.43.11.73-.11ZM32,25.01c.26.27.57.16.86.16.06-.22.06-.35-.09-.43-.29-.05-.45.36-.89.24.31-.22.46-.49.3-.83-.1-.11-.2-.07-.34-.05-.12.31-.05.66.17.91ZM31.33,24.69c-.02-.15.04-.27-.1-.36-.11-.07-.26-.04-.34.06-.05.33.09.41.44.29ZM31.86,25.63c-.14.21-.14.48,0,.69l.36-.35-.36-.35ZM31.33,25.31c.07.1.15.1.22,0-.07-.11-.15-.11-.22,0Z"/>
  <path class="cls-1" d="M30.4,36.24l.69-.4c.24.14.52-.13.68.06s.34.22.59.29c.05-.37.39-.6.45-1.02.43-.18.83-.46,1.27-.67.4-.18.77-.52,1.15-.75l.15-.52c-.27-.01-.48-.22-.77-.06-.44-.59-.87-1.21-1.06-1.97-.54-.04-1.07.16-1.61.03-.38.14-.69.45-1.11.56.17-.19.32-.51.51-.55.31-.07.34-.31.54-.47-.12-.25-.18-.5-.44-.62.03-.2.09-.42-.1-.59l-.26-.07-.33.19-.56-.15-.48.34c-.03.05.01.13.11.27l-.35.09-.14.51.22.47c-.5-.2-.43-.63-.58-.91-.14-.29-.33-.56-.57-.77-.28.25-.6-.24-.89.04-.3-.19-.53-.49-.87-.55-.18.2-.12.37-.06.55-.18.31-.4.57-.81.53-.38.01-.74-.21-.91-.56-.09-.38.28-.39.42-.57l-.08-.49-.3-.13-.02-.28c-.12-.03-.22-.12-.34-.06-.15.1-.33.15-.51.14-.33-.03-.39.14-.31.58-.07.06-.18.07-.2.22.15.47.56.8.8,1.24.16.3.58.16.7.5.28.03.54.17.87.12.31-.05.68-.16.92.08.3-.07.35-.26.4-.44l.45-.1c.15.27.59.21.59.59.49.24,1.05.22,1.48.58.39.33.79.64,1.09,1.09.37-.14.76-.28,1.15-.14.31.11.48.39.6.7l-.99.58c.07.46-.18.86-.25,1.27-.32.37-.67.68-.99,1.22ZM33.64,32.15c.07,0,.12.06.11.13,0,.02,0,.03-.01.05.07,0,.12.06.11.13,0,.02,0,.03-.01.05.13.06.21.21.19.36.06,0,.1.05.1.1,0,0,0,0,0,.01,0,0-.04.04-.05.03-.05-.02-.07-.08-.05-.13,0,0,0,0,0-.01l-.27-.08.08-.28c-.07,0-.12-.06-.11-.13,0-.02,0-.03.01-.05-.07,0-.12-.06-.11-.13,0-.02,0-.03.01-.05-.07,0-.12-.06-.11-.13,0-.02,0-.03.01-.05-.06,0-.1-.05-.1-.1,0,0,0,0,0-.01,0,0,.04-.04.05-.03.05.02.07.08.05.13,0,0,0,0,0,.01.07,0,.12.06.11.13,0,.02,0,.03-.01.05ZM24.18,28.77c0,.06-.05.1-.1.1,0,0,0,0-.01,0,0,0-.03-.04-.03-.05.02-.05.08-.08.13-.06,0,0,0,0,.01,0l-.06-.32c.18.05.37.07.56.06-.03.02-.09.06-.09.06-.05-.05-.23.03-.16-.11.05-.11.19-.07-.03.06-.05.1,0,.29-.22.24ZM31.35,31.97c0,.06-.05.1-.1.1,0,0,0,0-.01,0,0,0-.03-.04-.03-.05.02-.05.07-.08.12-.08.21-.18.38,0,.55.04.05.01.05.07-.03.11-.15-.04-.32-.09-.49-.12ZM30.41,30.52q-.19.09-.38-.11c.15.04.31.09.45.15,0-.19-.24-.31,0-.49.09.15.26.28-.06.45ZM32.98,34.55c0,.06-.05.1-.1.1,0,0,0,0-.01,0,0,0-.03-.04-.03-.05.03-.06.08-.08.14.02.04-.4.38-.39.55-.57.16-.19.3-.4.43-.61.27.13.59.12.94.36-.78.09-1.24.69-1.92.75ZM33.09,33.55c-.56.16-.88.6-1.19.99-.1,0-.19-.07-.2-.18,0,0,0,0,0,0,.27-.21.52-.45.73-.72.22-.14.43-.11.66-.09ZM27.21,29.99c.15-.08.33-.03.42.12-.15.08-.33.03-.42-.12ZM30.78,30.92l-.11.24c-.11-.07-.18-.19-.2-.33l.32.09ZM30.94,30.04c.05.15.06.25-.12.27,0-.11-.02-.2.12-.26h0ZM24.51,29.7c-.15.05-.24.07-.26-.12.11,0,.2-.02.26.12ZM24.01,29.41c.06-.05.11-.04.14.04-.06.05-.11.04-.13-.04h0ZM24.45,29.15c-.05-.06-.04-.11.04-.14.06.07.04.11-.04.14Z"/>
  <path class="cls-5" d="M16.64,3.29c.62-.38,1.41-.37,2.02.03.59.35.74,1.05.94,1.69-.33-.09-.43-.48-.87-.6.29.39.67.6.8,1.02l-.07.68c.21.38.49.72.83,1-.6.08-.57.03-1.2-.29-.38-.17-.7-.46-.91-.82-.22-.38-.38-.8-.46-1.23l-.83-.83c-.09-.22.11-.49-.24-.64Z"/>
  <path class="cls-5" d="M16.15,4.11c-.3,0-.6.11-.82-.23l.02-.54c.19-.32.49-.18.76-.2.33.28.29.59.05.97Z"/>
</svg>