<svg id="图层_1" data-name="图层 1" xmlns="http://www.w3.org/2000/svg" viewBox="0 0 240 240"><path d="M177.1,77.71v42.81l-3.3.1c-.55,0-14.28.93-19.75,21.46-3,11.38-8.1,19-15.47,23.36-6.2,3.65-12.86,4.17-18.58,4.18s-12.38-.53-18.58-4.18C94.05,161.1,89,153.46,86,142.08c-5.47-20.53-19.2-21.43-19.75-21.46l-3.3-.1V77.71A71.67,71.67,0,0,1,45.19,49.19v85H58.62A11.34,11.34,0,0,1,70,145.5h0a41.31,41.31,0,0,0,41.32,41.31h17.46a41.31,41.31,0,0,0,41.32-41.31h0a11.34,11.34,0,0,1,11.33-11.34h13.43v-85A71.67,71.67,0,0,1,177.1,77.71Z"/><path d="M94.84,135.55c5,18.9,15.61,20.58,25.16,20.6h0c9.55,0,20.12-1.7,25.16-20.6,3.22-12.09,9.4-18,14-20.89a23.87,23.87,0,0,1,6.88-2.92V83.54C145.19,99.2,120,98.39,120,98.39h0s-25.19.81-46.06-14.85v28.2a23.87,23.87,0,0,1,6.88,2.92C85.44,117.51,91.62,123.46,94.84,135.55Z"/></svg>