<svg id="图层_1" data-name="图层 1" xmlns="http://www.w3.org/2000/svg" viewBox="0 0 240 240"><path d="M192,108a4.71,4.71,0,0,1,.8-.33c8.28-1.47,15.27-5.85,22.39-9.94.62-.36,1.61-.83,1.14-1.7s-1.38-.27-2,0c-2.74,1.19-5.45,2.47-8.2,3.65-4.12,1.77-8.21,3-12.92,2.17-14.27-2.49-25.66-10.34-36.89-19a7.79,7.79,0,0,1,1.15-.41c4.75-.78,8.88-3,12.89-5.53a4.88,4.88,0,0,0,2-2.46c.13-.36.3-.77-.06-1.06s-.73,0-1,.19a11.88,11.88,0,0,1-4.47,2.08,24.82,24.82,0,0,1-16.57-1.72C144,71.05,138.1,67.65,132,64.66l-.34-.17c21.68,21.26,35.65,69.57,43,102.24l1.16-1.35c5.32-6,11.39-10.48,19.22-12.48,6-1.54,12.77-.69,16.06,7.31.83-5-2.19-11.35-6.34-13.17-5.47-2.4-10.11-6.1-15-9.38a19.94,19.94,0,0,1-4.33-4,11.28,11.28,0,0,1-2.37-9,9,9,0,0,1,6.85-7.26c4.08-1.05,8.17-2,12.44-1.09,2.63.56,5.06,1.71,7.61,2.48,3.59,1.09,5.94,3.53,7.83,6.6a63.35,63.35,0,0,1,3,6.25C219.74,120,208.29,110.85,192,108Z"/><path d="M36.07,131.62q-2.28,3.21-4.63,6.35a2.9,2.9,0,0,0-.47,2.3,46.06,46.06,0,0,0,2.31,9.88,8.56,8.56,0,0,0,4.28,4.73c2.83,1.48,5.86,1.4,8.91,1.42,3.72,0,6.62-1.17,8.77-4.33Z"/><path d="M108.35,59.33h-.06A54.52,54.52,0,0,0,92.2,63.81c-1.18.51-1.62.37-2.2-.79-2.1-4.22-4.33-8.37-6.52-12.54-.26-.48-.45-1.15-1.18-1.07-.58.06-.86.57-1,1.05A24.4,24.4,0,0,1,79.16,54c-2.08,3.4-4.12,6.81-3.88,11,0,.35,0,.74-.44.81a1.12,1.12,0,0,1-1-.54c-1.32-1.76-2.53-3.56-2.55-5.9a2.47,2.47,0,0,0-.36-1.92,16.06,16.06,0,0,0-1,9c.38,2.14-.56,2.66-2.21,3.24-3.3,1.16-6.68,2.18-9.5,4.39a11.84,11.84,0,0,0-3.73,4.51c.41,0,.59.06.72,0,4-1.92,8.3-1.47,12.54-1.27.44,0,1-.1,1.26.35.32.61-.39.86-.69,1.21C66,81.48,63.1,83.44,61,86.23S56.13,91.32,55.51,95c-.27,1.58-.59,3.16-.88,4.74-.46,2.51-.82,4.93-2.29,7.26-3.79,6-7.63,12-11.61,17.88l19.36,20.56a40.21,40.21,0,0,1,6.78-6.11c8.35-5.94,17.58-9.44,28-9a4.43,4.43,0,0,0,3.77-1.59c1.86-2.06,3.19-4.51,5.07-6.53a36.65,36.65,0,0,0,6.72-10.16c.43-1,.8-2,1.2-2.94a35,35,0,0,1,.71,13.87,9.66,9.66,0,0,1-1.59,3.79,37,37,0,0,1-6.65,8.09c-3.54,3.24-5.74,6.64-5.91,12-.29,9.34-.78,18.7-1.46,28-.5,6.81-.89,13.64-1.76,20.42-.29,2.28,0,2.78,2.3,2.95a5.88,5.88,0,0,0,1.87-.16c3.19-.75,6.33-1.7,9.55-2.28a94,94,0,0,0,30.12-11.5,45.57,45.57,0,0,0,11.87-10.14c3.72-4.38,7.3-8.88,11-13.31C152.3,117.62,133.68,61,108.35,59.33Z"/></svg>