<svg id="图层_1" data-name="图层 1" xmlns="http://www.w3.org/2000/svg" viewBox="0 0 240 240"><path d="M158.23,163a6.38,6.38,0,0,1,1.31-2.79,30.49,30.49,0,0,0,4.2-11.09c2.17-13-6.41-34.42-23.39-27.61-9.81,3.92-5.55,16.31.86,21.27,4.27,3.3,7.87,6.25,8.66,12,.87,6.32-3.15,14.7-9.25,17.27a55.85,55.85,0,0,1-58.45-8.69c-1.83-1.56-3.43-3.39-5.14-5.1a6.38,6.38,0,0,1,2.79,1.31,30.49,30.49,0,0,0,11.09,4.2c8.38,1.4,18.58-1.09,24.51-7.42,4.06-4.33,5.1-13.69,2.12-18.8-2.71-4.64-8.93-3.87-13.1-2-5.87,2.69-8.09,8.84-13.23,12.34C82.2,154,71.06,146.3,67,138c-4.55-9.42-4.61-21.22-2.44-31.28A55.42,55.42,0,0,1,76.67,82.17c1.56-1.83,3.39-3.43,5.1-5.14a6.38,6.38,0,0,1-1.31,2.79,30.78,30.78,0,0,0,.34,33c3.64,5.74,13.09,8,19.27,5.74,10.17-3.81,4.54-17.21-1.9-21.79s-9.85-11.91-6.92-19.74c5.69-15.2,29-15.27,42.07-12.46a55.42,55.42,0,0,1,24.51,12.08c1.83,1.56,3.43,3.39,5.14,5.1a6.38,6.38,0,0,1-2.79-1.31,30.49,30.49,0,0,0-11.09-4.2c-7.37-1.23-16.19-.05-22.23,4.85s-9,15.39-3.37,21.77c4.54,5.16,11.9,2.43,16.48-1.17C145.7,97.2,148.6,89.81,157,90c5.52.1,12.76,4.14,15,9.41a55.85,55.85,0,0,1-8.69,58.45C161.77,159.66,159.94,161.26,158.23,163Z"/><path d="M120,192.81A72.81,72.81,0,1,1,192.81,120,72.89,72.89,0,0,1,120,192.81Zm0-135.62A62.81,62.81,0,1,0,182.81,120,62.89,62.89,0,0,0,120,57.19Z"/></svg>