<svg id="图层_1" data-name="图层 1" xmlns="http://www.w3.org/2000/svg" viewBox="0 0 240 240"><path d="M120.14,43a77,77,0,1,1-77.07,77.09C43.22,77.15,77.74,42.75,120.14,43ZM182,120.68a62.8,62.8,0,0,0-63.3-62.83C84.13,57.88,56,86.3,56.37,121.42A62.82,62.82,0,0,0,182,120.68Z"/><path d="M62.07,114.42c1.23,5.46,3.25,10.56,7,14.84,6.15,7,14,9.75,23.15,9.22,11-.64,19.24-6.2,25.79-14.71,2.72-3.54,5.3-7.23,8.33-10.48,9.35-10,24.11-12.64,35.8-6.36a25.78,25.78,0,0,1,12.94,28.13c-2.39,11.72-8.63,21.08-17.78,28.5-12.51,10.16-27,14.31-43,13-22.68-1.93-42.4-16.58-49.89-38.38a53.08,53.08,0,0,1-2.76-21.45A20,20,0,0,1,62.07,114.42Zm86.83,7.64a10.6,10.6,0,1,0,10.39,10.76A10.66,10.66,0,0,0,148.9,122.06Z"/><path d="M90.49,99.36a11.26,11.26,0,0,1,11,11.35,10.62,10.62,0,0,1-10.59,10.57A11.13,11.13,0,0,1,80,110,10.57,10.57,0,0,1,90.49,99.36Z"/></svg>