<svg id="图层_1" data-name="图层 1" xmlns="http://www.w3.org/2000/svg" viewBox="0 0 240 240"><path d="M119.91,73.44c10.91,9.64,18,20.92,19.67,35.26,1,9.16,0,18-4.37,26.18-2.41,4.49-5.54,8.39-11,9.29-8.25,1.38-13,0-17.8-7.58-5-7.83-6.41-16.6-5.63-25.67A52.67,52.67,0,0,1,113.19,81C115.32,78.46,117.58,76.05,119.91,73.44Z"/><path d="M98.66,149.52c-3.29.85-6.15,1.79-9.09,2.3-12.65,2.15-24.83.8-36.22-5.46a46.26,46.26,0,0,1-19.47-19.91c-1.87-3.7-3.28-7.62-5.14-11.33s-4.14-7.54-6.3-11.46c10.9-4.51,21.83-4.53,32.78,1a8.22,8.22,0,0,1,4.56,5.88c4.52,16.46,14.64,28.32,30,35.67C92.46,147.46,95.35,148.29,98.66,149.52Z"/><path d="M217.56,104.14c-4.11,5.07-6.47,11.09-9.07,17a68.91,68.91,0,0,1-3.53,7.16c-7.6,12.93-18.94,20.65-33.56,23.53a56.48,56.48,0,0,1-29.64-2.32c3.41-1.41,6.85-2.59,10.07-4.22,14.22-7.17,23.47-18.53,28-33.78a35.32,35.32,0,0,1,1-3.55,4.44,4.44,0,0,1,1.51-2A37.3,37.3,0,0,1,206,100.57C209.39,100.86,215.91,102.53,217.56,104.14Z"/><path d="M139.67,141.88a45.1,45.1,0,0,0,6.89-16.08,55.14,55.14,0,0,0,1-17,59.88,59.88,0,0,0-7.11-23.22,1.59,1.59,0,0,1,.33-2.17A39.89,39.89,0,0,1,164.35,70.5c1.78-.28,3.6-.29,5.1-.4,1.12,6.76,2.54,13.26,3.22,19.83,1.51,14.73-2.13,28-12.27,39.14a45.21,45.21,0,0,1-19.9,12.58C140.29,141.72,140.08,141.77,139.67,141.88Z"/><path d="M100.17,141.88a46.52,46.52,0,0,1-16.35-8.8c-9-7.5-14.23-17.2-16.3-28.65-1.39-7.69-.42-15.29,1.11-22.86.74-3.68,1.13-7.43,1.74-11.56,2.29.29,4.91.47,7.46,1A39,39,0,0,1,98.38,82.65c1.08,1.12,1.59,1.93.65,3.6a55.43,55.43,0,0,0-6.63,20.46,52.17,52.17,0,0,0,5,30.51C98.21,138.75,99.16,140.17,100.17,141.88Z"/><path d="M113.8,152.49A32.68,32.68,0,0,1,103,168.36c-7.48,6-16.1,8.67-25.57,9.35A72.41,72.41,0,0,1,57.15,176c-7.24-1.52-14.49-2.75-22.14-1.81a25.93,25.93,0,0,1,4.73-11.49,21.26,21.26,0,0,1,8.83-7.27,3.9,3.9,0,0,1,2.63-.06,75.65,75.65,0,0,0,20,4.9,66.22,66.22,0,0,0,35.37-5.82,9.24,9.24,0,0,0,2-1.12C110.13,152,111.88,152.06,113.8,152.49Z"/><path d="M126.12,152.55c2.18-.8,3.85-.07,5.63,1,5.25,3.05,11,4.7,16.93,6a67.91,67.91,0,0,0,18.76,1,69.83,69.83,0,0,0,21.19-5.08,3.81,3.81,0,0,1,2.78.08c7.49,3.71,11.53,10,13.2,18a1.33,1.33,0,0,1-.09.41c-1,0-2,.05-3,0-6.91-.42-13.57,1.16-20.28,2.42-3.6.68-7.27,1-10.91,1.36a48.23,48.23,0,0,1-22.18-2.89C137.47,170.8,129.71,163.73,126.12,152.55Z"/><path d="M120.45,194.58c-4.83-2.73-9.45-5.31-14-7.94a14.44,14.44,0,0,1-5.63-5.2c3.75-3.07,7.79-5.75,11-9.18s5.65-7.61,8.13-11c2.5,3.45,5.09,7.45,8.12,11.09A34.74,34.74,0,0,0,139.41,181a12.84,12.84,0,0,1-4.7,4.86c-3.55,2.13-7.24,4-10.8,6.11A31.9,31.9,0,0,0,120.45,194.58Z"/><path d="M134.61,75.9,120.06,60l-14.71,15.9c-1.44-1.32-3-2.71-4.54-4.2a1.78,1.78,0,0,1-.18-1.37c1.63-8,6.16-14.06,12.49-19,2.42-1.89,4.67-4,6.92-5.95,3.8,3.39,7.74,6.78,11.53,10.33,4.25,4,6.37,9.15,7.84,14.62a2.12,2.12,0,0,1-.59,1.66C137.45,73.4,136,74.67,134.61,75.9Z"/></svg>