<svg xmlns="http://www.w3.org/2000/svg" xmlns:xlink="http://www.w3.org/1999/xlink" width="18.9378662109375" height="15.16900634765625" viewBox="0 0 18.9378662109375 15.16900634765625" fill="none">
<path d="M9.94257 15.1646C9.69803 15.1718 9.45358 15.1702 9.2092 15.1595C8.96482 15.1489 8.72118 15.1294 8.47828 15.101C8.2353 15.0726 7.99369 15.0354 7.75343 14.9893C7.51318 14.9434 7.27495 14.8885 7.03873 14.8251C5.8919 14.4961 4.8559 13.9279 3.87123 13.2617C2.98573 12.6621 2.31723 11.8676 1.71407 10.9891C1.2474 10.3113 0.752732 9.64159 0.0888988 9.13059C0.0468987 9.09792 -0.0184347 9.07109 0.00489865 9.00576C0.0282321 8.94042 0.0982319 8.96492 0.149566 8.95792C0.482066 8.91592 0.813399 8.87742 1.14473 8.83076C1.20348 8.81917 1.26117 8.80366 1.31779 8.78421C1.3744 8.76469 1.42944 8.74143 1.48288 8.71444C1.53633 8.68737 1.58767 8.65684 1.63693 8.62286C1.6862 8.58879 1.73291 8.55154 1.77707 8.51109C1.86573 8.44109 1.86807 8.38509 1.76773 8.32559C1.4644 8.14242 1.28357 7.84959 1.1039 7.55792C0.972066 7.34442 0.987232 7.33159 1.22057 7.26042C1.92757 7.04692 2.63923 6.84626 3.2389 6.38309C3.26108 6.368 3.28225 6.35162 3.30244 6.33397C3.32262 6.31632 3.34166 6.29749 3.35955 6.27751C3.37744 6.25752 3.39406 6.23652 3.4094 6.21451C3.42474 6.19249 3.43868 6.16962 3.45123 6.14591C3.4638 6.12226 3.47487 6.09792 3.48447 6.07287C3.49406 6.04782 3.5021 6.02227 3.50859 5.99622C3.51509 5.97017 3.51997 5.94384 3.52325 5.91724C3.52653 5.89064 3.5282 5.86392 3.52823 5.83709C3.55623 5.12076 3.63907 4.40676 3.66707 3.69042C3.69507 2.97409 3.6834 2.24376 3.68807 1.51926C3.68807 1.11676 3.68807 0.71309 3.69623 0.309423C3.69623 -0.00907631 3.77907 -0.059243 4.06607 0.0574237C4.5654 0.260423 5.0869 0.407423 5.57107 0.648923C6.3154 1.02226 7.07373 1.37226 7.8099 1.75959C8.2264 1.97892 8.64757 2.02909 9.09323 2.06059C9.36102 2.07705 9.62737 2.10663 9.89228 2.14934C10.1572 2.19205 10.4194 2.24769 10.6789 2.31624C10.9382 2.38479 11.1937 2.46594 11.4451 2.55967C11.6965 2.6534 11.9428 2.75926 12.1837 2.87726C12.2144 2.89339 12.2459 2.90789 12.2781 2.92079C12.3103 2.93368 12.3431 2.94488 12.3764 2.9544C12.4097 2.96392 12.4434 2.9717 12.4776 2.97773C12.5118 2.98377 12.5461 2.98804 12.5808 2.99055C12.6154 2.99306 12.6499 2.99377 12.6846 2.99271C12.7192 2.99165 12.7538 2.9888 12.7882 2.98419C12.8226 2.97957 12.8566 2.9732 12.8903 2.96508C12.924 2.95696 12.9572 2.94713 12.9899 2.93559C14.2592 2.51792 15.5729 2.36859 16.8971 2.25776C17.5166 2.20642 18.1244 2.27876 18.7369 2.32192C18.9504 2.33709 18.9854 2.39892 18.8816 2.58092C18.1909 3.80359 17.7837 5.14059 17.3276 6.45659C17.1071 7.09126 16.8737 7.71776 16.5039 8.28242C16.4141 8.41892 16.4304 8.49592 16.5599 8.60209C16.7707 8.7655 16.9901 8.91654 17.2179 9.05522C17.4458 9.1939 17.6806 9.31936 17.9226 9.43159C18.0615 9.51784 18.2062 9.59291 18.3566 9.65676C18.5094 9.70459 18.4114 9.81309 18.3414 9.86792C18.1591 9.99952 17.9646 10.11 17.7581 10.1993C17.6276 10.2602 17.506 10.3353 17.3929 10.4244C17.2832 10.5143 17.2576 10.6193 17.3544 10.7254C17.7172 11.1198 18.0206 11.5771 18.4977 11.8559C18.5981 11.9142 18.5887 11.9632 18.5082 12.0216C18.4696 12.0505 18.428 12.0743 18.3834 12.0927C18.1556 12.1868 17.9359 12.297 17.7244 12.4235C17.5128 12.5499 17.3117 12.6913 17.1211 12.8476C16.4315 13.366 15.7035 13.8234 14.9371 14.2196C14.7446 14.3243 14.5473 14.4191 14.3452 14.5039C14.1433 14.5887 13.9375 14.6631 13.7279 14.7272C13.5183 14.7914 13.3061 14.8447 13.0912 14.8872C12.8763 14.9299 12.6597 14.9618 12.4416 14.9826C11.5887 15.0666 10.7499 15.1856 9.94257 15.1646ZM10.8001 9.76992C10.7904 9.87151 10.7865 9.97331 10.7884 10.0754C10.7902 10.1774 10.7977 10.279 10.8109 10.3802C10.8242 10.4814 10.8431 10.5815 10.8676 10.6806C10.8921 10.7797 10.9221 10.8771 10.9576 10.9728C11.1477 11.4394 11.4149 11.8419 11.9061 12.0449C12.7624 12.3949 13.6339 11.6669 13.9116 11.0323C13.953 10.9349 13.9913 10.8364 14.0266 10.7367C14.062 10.637 14.0942 10.5363 14.1233 10.4347C14.1525 10.333 14.1785 10.2305 14.2014 10.1273C14.2244 10.024 14.2441 9.92011 14.2606 9.81566C14.2772 9.71121 14.2905 9.60632 14.3007 9.50101C14.3108 9.39577 14.3177 9.29031 14.3214 9.18461C14.325 9.07891 14.3255 8.97317 14.3227 8.86739C14.32 8.76169 14.314 8.65614 14.3047 8.55076C14.2394 7.56842 13.5557 6.89759 12.5734 6.88942C12.5005 6.88857 12.4279 6.88293 12.3557 6.87251C12.2835 6.86216 12.2123 6.84716 12.1421 6.82747C12.072 6.80779 12.0034 6.78361 11.9363 6.75491C11.8692 6.72621 11.8043 6.69327 11.7416 6.65609C11.6622 6.61176 11.5782 6.48226 11.4884 6.56626C11.3986 6.65026 11.4884 6.76926 11.5211 6.86959C11.5323 6.90094 11.5471 6.93049 11.5654 6.95826C11.7427 7.26392 11.7322 7.34092 11.4791 7.60459C11.438 7.64574 11.4018 7.69084 11.3706 7.73992C11.0054 8.37576 10.7312 9.03959 10.8001 9.76992ZM7.97207 8.12609C7.98023 7.85558 7.95417 7.58841 7.8939 7.32459C7.7399 6.60242 7.3759 5.93042 6.3399 6.00626C6.29109 6.00727 6.24248 6.00451 6.1941 5.99797C6.14572 5.99152 6.09812 5.98133 6.0513 5.96741C6.00448 5.95356 5.95901 5.93622 5.91487 5.91537C5.87074 5.89446 5.82847 5.87031 5.78807 5.84292C5.63523 5.75426 5.49057 5.65042 5.34473 5.55242C5.29457 5.51859 5.24557 5.47776 5.18607 5.52676C5.18065 5.53181 5.1757 5.53726 5.1712 5.54309C5.16671 5.54901 5.16275 5.55522 5.15929 5.56176C5.15584 5.56829 5.15296 5.57506 5.15065 5.58206C5.14834 5.58906 5.14663 5.59621 5.14553 5.60352C5.14442 5.61084 5.14394 5.61819 5.14407 5.62557C5.1442 5.63296 5.14495 5.64031 5.14632 5.64762C5.14768 5.65486 5.14964 5.66194 5.1522 5.66886C5.15477 5.67586 5.15789 5.68254 5.16157 5.68892C5.17802 5.74337 5.19866 5.79614 5.22349 5.84724C5.24833 5.89834 5.27706 5.94719 5.30965 5.99377C5.34225 6.04036 5.37831 6.08407 5.41785 6.12491C5.45739 6.16574 5.49991 6.20319 5.5454 6.23726C5.6889 6.33876 5.69707 6.44842 5.5804 6.57209C5.51146 6.64567 5.44578 6.72201 5.38337 6.80111C5.32096 6.88029 5.26204 6.96199 5.20662 7.04622C5.15121 7.13037 5.09949 7.21679 5.05146 7.30546C5.00344 7.39412 4.95929 7.48466 4.91901 7.57706C4.87873 7.66946 4.84247 7.76341 4.81024 7.85892C4.778 7.95444 4.7499 8.05116 4.72595 8.14907C4.70198 8.24699 4.68224 8.34574 4.66674 8.44529C4.65123 8.54492 4.64001 8.64502 4.63307 8.74559C4.55723 9.62176 4.7404 10.4291 5.42407 11.0591C5.90007 11.4966 6.4099 11.4931 6.86257 11.0369C7.66057 10.2284 7.89857 9.20642 7.97207 8.12609Z"   fill="#FFFFFF" >
</path>
</svg>
