<svg xmlns="http://www.w3.org/2000/svg" xmlns:xlink="http://www.w3.org/1999/xlink" width="32.75591278076172" height="32.756072998046875" viewBox="0 0 32.75591278076172 32.756072998046875" fill="none">
<path d="M30.178 7.55766C30.3192 7.79048 30.4528 8.02766 30.5786 8.2692C30.7044 8.51074 30.8222 8.75612 30.932 9.00534C31.0418 9.25454 31.1434 9.50708 31.2368 9.76292C31.3302 10.0188 31.415 10.2774 31.4914 10.5387C31.568 10.8001 31.6358 11.0637 31.695 11.3295C31.7544 11.5953 31.805 11.8628 31.8468 12.1319C31.8886 12.4009 31.9216 12.6711 31.9458 12.9425C31.97 13.2137 31.9854 13.4854 31.992 13.7577C31.987 13.6565 31.9794 13.5554 31.9694 13.4545C31.9594 13.3535 31.947 13.2529 31.932 13.1527C31.9172 13.0524 31.9 12.9525 31.8802 12.8531C31.8606 12.7536 31.8386 12.6547 31.814 12.5563C31.7896 12.4579 31.7628 12.3601 31.7336 12.263C31.7044 12.1659 31.6728 12.0696 31.639 11.974C31.6052 11.8784 31.569 11.7837 31.5306 11.6899C31.4922 11.5961 31.4516 11.5032 31.4086 11.4114C31.3658 11.3195 31.3208 11.2287 31.2734 11.1391C31.226 11.0494 31.1766 10.9609 31.125 10.8736C31.0736 10.7863 31.02 10.7003 30.9642 10.6156C30.9084 10.5309 30.8508 10.4476 30.791 10.3657C30.7312 10.2838 30.6696 10.2033 30.6058 10.1244C30.5422 10.0455 30.4768 9.96812 30.4094 9.89236C30.342 9.8166 30.2728 9.7425 30.2018 9.6701C30.1308 9.59766 30.0582 9.527 29.9838 9.4581C29.9096 9.38918 29.8336 9.3221 29.7558 9.25688C29.6782 9.19164 29.599 9.1283 29.5184 9.0669C29.4378 9.00548 29.3556 8.94604 29.2722 8.8886C29.1886 8.83116 29.1036 8.77576 29.0174 8.72242C28.9312 8.66906 28.8438 8.61784 28.7552 8.56872C28.6664 8.5196 28.5766 8.47266 28.4856 8.42788C28.3946 8.3831 28.3026 8.34054 28.2096 8.30022C28.1166 8.2599 28.0228 8.22184 27.9278 8.18604C27.833 8.15024 27.7374 8.11676 27.6408 8.0856C27.5442 8.05444 27.447 8.02562 27.3492 7.99916C27.2514 7.97268 27.153 7.94858 27.054 7.92688C26.955 7.90516 26.8554 7.88584 26.7554 7.86894C26.6554 7.85204 26.555 7.83756 26.4544 7.8255C26.3538 7.81344 26.2528 7.80382 26.1518 7.79664C26.0506 7.78946 25.9494 7.78472 25.848 7.78244C25.7466 7.78016 25.6454 7.78032 25.544 7.78292C25.4426 7.78552 25.3414 7.79058 25.2402 7.7981C25.1392 7.8056 25.0382 7.81554 24.9376 7.82792C24.837 7.84028 24.7366 7.85508 24.6368 7.87232C24.537 7.88954 24.4376 7.90916 24.3386 7.9312C24.2396 7.95322 24.1412 7.97762 24.0434 8.00442C23.9456 8.03118 23.8486 8.06032 23.7522 8.0918C23.6558 8.12326 23.5602 8.15704 23.4654 8.19314C23.3708 8.22922 23.277 8.26758 23.184 8.30822C23.091 8.34884 22.9992 8.39168 22.9084 8.43676C22.8176 8.48182 22.728 8.52906 22.6394 8.57846C22.5508 8.62786 22.4636 8.67936 22.3774 8.73298C22.2914 8.7866 22.2068 8.84226 22.1234 8.89998C22.04 8.95768 21.9582 9.01738 21.8776 9.07906C21.7972 9.14072 21.7182 9.2043 21.6408 9.26978C21.5634 9.33526 21.4876 9.40258 21.4134 9.47174C21.3392 9.54088 21.2668 9.61178 21.1962 9.68442C21.1254 9.75706 21.0564 9.83138 20.9894 9.90736C20.9222 9.98332 20.857 10.0609 20.7936 10.14C20.7302 10.2191 20.6688 10.2998 20.6092 10.3819C20.5498 10.464 20.4922 10.5475 20.4368 10.6323C20.3814 10.7172 20.328 10.8034 20.2768 10.8908C20.2254 10.9783 20.1764 11.0669 20.1294 11.1568C20.0824 11.2466 20.0374 11.3375 19.9948 11.4295C19.9523 11.5215 19.9119 11.6145 19.8738 11.7084C19.8357 11.8024 19.7999 11.8972 19.7664 11.9929C19.7328 12.0886 19.7015 12.185 19.6726 12.2822C19.6438 12.3794 19.6173 12.4773 19.5932 12.5757C19.5691 12.6742 19.5473 12.7732 19.5278 12.8727C19.5085 12.9721 19.4915 13.0721 19.477 13.1725C19.4625 13.2729 19.4504 13.3735 19.4408 13.4745C19.4311 13.5753 19.4238 13.6763 19.419 13.7777C19.4142 13.879 19.4119 13.9803 19.412 14.0817C19.4121 14.183 19.4098 14.2843 19.405 14.3857C19.4002 14.487 19.3929 14.5881 19.3832 14.6889C19.3736 14.7898 19.3615 14.8905 19.347 14.9909C19.3325 15.0913 19.3155 15.1912 19.2962 15.2907C19.2767 15.3901 19.2549 15.4891 19.2308 15.5877C19.2067 15.6861 19.1802 15.7839 19.1514 15.8811C19.1225 15.9783 19.0912 16.0747 19.0576 16.1705C19.0241 16.2661 18.9883 16.3609 18.9502 16.4549C18.9121 16.5489 18.8717 16.6419 18.8292 16.7339C18.7865 16.8259 18.7417 16.9167 18.6946 17.0065C18.6477 17.0963 18.5985 17.185 18.5472 17.2725C18.496 17.3599 18.4427 17.4461 18.3872 17.5311C18.3317 17.6159 18.2743 17.6993 18.2148 17.7815C18.1552 17.8636 18.0937 17.9442 18.0304 18.0233C17.9671 18.1025 17.9018 18.1801 17.8346 18.2561C17.7675 18.3319 17.6986 18.4062 17.6278 18.4789C17.5571 18.5515 17.4847 18.6225 17.4106 18.6917C17.3365 18.7607 17.2607 18.828 17.1832 18.8935C17.1057 18.9591 17.0268 19.0227 16.9464 19.0843C16.8659 19.146 16.7839 19.2057 16.7006 19.2633C16.6173 19.321 16.5326 19.3767 16.4466 19.4303C16.3605 19.484 16.2731 19.5355 16.1846 19.5849C16.0961 19.6343 16.0064 19.6816 15.9156 19.7267C15.8248 19.7716 15.7329 19.8144 15.64 19.8551C15.5471 19.8957 15.4533 19.9341 15.3586 19.9703C15.2638 20.0062 15.1682 20.04 15.0718 20.0714C14.9755 20.103 14.8785 20.132 14.7806 20.1588C14.6829 20.1856 14.5845 20.21 14.4854 20.232C14.3865 20.2542 14.2871 20.2738 14.1872 20.291C14.0873 20.3082 13.9871 20.323 13.8864 20.3354C13.7857 20.3478 13.6849 20.3578 13.5838 20.3652C13.4826 20.3728 13.3813 20.3778 13.28 20.3804C13.1787 20.383 13.0773 20.3832 12.976 20.3808C12.8747 20.3786 12.7734 20.3738 12.6722 20.3666C12.5711 20.3594 12.4703 20.3498 12.3695 20.3378C12.2689 20.3258 12.1686 20.3112 12.0686 20.2944C11.9686 20.2776 11.8691 20.2582 11.7701 20.2364C11.671 20.2148 11.5726 20.1906 11.4747 20.1642C11.3768 20.1378 11.2797 20.1088 11.1832 20.0776C11.0867 20.0464 10.991 20.013 10.8962 19.9773C10.8013 19.9415 10.7074 19.9035 10.6144 19.8631C10.5213 19.8228 10.4293 19.7803 10.3384 19.7355C10.2474 19.6907 10.1576 19.6437 10.0689 19.5947C9.9802 19.5455 9.89274 19.4942 9.8065 19.4409C9.7203 19.3875 9.63542 19.3321 9.55186 19.2747C9.46832 19.2172 9.38622 19.1578 9.30554 19.0965C9.22488 19.035 9.14574 18.9717 9.06812 18.9065C8.99052 18.8413 8.91452 18.7742 8.84014 18.7053C8.76578 18.6363 8.69312 18.5657 8.62216 18.4933C8.55122 18.4209 8.48206 18.3467 8.41466 18.2709C8.3473 18.1951 8.2818 18.1178 8.21816 18.0389C8.15452 17.9599 8.09284 17.8795 8.03308 17.7977C7.97334 17.7158 7.9156 17.6325 7.85986 17.5477C7.80414 17.463 7.7505 17.377 7.69892 17.2897C7.64736 17.2025 7.59794 17.114 7.55064 17.0243C7.50336 16.9345 7.45826 16.8437 7.41534 16.7519C7.37244 16.66 7.33178 16.5672 7.29336 16.4735C7.25496 16.3796 7.21882 16.2849 7.18496 16.1893C7.15112 16.0937 7.11962 15.9973 7.09042 15.9003C7.06124 15.8032 7.03442 15.7055 7.00996 15.6071C6.9855 15.5087 6.96342 15.4097 6.94374 15.3103C6.92406 15.2108 6.9068 15.1109 6.89194 15.0107C6.87708 14.9104 6.86466 14.8098 6.85466 14.7089C6.84466 14.6079 6.83712 14.5069 6.832 14.4057C6.832 14.2977 6.832 14.1897 6.832 14.0817C6.832 13.9737 6.832 13.8657 6.832 13.7577C6.836 13.6019 6.84286 13.4463 6.85262 13.2909C6.86238 13.1354 6.87502 12.9802 6.89054 12.8253C6.90606 12.6703 6.92446 12.5157 6.94572 12.3614C6.967 12.2071 6.99112 12.0532 7.0181 11.8998C7.04508 11.7464 7.0749 11.5936 7.10754 11.4413C7.1402 11.289 7.17568 11.1373 7.21396 10.9864C7.25224 10.8354 7.29332 10.6852 7.33718 10.5357C7.38106 10.3863 7.42768 10.2377 7.47704 10.09C7.52644 9.94226 7.57854 9.7955 7.63336 9.64972C7.6882 9.50392 7.7457 9.3592 7.8059 9.21556C7.8661 9.07192 7.92896 8.92944 7.99444 8.78812C8.05994 8.6468 8.12804 8.50674 8.19872 8.36796C8.26942 8.22916 8.34266 8.09174 8.41846 7.95568C8.49426 7.8196 8.57256 7.685 8.65334 7.55184C8.73414 7.41868 8.81738 7.28706 8.90306 7.15698C8.98874 7.0269 9.07682 6.89848 9.16726 6.77168C9.25772 6.64488 9.3505 6.5198 9.44558 6.39646C9.54068 6.2731 9.63804 6.15154 9.73764 6.0318C9.83726 5.91206 9.93906 5.79422 10.043 5.67826C10.147 5.5623 10.2531 5.4483 10.3613 5.33628C10.4696 5.22426 10.5798 5.11428 10.6921 5.00636C10.8044 4.89844 10.9187 4.79262 11.0349 4.68894C11.1511 4.58526 11.2693 4.48376 11.3892 4.38448C11.5092 4.28516 11.631 4.18812 11.7546 4.09336C11.8782 3.99858 12.0036 3.90614 12.1306 3.81602C12.2576 3.7259 12.3863 3.63816 12.5166 3.55282C12.6469 3.46746 12.7787 3.38458 12.912 3.30414C13.0455 3.22368 13.1803 3.14574 13.3166 3.0703C13.4529 2.99484 13.5905 2.92194 13.7294 2.85162C13.8683 2.78128 14.0085 2.71356 14.15 2.64844C14.2916 2.5833 14.4343 2.52082 14.578 2.461C14.7219 2.40116 14.8667 2.34402 15.0126 2.28958C15.1585 2.23512 15.3053 2.1834 15.4532 2.1344C15.6011 2.0854 15.7498 2.03918 15.8994 1.99569C16.049 1.95221 16.1993 1.91152 16.3504 1.87363C16.5015 1.83574 16.6532 1.80067 16.8056 1.76841C16.9579 1.73615 17.1107 1.70673 17.2642 1.68015C17.4178 1.65357 17.5717 1.62984 17.726 1.60897C17.8804 1.58811 18.0351 1.57011 18.19 1.55499C18.3451 1.53987 18.5003 1.52763 18.6558 1.51827C18.8113 1.50891 18.9669 1.50245 19.1226 1.49887C19.2783 1.49529 19.4341 1.49459 19.5898 1.49679C19.7455 1.49901 19.9012 1.5041 20.0568 1.51207C20.2122 1.52006 20.3676 1.53092 20.5228 1.54467C20.6778 1.55842 20.8326 1.57505 20.9872 1.59455C21.1418 1.61404 21.2958 1.63641 21.4496 1.66163C21.6034 1.68685 21.7566 1.71491 21.9092 1.74581C22.0618 1.77673 22.2138 1.81047 22.3652 1.84701C22.5166 1.88357 22.6674 1.92293 22.8172 1.96507C22.9672 2.00722 23.1164 2.05214 23.2646 2.09984C23.4128 2.14752 23.5602 2.19794 23.7066 2.2511C23.853 2.30426 23.9984 2.3601 24.1428 2.41866C24.287 2.47722 24.4302 2.53842 24.5722 2.6023C24.7144 2.66618 24.8552 2.73266 24.9948 2.80176C25.1344 2.87086 25.2726 2.94252 25.4096 3.01676C25.5466 3.091 25.682 3.16774 25.816 3.24702C25.9502 3.32628 26.0828 3.408 26.2138 3.4922C26.3448 3.57638 26.4742 3.66298 26.602 3.75198C26.7298 3.84096 26.856 3.9323 26.9804 4.02598C27.1048 4.11966 27.2274 4.2156 27.3484 4.31384C27.4692 4.41208 27.5882 4.51252 27.7054 4.61516C27.8226 4.7178 27.9378 4.8226 28.051 4.92954C28.1642 5.03646 28.2754 5.14544 28.3846 5.25652C28.4938 5.36756 28.601 5.48062 28.706 5.59566C28.4762 5.33302 28.2384 5.078 27.9924 4.83058C27.7464 4.58314 27.4928 4.34382 27.2316 4.11262C26.9702 3.88138 26.7018 3.65874 26.4262 3.4447C26.1508 3.23062 25.8686 3.02558 25.58 2.82954C25.2914 2.6335 24.9968 2.44688 24.6962 2.26968C24.3956 2.09248 24.0898 1.92504 23.7786 1.76737C23.4672 1.60972 23.1512 1.46216 22.8306 1.32469C22.51 1.18724 22.1852 1.06015 21.8564 0.943432C21.5276 0.826726 21.1954 0.720632 20.8598 0.625152C20.5242 0.529686 20.186 0.445018 19.845 0.371152C19.5039 0.297298 19.1609 0.234406 18.816 0.182472C18.4709 0.130539 18.1246 0.089672 17.777 0.0598716C17.4293 0.0300582 17.081 0.0113785 16.7322 0.00383224C16.3834 -0.00371476 16.0347 -0.000114441 15.6862 0.0146317C15.3375 0.0293656 14.9897 0.0552186 14.6428 0.092192C14.2959 0.129152 13.9505 0.177152 13.6066 0.236192C13.2627 0.295232 12.9211 0.365192 12.5816 0.446072C12.2422 0.526938 11.9058 0.618566 11.5722 0.720952C11.2387 0.823326 10.9087 0.936244 10.5824 1.05971C10.2561 1.18318 9.93404 1.31694 9.61624 1.46099C9.29846 1.60503 8.9856 1.75908 8.67766 1.92313C8.36974 2.08718 8.06734 2.26088 7.7705 2.44424C7.47366 2.6276 7.18298 2.82026 6.89846 3.02222C6.61394 3.22416 6.33616 3.43498 6.0651 3.6547C5.79406 3.87438 5.5303 4.10252 5.27382 4.33908C5.01736 4.57562 4.7687 4.82012 4.52784 5.07258C4.287 5.32502 4.05448 5.5849 3.83024 5.85222C3.606 6.11952 3.39054 6.39372 3.18382 6.6748C2.9771 6.95588 2.77958 7.24326 2.59122 7.53698C2.4029 7.83068 2.22412 8.1301 2.0549 8.43522C1.88569 8.74034 1.7264 9.05058 1.57703 9.3659C1.42764 9.6812 1.28847 10.001 1.15953 10.3252C1.03058 10.6494 0.912114 10.9774 0.804126 11.3091C0.696154 11.6409 0.598874 11.9758 0.512288 12.3138C0.4257 12.6518 0.35 12.9923 0.285186 13.3351C0.22036 13.6779 0.166541 14.0224 0.123727 14.3687C0.0809272 14.7149 0.0492202 15.0622 0.0286072 15.4105C0.00799332 15.7589 -0.00147934 16.1075 0.00018692 16.4563C0.00185394 16.8052 0.0146606 17.1537 0.038607 17.5019C0.0625534 17.8499 0.09758 18.1968 0.143687 18.5427C0.189807 18.8885 0.24692 19.2326 0.315026 19.5749C0.38312 19.917 0.462074 20.2566 0.551886 20.5938C0.6417 20.931 0.74218 21.2648 0.853328 21.5956C0.964486 21.9264 1.08609 22.2532 1.21813 22.576C1.35017 22.8992 1.49238 23.2176 1.64477 23.5314C1.79715 23.8454 1.95941 24.154 2.13152 24.4574C2.30364 24.761 2.48528 25.0586 2.67642 25.3504C2.86758 25.6424 3.06784 25.9278 3.27722 26.207C3.48662 26.4862 3.7047 26.7582 3.93148 27.0232C4.15826 27.2884 4.39328 27.5462 4.63652 27.7962C4.87976 28.0464 5.13074 28.2886 5.38946 28.5226C5.64818 28.7566 5.91412 28.9822 6.18726 29.1994C6.4604 29.4166 6.74018 29.6246 7.02662 29.8238C7.31306 30.023 7.60558 30.213 7.90416 30.3934C8.20274 30.574 8.50678 30.7448 8.81626 30.9058C9.12576 31.067 9.44008 31.218 9.75922 31.359C10.0784 31.5 10.4017 31.6306 10.7292 31.751C11.0567 31.8714 11.3877 31.981 11.7222 32.0802C12.0567 32.1794 12.394 32.2678 12.7342 32.3454C13.0743 32.4232 13.4166 32.49 13.761 32.5456C14.1055 32.6014 14.4514 32.646 14.7986 32.6796C15.1459 32.7132 15.4939 32.7358 15.8426 32.7472C16.1914 32.7588 16.5401 32.759 16.8888 32.748C17.2376 32.7372 17.5857 32.7152 17.933 32.682C18.2803 32.6488 18.6262 32.6046 18.9706 32.5494C19.3151 32.4942 19.6575 32.4282 19.9978 32.351C20.338 32.2738 20.6756 32.186 21.0102 32.0872C21.3448 31.9886 21.676 31.8794 22.0038 31.7594C22.3314 31.6396 22.655 31.5094 22.9744 31.3688C23.2938 31.2284 23.6082 31.0778 23.918 30.9172C24.2278 30.7566 24.532 30.5862 24.8308 30.406C25.1298 30.226 25.4226 30.0366 25.7092 29.8378C25.996 29.639 26.2762 29.4314 26.5496 29.2146C26.823 28.998 27.0894 28.7728 27.3484 28.539C27.6074 28.3054 27.8588 28.0636 28.1024 27.8138C28.346 27.5642 28.5814 27.3068 28.8086 27.042C29.0358 26.7772 29.2542 26.5054 29.464 26.2266C29.6738 25.9478 29.8746 25.6626 30.0662 25.371C30.2576 25.0794 30.4398 24.782 30.6124 24.4788C30.785 24.1756 30.9476 23.867 31.1006 23.5534C31.2534 23.2398 31.396 22.9216 31.5286 22.5988C31.6612 22.276 31.7832 21.9494 31.8948 21.6188C32.0066 21.2884 32.1076 20.9546 32.1978 20.6174C32.288 20.2806 32.3676 19.941 32.4362 19.5989C32.5048 19.2567 32.5624 18.9128 32.609 18.5671C32.6556 18.2213 32.6912 17.8744 32.7156 17.5263C32.7402 17.1783 32.7534 16.8298 32.7556 16.4809C32.7578 16.1319 32.749 15.7833 32.7288 15.4351C32.7086 15.0867 32.6774 14.7393 32.6352 14.3931C32.593 14.0467 32.5396 13.702 32.4754 13.3591C32.411 13.0163 32.3358 12.6758 32.2498 12.3376C32.1636 11.9995 32.0668 11.6644 31.9594 11.3325C31.852 11.0005 31.734 10.6724 31.6056 10.348C31.477 10.0236 31.3384 9.7036 31.1894 9.38808C31.0406 9.07254 30.8818 8.76208 30.713 8.45672C30.5442 8.15132 30.3658 7.85164 30.178 7.55766ZM25.706 16.1777C25.6716 16.1777 25.6372 16.1768 25.603 16.1751C25.5688 16.1735 25.5344 16.1709 25.5002 16.1675C25.466 16.1641 25.432 16.1599 25.398 16.1549C25.364 16.1498 25.3302 16.1439 25.2964 16.1373C25.2628 16.1306 25.2294 16.1231 25.196 16.1147C25.1626 16.1064 25.1296 16.0973 25.0966 16.0873C25.0638 16.0773 25.0312 16.0665 24.9988 16.0549C24.9664 16.0433 24.9344 16.0309 24.9026 16.0179C24.8708 16.0047 24.8394 15.9907 24.8084 15.9761C24.7774 15.9613 24.7466 15.9458 24.7164 15.9297C24.6862 15.9134 24.6562 15.8965 24.6268 15.8789C24.5974 15.8611 24.5684 15.8427 24.5398 15.8237C24.5112 15.8046 24.4832 15.7848 24.4556 15.7643C24.428 15.7439 24.401 15.7227 24.3744 15.7009C24.3478 15.6791 24.3218 15.6567 24.2964 15.6335C24.271 15.6104 24.246 15.5867 24.2218 15.5625C24.1976 15.5382 24.1738 15.5133 24.1508 15.4879C24.1278 15.4624 24.1054 15.4363 24.0836 15.4097C24.0618 15.3831 24.0406 15.3561 24.0202 15.3285C23.9996 15.3009 23.9798 15.2728 23.9608 15.2443C23.9418 15.2156 23.9234 15.1865 23.9058 15.1571C23.8882 15.1276 23.8712 15.0977 23.855 15.0675C23.8388 15.0372 23.8234 15.0065 23.8088 14.9755C23.7942 14.9444 23.7802 14.9129 23.7672 14.8811C23.754 14.8493 23.7416 14.8173 23.7302 14.7851C23.7186 14.7527 23.7078 14.72 23.6978 14.6871C23.688 14.6543 23.6788 14.6212 23.6704 14.5879C23.6622 14.5545 23.6546 14.521 23.648 14.4873C23.6414 14.4535 23.6354 14.4197 23.6304 14.3857C23.6254 14.3517 23.6214 14.3176 23.618 14.2835C23.6146 14.2492 23.6122 14.2149 23.6104 14.1807C23.6088 14.1464 23.608 14.1121 23.608 14.0777C23.608 14.0433 23.6088 14.0089 23.6106 13.9747C23.6124 13.9404 23.615 13.9061 23.6184 13.8719C23.6218 13.8377 23.626 13.8037 23.631 13.7697C23.636 13.7357 23.642 13.7018 23.6488 13.6681C23.6554 13.6345 23.663 13.601 23.6714 13.5677C23.6798 13.5343 23.689 13.5013 23.699 13.4685C23.709 13.4355 23.7198 13.4029 23.7314 13.3707C23.743 13.3383 23.7554 13.3062 23.7686 13.2745C23.7818 13.2427 23.7958 13.2113 23.8106 13.1803C23.8252 13.1493 23.8408 13.1187 23.857 13.0883C23.8732 13.058 23.8902 13.0281 23.9078 12.9987C23.9256 12.9693 23.944 12.9404 23.9632 12.9119C23.9822 12.8833 24.002 12.8553 24.0226 12.8277C24.0432 12.8001 24.0642 12.773 24.086 12.7465C24.1078 12.7199 24.1304 12.6939 24.1534 12.6685C24.1766 12.6431 24.2004 12.6183 24.2246 12.5941C24.249 12.5698 24.274 12.5461 24.2994 12.5231C24.3248 12.5 24.3508 12.4776 24.3774 12.4559C24.404 12.4341 24.4312 12.4131 24.4588 12.3927C24.4864 12.3722 24.5146 12.3525 24.5432 12.3334C24.5718 12.3144 24.6008 12.296 24.6302 12.2784C24.6598 12.2608 24.6898 12.2439 24.72 12.2278C24.7502 12.2116 24.781 12.1963 24.8122 12.1816C24.8432 12.167 24.8746 12.1531 24.9064 12.14C24.9382 12.1269 24.9702 12.1146 25.0026 12.1031C25.035 12.0916 25.0676 12.0809 25.1004 12.0709C25.1334 12.061 25.1664 12.0519 25.1998 12.0436C25.2332 12.0353 25.2666 12.0279 25.3004 12.0212C25.3342 12.0146 25.368 12.0088 25.402 12.0038C25.436 11.9988 25.47 11.9947 25.5042 11.9914C25.5384 11.9881 25.5728 11.9856 25.607 11.984C25.6412 11.9824 25.6756 11.9816 25.71 11.9817C25.7444 11.9817 25.7788 11.9826 25.813 11.9844C25.8472 11.9861 25.8816 11.9887 25.9158 11.9922C25.95 11.9956 25.984 11.9999 26.018 12.005C26.052 12.0101 26.0858 12.016 26.1194 12.0228C26.1532 12.0296 26.1866 12.0372 26.22 12.0456C26.2534 12.054 26.2864 12.0632 26.3192 12.0733C26.352 12.0833 26.3846 12.0942 26.417 12.1058C26.4492 12.1174 26.4812 12.1299 26.513 12.1431C26.5448 12.1563 26.5762 12.1703 26.6072 12.185C26.6382 12.1998 26.6688 12.2153 26.699 12.2316C26.7292 12.2478 26.7592 12.2648 26.7886 12.2826C26.818 12.3003 26.847 12.3187 26.8756 12.3379C26.9042 12.357 26.9322 12.3769 26.9596 12.3975C26.9872 12.418 27.0142 12.4392 27.0408 12.4611C27.0672 12.4829 27.0932 12.5054 27.1186 12.5285C27.144 12.5517 27.1688 12.5754 27.193 12.5997C27.2172 12.6241 27.241 12.649 27.264 12.6745C27.287 12.6999 27.3092 12.726 27.331 12.7527C27.3528 12.7793 27.3738 12.8065 27.3942 12.8341C27.4146 12.8617 27.4344 12.8898 27.4534 12.9185C27.4724 12.9471 27.4906 12.9762 27.5082 13.0057C27.5258 13.0351 27.5426 13.0651 27.5588 13.0955C27.575 13.1257 27.5902 13.1565 27.6048 13.1877C27.6194 13.2187 27.6334 13.2501 27.6464 13.2819C27.6594 13.3136 27.6718 13.3457 27.6832 13.3781C27.6946 13.4105 27.7054 13.4431 27.7152 13.4761C27.7252 13.509 27.7344 13.5421 27.7426 13.5755C27.7508 13.6088 27.7582 13.6423 27.7648 13.6761C27.7714 13.7098 27.7772 13.7437 27.7822 13.7777C27.7872 13.8117 27.7912 13.8457 27.7944 13.8799C27.7978 13.9141 27.8002 13.9484 27.8018 13.9827C27.8034 14.0169 27.8042 14.0513 27.804 14.0857C27.8038 14.1199 27.803 14.1542 27.8012 14.1885C27.7994 14.2226 27.7968 14.2567 27.7934 14.2909C27.79 14.325 27.7856 14.359 27.7804 14.3929C27.7754 14.4267 27.7694 14.4605 27.7626 14.4941C27.756 14.5277 27.7484 14.5611 27.74 14.5943C27.7314 14.6276 27.7222 14.6606 27.7122 14.6933C27.7022 14.7261 27.6914 14.7586 27.6798 14.7909C27.6682 14.8231 27.6558 14.8551 27.6426 14.8867C27.6294 14.9183 27.6154 14.9496 27.6008 14.9807C27.586 15.0116 27.5706 15.0421 27.5544 15.0723C27.5382 15.1025 27.5212 15.1323 27.5034 15.1617C27.4858 15.191 27.4674 15.2199 27.4484 15.2485C27.4294 15.2769 27.4096 15.3048 27.389 15.3323C27.3686 15.3597 27.3474 15.3867 27.3256 15.4133C27.3038 15.4397 27.2814 15.4655 27.2584 15.4909C27.2354 15.5163 27.2116 15.5411 27.1874 15.5653C27.1632 15.5895 27.1382 15.6131 27.1128 15.6361C27.0874 15.659 27.0616 15.6813 27.035 15.7031C27.0084 15.7248 26.9814 15.7459 26.9538 15.7663C26.9262 15.7867 26.8982 15.8063 26.8698 15.8253C26.8412 15.8443 26.8122 15.8627 26.7828 15.8803C26.7534 15.8979 26.7236 15.9147 26.6934 15.9309C26.6632 15.947 26.6324 15.9623 26.6014 15.9769C26.5704 15.9915 26.5392 16.0054 26.5074 16.0185C26.4758 16.0317 26.4438 16.044 26.4116 16.0555C26.3794 16.0669 26.3468 16.0777 26.314 16.0877C26.2812 16.0975 26.2482 16.1067 26.2148 16.1151C26.1816 16.1233 26.1482 16.1308 26.1146 16.1375C26.081 16.1441 26.0472 16.15 26.0132 16.1551C25.9794 16.1601 25.9454 16.1643 25.9112 16.1677C25.8772 16.171 25.843 16.1735 25.8088 16.1751C25.7746 16.1768 25.7402 16.1777 25.706 16.1777Z"   fill="#FFFFFF" >
</path>
</svg>
