<svg xmlns="http://www.w3.org/2000/svg" xmlns:xlink="http://www.w3.org/1999/xlink" width="28" height="28" viewBox="0 0 28 28" fill="none">
<path d="M6.37585 14.826C6.60919 14.966 6.82502 14.8913 7.02919 14.854C7.89485 14.6953 8.53185 13.6418 8.36969 12.8252C8.21335 12.0377 7.81202 11.4252 7.25435 10.8815C7.19168 10.8279 7.12478 10.7802 7.05365 10.7384C6.98251 10.6967 6.90824 10.6616 6.83085 10.633C6.68152 10.57 6.66052 10.4755 6.72235 10.3343C6.87383 10.0271 7.05933 9.74209 7.27885 9.47917C7.77002 8.83284 8.31835 8.23667 9.02885 7.83767C9.46752 7.59151 9.91902 7.37101 10.3589 7.11901C10.9422 6.78884 11.5757 6.80284 12.2174 6.91367C12.2915 6.92559 12.3653 6.93896 12.4389 6.9538C12.5126 6.96863 12.5859 6.98491 12.6588 7.00264C12.7318 7.02038 12.8043 7.03955 12.8765 7.06015C12.9487 7.08075 13.0204 7.10277 13.0918 7.12622C13.1631 7.14965 13.2339 7.17449 13.3042 7.20074C13.3746 7.22699 13.4444 7.25461 13.5136 7.28361C13.5829 7.31262 13.6516 7.34298 13.7196 7.37469C13.7876 7.40641 13.855 7.43946 13.9217 7.47384C13.9885 7.50822 14.0546 7.54391 14.12 7.58091C14.1853 7.61791 14.2498 7.65619 14.3136 7.69574C14.3774 7.73529 14.4404 7.77608 14.5026 7.81812C14.5649 7.86017 14.6263 7.90342 14.6867 7.94789C14.7471 7.99235 14.8067 8.038 14.8654 8.08483C14.9242 8.13165 14.982 8.17962 15.0387 8.22873C15.0955 8.27783 15.1513 8.32805 15.206 8.37937C15.2608 8.43069 15.3146 8.48306 15.3673 8.53651C16.3823 9.56084 16.8105 10.7707 16.3893 12.2185C16.2295 12.7657 16.0393 13.2825 15.61 13.6698C14.9695 14.2462 14.2229 14.4958 13.3724 14.2613C13.3412 14.2528 13.3104 14.2434 13.2798 14.2332C13.2492 14.2231 13.2189 14.2122 13.1888 14.2006C13.1587 14.1889 13.129 14.1764 13.0996 14.1632C13.0702 14.15 13.0411 14.1361 13.0124 14.1215C12.9837 14.1068 12.9554 14.0914 12.9275 14.0753C12.8996 14.0592 12.8721 14.0423 12.845 14.0247C12.8179 14.0072 12.7912 13.9891 12.7651 13.9703C12.739 13.9514 12.7133 13.9318 12.6882 13.9117C12.663 13.8915 12.6384 13.8707 12.6144 13.8493C12.5903 13.8278 12.5667 13.8058 12.5438 13.7831C12.5208 13.7605 12.4984 13.7373 12.4766 13.7136C12.4548 13.6898 12.4337 13.6655 12.4131 13.6407C12.3925 13.6158 12.3726 13.5904 12.3534 13.5646C12.3341 13.5387 12.3155 13.5124 12.2976 13.4856C12.2797 13.4588 12.2624 13.4315 12.2459 13.4038C12.2294 13.3762 12.2135 13.3481 12.1985 13.3196C12.1833 13.2911 12.1689 13.2623 12.1553 13.233C12.1417 13.2039 12.1288 13.1743 12.1167 13.1444C12.1045 13.1145 12.0931 13.0844 12.0825 13.054C12.0719 13.0235 12.0621 12.9927 12.0531 12.9618C12.0441 12.9308 12.0358 12.8997 12.0284 12.8683C12.0209 12.837 12.0142 12.8055 12.0084 12.7737C12.0026 12.742 11.9976 12.7101 11.9934 12.6782C11.9891 12.6462 11.9857 12.6142 11.9831 12.582C11.9804 12.5499 11.9787 12.5178 11.9777 12.4856C11.9768 12.4533 11.9767 12.421 11.9774 12.3888C11.9781 12.3566 11.9795 12.3244 11.9818 12.2922C11.9841 12.26 11.9873 12.228 11.9913 12.196C11.9952 12.1639 12 12.1321 12.0056 12.1003C12.0112 12.0686 12.0176 12.037 12.0247 12.0056C12.0319 11.9741 12.0399 11.9429 12.0487 11.9119C12.0574 11.8809 12.067 11.8501 12.0774 11.8195C12.1066 11.7254 12.1405 11.633 12.1792 11.5423C12.2179 11.4516 12.261 11.3631 12.3086 11.2768C12.3562 11.1905 12.4081 11.1068 12.4642 11.0257C12.5203 10.9447 12.5803 10.8666 12.6444 10.7917C13.0095 10.374 13.5112 10.22 14.07 10.2842C14.1529 10.2947 14.2357 10.3133 14.3734 10.339C14.3335 10.2918 14.29 10.2483 14.2429 10.2082C14.1959 10.1682 14.1459 10.1324 14.0929 10.1006C14.0398 10.0689 13.9846 10.0417 13.9272 10.019C13.8697 9.99638 13.8108 9.97859 13.7504 9.96567C12.67 9.70551 11.3563 10.2235 10.7322 11.1323C10.6155 11.305 10.4685 11.459 10.3507 11.6328C9.40685 13.027 9.39985 14.4328 10.2597 15.8795C11.0507 17.2095 12.2687 17.822 13.7445 17.9118C14.378 17.9515 15.036 17.7847 15.6462 17.5408C17.0158 16.9925 18.0822 16.0872 18.7122 14.7408C19.404 13.2615 19.4122 11.7973 18.4403 10.4067C18.2828 10.2049 18.1097 10.0175 17.9212 9.84434C17.8683 9.79475 17.8205 9.74069 17.7777 9.68217C17.77 9.67254 17.763 9.66234 17.7569 9.6516C17.7508 9.64085 17.7456 9.6297 17.7411 9.61811C17.7368 9.60653 17.7334 9.59469 17.7309 9.58257C17.7284 9.57044 17.7269 9.55819 17.7264 9.54584C17.726 9.53348 17.7263 9.52116 17.7277 9.50888C17.7292 9.49659 17.7317 9.4845 17.735 9.4726C17.7383 9.46068 17.7427 9.44912 17.7478 9.4379C17.753 9.42667 17.7591 9.41593 17.766 9.40567C17.8372 9.31001 17.9363 9.32751 18.0343 9.36251C18.1524 9.41223 18.2666 9.46961 18.377 9.53465C18.4873 9.59969 18.5929 9.6718 18.6935 9.75101C19.5603 10.3483 20.146 11.1732 20.636 12.0843C20.6841 12.1727 20.7359 12.2588 20.7913 12.3426C20.8468 12.4266 20.9057 12.5079 20.9681 12.5867C21.0307 12.6656 21.0964 12.7416 21.1653 12.8148C21.2344 12.8879 21.3064 12.9579 21.3813 13.0249C21.4564 13.092 21.5341 13.1556 21.6146 13.2159C21.6951 13.2762 21.7779 13.3329 21.8633 13.386C21.9487 13.4392 22.0362 13.4886 22.1258 13.5343C22.2154 13.5799 22.3069 13.6215 22.4 13.6593C22.4427 13.6774 22.4849 13.6966 22.5267 13.7169C22.5685 13.7371 22.6096 13.7584 22.6502 13.7808C22.6908 13.8032 22.7309 13.8267 22.7703 13.8513C22.8097 13.8758 22.8483 13.9013 22.8864 13.9278C22.9244 13.9543 22.9617 13.9818 22.9984 14.0104C23.035 14.0389 23.0709 14.0683 23.1059 14.0987C23.1409 14.129 23.1752 14.1603 23.2086 14.1925C23.2421 14.2246 23.2746 14.2576 23.3064 14.2916C23.3381 14.3255 23.3688 14.3602 23.3987 14.3956C23.4285 14.4311 23.4575 14.4673 23.4855 14.5044C23.5135 14.5414 23.5405 14.5791 23.5664 14.6175C23.5926 14.6559 23.6175 14.695 23.6414 14.7347C23.6655 14.7744 23.6883 14.8147 23.7102 14.8556C23.732 14.8966 23.7527 14.9381 23.7723 14.9801C23.7921 15.0221 23.8106 15.0646 23.8281 15.1076C23.8456 15.1506 23.8618 15.194 23.877 15.2378C23.9967 15.5431 24.0987 15.8542 24.1827 16.1712C24.2098 16.2695 24.2437 16.3654 24.2843 16.4589C24.3249 16.5524 24.3719 16.6427 24.4251 16.7295C24.4784 16.8165 24.5374 16.8993 24.6023 16.9779C24.6673 17.0566 24.7374 17.1303 24.8127 17.199C24.8255 17.2113 24.8386 17.2232 24.8519 17.2348C24.8654 17.2463 24.8792 17.2574 24.8932 17.2681C24.9073 17.2788 24.9216 17.2891 24.9363 17.299C24.951 17.3089 24.9661 17.3183 24.9812 17.3272C24.9966 17.3362 25.0122 17.3447 25.0278 17.3528C25.0437 17.3608 25.0596 17.3683 25.0757 17.3754C25.0921 17.3826 25.1084 17.3892 25.125 17.3952C25.1417 17.4014 25.1585 17.407 25.1754 17.4122C25.1924 17.4173 25.2094 17.4219 25.2266 17.4259C25.2439 17.43 25.2611 17.4337 25.2785 17.4368C25.296 17.4399 25.3135 17.4425 25.331 17.4445C25.3487 17.4465 25.3664 17.448 25.384 17.449C25.4017 17.45 25.4193 17.4504 25.4371 17.4504C25.4548 17.4503 25.4724 17.4498 25.49 17.4487C25.5078 17.4475 25.5254 17.4459 25.5429 17.4438C25.5605 17.4416 25.578 17.4389 25.5954 17.4357C25.6129 17.4325 25.6301 17.4288 25.6473 17.4246C25.6646 17.4204 25.6816 17.4156 25.6984 17.4104C25.7153 17.4052 25.732 17.3995 25.7486 17.3933C25.7651 17.387 25.7816 17.3802 25.7977 17.3731C25.8139 17.3658 25.8299 17.3581 25.8455 17.35C25.8613 17.3419 25.8768 17.3333 25.8919 17.3242C25.9071 17.3152 25.922 17.3057 25.9366 17.2957C25.9513 17.2858 25.9656 17.2754 25.9796 17.2646C25.9937 17.2538 26.0073 17.2425 26.0206 17.2309C26.034 17.2193 26.0471 17.2073 26.0597 17.1949C26.0723 17.1825 26.0846 17.1697 26.0965 17.1567C26.1084 17.1435 26.1199 17.1301 26.1309 17.1163C26.1421 17.1024 26.1527 17.0883 26.1628 17.0739C26.1731 17.0595 26.1829 17.0447 26.1922 17.0297C26.2017 17.0147 26.2107 16.9994 26.2191 16.9839C26.2275 16.9683 26.2355 16.9525 26.243 16.9365C26.2642 16.887 26.2934 16.8426 26.3305 16.8035C26.3285 16.8604 26.3223 16.9169 26.3119 16.973C26.3017 17.029 26.2873 17.084 26.2689 17.138C26.2506 17.192 26.2284 17.2443 26.2023 17.2949C26.1763 17.3456 26.1466 17.3942 26.1135 17.4405C25.8312 17.7812 25.5057 18.0332 25.0145 18.0798C24.269 18.1522 23.8268 17.7485 23.4593 17.2107C23.0382 16.5935 22.6427 16.4768 21.8972 16.6273C21.8176 16.6441 21.7387 16.6637 21.6606 16.686C21.5824 16.7083 21.5052 16.7332 21.4286 16.7609C21.3522 16.7887 21.2768 16.8191 21.2024 16.852C21.1282 16.885 21.0551 16.9205 20.9832 16.9586C20.9114 16.9967 20.841 17.0372 20.7719 17.0802C20.703 17.1233 20.6355 17.1686 20.5697 17.2163C20.5039 17.264 20.4399 17.314 20.3775 17.3662C20.3152 17.4184 20.2547 17.4727 20.1962 17.5292C19.8683 17.8337 19.649 18.2292 19.3632 18.5792C18.5815 19.5207 17.6517 20.2393 16.4465 20.5625C15.8865 20.713 15.3323 20.7363 14.7992 20.4563C14.7621 20.4423 14.7282 20.4225 14.6977 20.3968C14.4842 20.1413 14.2719 20.23 14.0117 20.3478C12.4787 21.035 10.927 20.9732 9.37185 20.4178C8.40819 20.0678 7.60552 19.4728 6.84252 18.8148C6.54619 18.5605 6.36535 18.2082 6.14252 17.8943C6.10995 17.8469 6.07371 17.8024 6.03382 17.7609C5.99392 17.7194 5.95092 17.6815 5.90479 17.647C5.85865 17.6126 5.81001 17.5821 5.75887 17.5558C5.70774 17.5293 5.65478 17.5072 5.60002 17.4895C4.21285 16.9913 3.15701 16.121 2.88985 14.6008C2.88014 14.5495 2.87209 14.4979 2.86569 14.4461C2.85929 14.3943 2.85457 14.3424 2.85152 14.2903C2.84847 14.2382 2.84709 14.186 2.84739 14.1338C2.8477 14.0816 2.84967 14.0294 2.85332 13.9774C2.85697 13.9253 2.8623 13.8733 2.86929 13.8216C2.87628 13.7699 2.88493 13.7185 2.89523 13.6673C2.90552 13.616 2.91746 13.5652 2.93103 13.5148C2.9446 13.4644 2.95977 13.4145 2.97654 13.365C2.99332 13.3156 3.01167 13.2668 3.03159 13.2185C3.0515 13.1702 3.07295 13.1227 3.09593 13.0758C3.1189 13.0289 3.14336 12.9828 3.1693 12.9375C3.19524 12.8922 3.22261 12.8477 3.25141 12.8042C3.2802 12.7606 3.31037 12.718 3.34191 12.6764C3.37344 12.6348 3.40628 12.5943 3.44042 12.5547C3.47457 12.5153 3.50994 12.477 3.54655 12.4397C3.58315 12.4025 3.62092 12.3664 3.65985 12.3317C4.06585 11.9455 4.52552 11.823 5.05169 11.8102C5.51835 11.7997 5.97219 11.7892 6.40619 11.9852C6.98952 12.2488 7.46785 12.9092 7.41419 13.629C7.37919 14.112 7.08985 14.4457 6.67569 14.679C6.58585 14.7268 6.49252 14.7688 6.37585 14.826Z"   fill="#FFFFFF" >
</path>
</svg>
