<svg width="18" height="17" viewBox="0 0 18 17" fill="none" xmlns="http://www.w3.org/2000/svg">
<path d="M7.28787 1.8357C8.06575 0.547352 9.93425 0.547352 10.7121 1.8357L11.8613 3.73898C12.1402 4.20089 12.5939 4.53051 13.1193 4.65301L15.2846 5.15778C16.7502 5.49946 17.3276 7.27652 16.3427 8.41444L14.8877 10.0955C14.5346 10.5035 14.3613 11.0368 14.4072 11.5744L14.5962 13.7897C14.7242 15.2892 13.2125 16.3875 11.8259 15.8024L9.77752 14.9381C9.2804 14.7283 8.7196 14.7283 8.22248 14.9381L6.17407 15.8024C4.78749 16.3875 3.27583 15.2892 3.40379 13.7897L3.59282 11.5744C3.6387 11.0368 3.4654 10.5035 3.11229 10.0955L1.65727 8.41444C0.672353 7.27652 1.24975 5.49946 2.71542 5.15778L4.88066 4.65301C5.40614 4.53051 5.85983 4.20089 6.13871 3.73898L7.28787 1.8357Z" fill="#FEDAA3" stroke="#FEDAA3" stroke-width="1.5"/>
</svg>
