<svg width="20" height="20" viewBox="0 0 20 20" fill="none" xmlns="http://www.w3.org/2000/svg">
<path d="M8.28787 3.25235C9.06575 1.96401 10.9343 1.96401 11.7121 3.25235L12.8613 5.15564C13.1402 5.61754 13.5939 5.94717 14.1193 6.06967L16.2846 6.57444C17.7502 6.91612 18.3276 8.69317 17.3427 9.83109L15.8877 11.5122C15.5346 11.9201 15.3613 12.4535 15.4072 12.9911L15.5962 15.2063C15.7242 16.7059 14.2125 17.8041 12.8259 17.2191L10.7775 16.3547C10.2804 16.145 9.7196 16.145 9.22248 16.3547L7.17407 17.2191C5.78749 17.8041 4.27583 16.7059 4.40379 15.2063L4.59282 12.9911C4.6387 12.4535 4.4654 11.9201 4.11229 11.5122L2.65727 9.83109C1.67235 8.69317 2.24975 6.91612 3.71542 6.57444L5.88066 6.06967C6.40614 5.94717 6.85983 5.61754 7.13871 5.15564L8.28787 3.25235Z" stroke="#FEDAA3" stroke-width="1.5"/>
</svg>
