<svg xmlns="http://www.w3.org/2000/svg" width="12" height="12" viewBox="0 0 12 12" fill="none">
  <path d="M7 4H2C1.4485 4 1 4.4485 1 5V10C1 10.5515 1.4485 11 2 11H7C7.5515 11 8 10.5515 8 10V5C8 4.4485 7.5515 4 7 4Z" fill="white"/>
  <path d="M10 1H5C4.73478 1 4.48043 1.10536 4.29289 1.29289C4.10536 1.48043 4 1.73478 4 2V3H8C8.26522 3 8.51957 3.10536 8.70711 3.29289C8.89464 3.48043 9 3.73478 9 4V8H10C10.2652 8 10.5196 7.89464 10.7071 7.70711C10.8946 7.51957 11 7.26522 11 7V2C11 1.73478 10.8946 1.48043 10.7071 1.29289C10.5196 1.10536 10.2652 1 10 1Z" fill="white"/>
</svg>