<svg xmlns="http://www.w3.org/2000/svg" xmlns:xlink="http://www.w3.org/1999/xlink" width="28" height="28" viewBox="0 0 28 28" fill="none">
<path d="M14.7432 13.3957C14.6928 13.7141 14.6247 14.0287 14.539 14.3395C14.5111 14.4536 14.477 14.5658 14.4367 14.6761C14.3965 14.7865 14.3503 14.8943 14.2982 14.9995C14.2461 15.1048 14.1884 15.2069 14.1251 15.3059C14.0618 15.4048 13.9933 15.5 13.9195 15.5914C13.853 15.6789 13.7877 15.7162 13.6862 15.6555C12.9185 15.1888 12.0715 15.1748 11.2199 15.2413C11.0671 15.2525 10.915 15.2692 10.7636 15.2916C10.6121 15.3142 10.4616 15.3422 10.3122 15.3756C10.1628 15.4091 10.0149 15.4482 9.86836 15.4928C9.72184 15.5372 9.57717 15.5872 9.43435 15.6423C9.29153 15.6975 9.15094 15.758 9.01259 15.8236C8.87424 15.8893 8.73851 15.9599 8.6054 16.0356C8.47229 16.1113 8.34215 16.1918 8.215 16.2771C8.08784 16.3624 7.96402 16.4524 7.84353 16.5469C7.4737 16.835 7.14353 17.1675 6.72003 17.3915C6.4202 17.5502 6.2977 17.5082 6.1542 17.2107C5.95236 16.7884 6.06203 16.394 6.22303 15.9927C6.22476 15.9867 6.22694 15.981 6.22959 15.9754C6.23222 15.9698 6.23528 15.9645 6.23877 15.9594C6.24226 15.9543 6.24613 15.9495 6.25038 15.9451C6.25462 15.9405 6.2592 15.9365 6.2641 15.9327C6.269 15.929 6.27416 15.9256 6.27959 15.9227C6.28501 15.9198 6.29065 15.9172 6.29647 15.9152C6.30229 15.9132 6.30825 15.9116 6.31433 15.9106C6.32041 15.9095 6.32652 15.9088 6.3327 15.9087C6.39336 15.9087 6.40853 15.9624 6.4272 16.009C6.56486 16.3427 6.57303 16.3415 6.87286 16.1385C7.76303 15.5342 8.61236 14.8773 9.45586 14.175C9.31368 14.1875 9.1768 14.2213 9.0452 14.2765C8.03136 14.6533 7.0292 15.0617 6.03403 15.484C5.8532 15.5599 5.85903 15.7174 5.82636 15.8667C5.8112 15.9355 5.8427 16.0335 5.7552 16.0615C5.6677 16.0895 5.61636 15.9997 5.56736 15.9449C5.52548 15.8983 5.49242 15.8463 5.4682 15.7885C5.46043 15.7646 5.45141 15.7413 5.44113 15.7183C5.43085 15.6954 5.41936 15.6731 5.40668 15.6514C5.394 15.6297 5.38019 15.6089 5.36526 15.5887C5.35033 15.5685 5.33435 15.5491 5.31734 15.5307C5.30032 15.5121 5.28236 15.4946 5.26347 15.4782C5.24457 15.4616 5.22484 15.4461 5.20427 15.4318C5.18371 15.4173 5.16243 15.404 5.14043 15.392C5.11845 15.3798 5.09587 15.3689 5.0727 15.3592C4.89886 15.2798 4.82536 15.071 4.7227 14.9112C4.68613 14.852 4.65195 14.7914 4.62017 14.7295C4.58839 14.6675 4.55911 14.6044 4.53232 14.5402C4.50554 14.476 4.48134 14.4108 4.45972 14.3446C4.4381 14.2785 4.41913 14.2115 4.40281 14.1439C4.38649 14.0763 4.37287 14.0081 4.36195 13.9393C4.35102 13.8706 4.34284 13.8015 4.33739 13.7321C4.33194 13.6628 4.32924 13.5933 4.32929 13.5237C4.32934 13.4541 4.33214 13.3846 4.3377 13.3152C4.35286 13.0643 4.42986 13.0118 4.67486 13.0655C5.07956 13.1593 5.48945 13.2145 5.90453 13.2312C5.95234 13.2334 6.0001 13.2326 6.04781 13.2287C6.09551 13.2249 6.14279 13.2181 6.18963 13.2082C6.23647 13.1984 6.28249 13.1856 6.32771 13.1699C6.37293 13.1542 6.41699 13.1357 6.45986 13.1145C7.05486 12.8112 7.67553 12.5557 8.20986 12.1462C8.26936 12.1007 8.32653 12.0575 8.38953 12.0143C8.40139 12.0072 8.41294 11.9995 8.42419 11.9914C8.43544 11.9833 8.44635 11.9748 8.45691 11.9658C8.46747 11.9568 8.47766 11.9474 8.48747 11.9376C8.49728 11.9278 8.50669 11.9176 8.51568 11.907C8.52468 11.8965 8.53323 11.8856 8.54135 11.8743C8.54948 11.8631 8.55713 11.8515 8.56433 11.8397C8.57153 11.8279 8.57824 11.8157 8.58446 11.8033C8.59069 11.7909 8.5964 11.7783 8.60162 11.7655C8.60683 11.7527 8.61152 11.7396 8.61569 11.7264C8.61985 11.7131 8.62349 11.6997 8.62659 11.6863C8.62968 11.6727 8.63223 11.6591 8.63424 11.6454C8.63624 11.6317 8.6377 11.6179 8.6386 11.604C8.6395 11.5902 8.63985 11.5764 8.63964 11.5625C8.63943 11.5486 8.63866 11.5348 8.63734 11.521C8.63602 11.5072 8.63416 11.4934 8.63174 11.4798C8.62933 11.4661 8.62636 11.4526 8.62286 11.4392C8.59588 11.2488 8.59121 11.0578 8.60886 10.8663C8.61703 10.6213 8.76636 10.4638 8.95886 10.3262C9.4862 9.94001 10.0252 9.57134 10.5362 9.15951C10.5704 9.13307 10.6039 9.10576 10.6367 9.07756C10.6695 9.04938 10.7016 9.02036 10.7328 8.99049C10.7641 8.96063 10.7946 8.92997 10.8243 8.89851C10.854 8.86706 10.8828 8.83486 10.9108 8.80189C10.9388 8.76893 10.9659 8.73526 10.9921 8.70088C11.0184 8.66651 11.0437 8.63146 11.0681 8.59576C11.0925 8.56006 11.116 8.52376 11.1385 8.48682C11.161 8.44991 11.1825 8.41242 11.2031 8.37436C11.2236 8.33632 11.2432 8.29776 11.2617 8.25868C11.2802 8.21962 11.2978 8.18009 11.3142 8.1401C11.3307 8.10012 11.3461 8.05973 11.3605 8.01893C11.3748 7.97814 11.3881 7.937 11.4003 7.89552C11.4125 7.85403 11.4237 7.81226 11.4337 7.7702C11.4437 7.72812 11.4527 7.68583 11.4605 7.6433C11.4683 7.60077 11.475 7.55806 11.4806 7.51517C11.4862 7.4723 11.4907 7.42929 11.494 7.38617C11.5013 7.28694 11.495 7.18855 11.4754 7.09101C11.466 7.02801 11.4345 6.94167 11.5209 6.91367C11.6072 6.88567 11.6189 6.97084 11.6504 7.02217C11.689 7.08746 11.7249 7.15423 11.7582 7.22248C11.7914 7.29074 11.8217 7.36024 11.849 7.43099C11.8765 7.50174 11.901 7.57351 11.9225 7.64628C11.9441 7.71906 11.9626 7.79259 11.978 7.86689C11.9934 7.94118 12.0058 8.01599 12.0151 8.09131C12.0244 8.16663 12.0306 8.2422 12.0336 8.31803C12.0366 8.39386 12.0366 8.46968 12.0334 8.5455C12.0301 8.62132 12.0238 8.69688 12.0144 8.77217C11.9957 8.96001 12.0144 8.97401 12.1999 8.94251C12.4694 8.89701 12.6665 8.72901 12.8754 8.57151C13.8834 7.77234 14.7864 6.85417 15.7022 5.95001C16.1339 5.52417 16.4897 5.03067 16.8689 4.55701C17.1017 4.27508 17.3564 4.01452 17.633 3.77535C17.9165 3.52101 18.1592 3.61085 18.2502 3.98418C18.3237 4.28518 18.2397 4.56051 18.1137 4.82651C17.9189 5.24417 17.6365 5.60584 17.3717 5.97917C17.3447 6.00871 17.322 6.04117 17.3034 6.07654C17.2849 6.11193 17.271 6.14909 17.262 6.18801C17.3765 6.16172 17.4858 6.12127 17.5899 6.06667C18.3459 5.73767 19.0015 5.25001 19.6327 4.73318C19.88 4.52901 20.132 4.32835 20.3829 4.12651C20.4505 4.07168 20.5205 4.00985 20.6162 4.05535C20.6272 4.06131 20.6375 4.06811 20.6475 4.07575C20.6573 4.08339 20.6665 4.09176 20.675 4.10087C20.6835 4.10998 20.6913 4.11972 20.6982 4.13007C20.7052 4.14042 20.7113 4.15126 20.7165 4.1626C20.7218 4.17392 20.726 4.18559 20.7294 4.19761C20.7327 4.20963 20.7351 4.22183 20.7365 4.23423C20.7379 4.24663 20.7382 4.25906 20.7376 4.27152C20.7371 4.28398 20.7354 4.29631 20.7329 4.30851C20.7289 4.35793 20.7221 4.40696 20.7124 4.45558C20.7028 4.5042 20.6902 4.55209 20.6749 4.59925C20.6596 4.64639 20.6415 4.69249 20.6207 4.73752C20.6001 4.78255 20.5768 4.82622 20.5509 4.86851C20.0107 5.86951 19.2559 6.61851 18.1289 6.94401C17.7544 7.05134 17.3927 7.19834 17.0205 7.31151C16.5002 7.47017 16.065 7.77117 15.645 8.10017C15.3346 8.32459 15.0445 8.5727 14.7747 8.84451C15.568 8.53417 16.408 8.37784 17.1617 7.94967C17.2259 7.91351 17.29 7.87617 17.3565 7.84351C17.423 7.81084 17.521 7.77467 17.5992 7.84351C17.6774 7.91234 17.6447 7.99167 17.619 8.06867C17.5428 8.27847 17.4467 8.47873 17.3309 8.66951C17.1903 8.92169 17.0311 9.16163 16.8537 9.38934C17.0649 9.34267 17.2305 9.31001 17.3939 9.27267C17.4702 9.25256 17.5472 9.23554 17.6247 9.22159C17.7023 9.20765 17.7804 9.19683 17.8589 9.18914C17.9374 9.18147 18.0162 9.17694 18.095 9.17556C18.1739 9.1742 18.2526 9.17598 18.3314 9.18093C18.4101 9.18587 18.4885 9.19397 18.5666 9.20521C18.6446 9.21645 18.7222 9.23079 18.7991 9.24823C18.876 9.26569 18.9522 9.2862 19.0274 9.30975C19.1027 9.33331 19.1769 9.35984 19.25 9.38934C19.7167 9.57368 20.1717 9.76967 20.5695 10.0893C20.6406 10.148 20.7091 10.2096 20.775 10.274C20.8409 10.3384 20.9041 10.4054 20.9644 10.4751C21.0248 10.5448 21.0822 10.6168 21.1365 10.6912C21.1909 10.7656 21.2421 10.8422 21.2902 10.9209C21.3381 10.9996 21.3828 11.0801 21.4241 11.1625C21.4654 11.2449 21.5032 11.3288 21.5376 11.4144C21.5719 11.4999 21.6026 11.5867 21.6298 11.6748C21.657 11.7629 21.6803 11.8519 21.7 11.942C21.7619 12.1882 21.8365 12.4297 21.9019 12.6747C21.9104 12.6954 21.9166 12.7168 21.9206 12.7388C21.9247 12.7609 21.9264 12.7831 21.9258 12.8055C21.9252 12.8279 21.9224 12.85 21.9171 12.8718C21.9119 12.8936 21.9044 12.9146 21.8949 12.9348C21.8295 12.8007 21.7782 12.6898 21.7234 12.5848C21.3022 11.8043 20.7235 11.1848 19.8789 10.8698C19.4729 10.717 19.0622 10.7835 18.6667 10.9363C18.6037 10.9608 18.522 10.9982 18.529 11.0693C18.536 11.1405 18.6352 11.1323 18.697 11.1428C19.4927 11.284 20.1659 11.6328 20.6804 12.2745C21.0945 12.7925 21.4597 13.342 21.8202 13.8985C22.3044 14.6463 22.435 15.5062 22.6007 16.3555C22.6344 16.5407 22.6526 16.7273 22.6555 16.9155C22.607 16.8481 22.5642 16.7772 22.5272 16.7028C22.4902 16.6285 22.4595 16.5516 22.435 16.4722C22.3332 16.2229 22.2148 15.9816 22.0798 15.7485C21.9448 15.5155 21.7945 15.2928 21.6289 15.0803C21.4375 14.8353 21.175 14.6627 20.9394 14.4643C20.9348 14.4589 20.9299 14.4539 20.9245 14.4493C20.9192 14.4447 20.9135 14.4407 20.9073 14.4372C20.9011 14.4337 20.8947 14.4307 20.888 14.4283C20.8814 14.426 20.8746 14.4242 20.8676 14.423C20.8606 14.422 20.8536 14.4215 20.8465 14.4216C20.8394 14.4218 20.8324 14.4226 20.8255 14.4241C20.8186 14.4255 20.8118 14.4275 20.8053 14.4302C20.7988 14.4328 20.7925 14.436 20.7865 14.4398C20.7375 14.4737 20.7562 14.5285 20.7644 14.5775C20.881 15.2565 20.7982 15.932 20.7294 16.6087C20.6944 16.947 20.6465 17.283 20.6127 17.6214C20.5485 18.3587 20.2627 19.0214 19.9384 19.67C19.7853 19.9742 19.6131 20.2669 19.4216 20.5485C19.2303 20.8302 19.0215 21.0981 18.795 21.3524C18.1802 22.0594 17.3869 22.4934 16.534 22.8282C16.2638 22.9356 15.9891 23.0299 15.7098 23.1109C15.4306 23.192 15.148 23.2593 14.8622 23.3131C14.5764 23.3668 14.2887 23.4066 13.9991 23.4326C13.7095 23.4587 13.4193 23.4707 13.1285 23.4687C11.9479 23.4594 10.8535 23.1607 9.89453 22.4467C9.77948 22.3609 9.66852 22.2703 9.56166 22.1745C9.45479 22.0787 9.35245 21.9784 9.25464 21.8735C9.15682 21.7685 9.06393 21.6593 8.97596 21.546C8.88798 21.4327 8.80528 21.3156 8.72786 21.1949C8.70803 21.1657 8.67886 21.1377 8.69053 21.0957C8.71853 21.0759 8.7372 21.0957 8.7547 21.1109C9.74053 21.9999 10.8734 22.1609 12.089 21.721C12.1971 21.683 12.3039 21.6419 12.4095 21.5978C12.5152 21.5537 12.6195 21.5066 12.7225 21.4565C12.8254 21.4065 12.9268 21.3534 13.0268 21.2975C13.1267 21.2416 13.225 21.183 13.3216 21.1215C13.4182 21.06 13.5129 20.9957 13.6058 20.9287C13.6988 20.8619 13.7897 20.7924 13.8786 20.7201C13.9676 20.648 14.0544 20.5735 14.139 20.4964C14.2237 20.4193 14.3061 20.3398 14.3862 20.258C15.015 19.6117 15.365 18.8417 15.3289 17.9247C15.3228 17.8211 15.31 17.7183 15.2905 17.6165C15.271 17.5145 15.2449 17.4143 15.2122 17.3158C15.1794 17.2174 15.1404 17.1214 15.0952 17.028C15.0498 16.9347 14.9986 16.8446 14.9415 16.758C14.9333 16.7472 14.9258 16.7359 14.9191 16.7241C14.9124 16.7123 14.9064 16.7 14.9014 16.6874C14.8963 16.6748 14.8922 16.662 14.8889 16.6488C14.8856 16.6356 14.8833 16.6222 14.8818 16.6087C14.8802 16.5952 14.8797 16.5817 14.88 16.5681C14.8804 16.5544 14.8817 16.541 14.8839 16.5276C14.8861 16.5142 14.8891 16.501 14.8931 16.4881C14.8972 16.475 14.902 16.4624 14.9077 16.45C14.9373 16.3778 14.9645 16.3048 14.9892 16.2307C15.0141 16.1567 15.0363 16.0819 15.0561 16.0065C15.0759 15.9309 15.0932 15.8549 15.1079 15.7783C15.1227 15.7016 15.1348 15.6245 15.1444 15.5471C15.154 15.4697 15.161 15.392 15.1654 15.314C15.1698 15.2361 15.1717 15.1581 15.1709 15.0801C15.1701 15.002 15.1668 14.9241 15.1609 14.8463C15.1549 14.7685 15.1463 14.6909 15.1352 14.6137C15.094 14.4006 15.033 14.1933 14.952 13.9918C14.8844 13.7888 14.8167 13.5928 14.7432 13.3957Z"   fill="#FFFFFF" >
</path>
</svg>
