<svg xmlns="http://www.w3.org/2000/svg" xmlns:xlink="http://www.w3.org/1999/xlink" width="48" height="48" viewBox="0 0 48 48" fill="none">
<path d="M37.646 18.912C37.7362 18.7115 37.8219 18.509 37.9032 18.3048C37.9846 18.1005 38.0614 17.8945 38.1338 17.6869C38.2061 17.4793 38.2739 17.2702 38.3372 17.0597C38.4006 16.8491 38.4593 16.6373 38.5134 16.4242C38.5674 16.2111 38.6168 15.9969 38.6616 15.7816C38.7064 15.5664 38.7466 15.3503 38.782 15.1333C38.8174 14.9163 38.848 14.6986 38.874 14.4803C38.9 14.2619 38.9212 14.0432 38.9376 13.8239C38.9542 13.6046 38.9659 13.3851 38.9728 13.1654C38.9798 12.9456 38.9819 12.7258 38.9792 12.506C38.9766 12.2861 38.9692 12.0664 38.957 11.8469C38.9449 11.6274 38.928 11.4082 38.9062 11.1894C38.8846 10.9706 38.8582 10.7524 38.827 10.5348C38.7958 10.3171 38.76 10.1002 38.7194 9.88414C38.6789 9.66804 38.6336 9.45294 38.5836 9.23882C38.5338 9.0247 38.4792 8.81176 38.42 8.6L31.942 12.34C32.0972 12.4387 32.2505 12.5401 32.402 12.6443C32.5535 12.7485 32.703 12.8554 32.8506 12.965C32.9983 13.0746 33.1439 13.1869 33.2874 13.3018C33.431 13.4167 33.5725 13.5341 33.7118 13.6542C33.8511 13.7742 33.9882 13.8967 34.123 14.0216C34.258 14.1466 34.3906 14.274 34.5208 14.4038C34.6511 14.5336 34.779 14.6657 34.9044 14.8001C35.0299 14.9345 35.1529 15.0711 35.2734 15.21C35.3938 15.3489 35.5118 15.4899 35.6272 15.633C35.7427 15.7761 35.8555 15.9213 35.9656 16.0685C36.0758 16.2158 36.1832 16.3649 36.288 16.516C36.3928 16.6672 36.4948 16.8201 36.594 16.9749C36.6932 17.1297 36.7896 17.2863 36.883 17.4446C36.9766 17.6029 37.0673 17.7628 37.155 17.9244C37.2428 18.086 37.3276 18.2491 37.4094 18.4138C37.4913 18.5784 37.5702 18.7445 37.646 18.912Z"   fill="#4080FF" >
</path>
<path d="M15.658 12.33L9.18003 8.6C9.12071 8.81194 9.06603 9.02508 9.01599 9.2394C8.96593 9.45372 8.92056 9.66902 8.87987 9.88532C8.83917 10.1016 8.8032 10.3187 8.77195 10.5365C8.74069 10.7544 8.71419 10.9728 8.69245 11.1919C8.67069 11.4109 8.65369 11.6302 8.64147 11.85C8.62925 12.0697 8.62181 12.2896 8.61915 12.5097C8.61649 12.7298 8.61862 12.9498 8.62553 13.1698C8.63243 13.3898 8.64411 13.6095 8.66057 13.829C8.67702 14.0484 8.69823 14.2675 8.72421 14.486C8.75019 14.7045 8.78091 14.9224 8.81637 15.1396C8.85181 15.3569 8.89195 15.5732 8.93681 15.7887C8.98167 16.0041 9.03119 16.2185 9.08537 16.4318C9.13954 16.6452 9.19832 16.8572 9.26171 17.068C9.32511 17.2787 9.39305 17.488 9.46555 17.6958C9.53804 17.9036 9.61501 18.1098 9.69647 18.3142C9.77791 18.5187 9.86376 18.7213 9.95403 18.922C10.0297 18.754 10.1083 18.5875 10.19 18.4224C10.2717 18.2573 10.3563 18.0937 10.4439 17.9317C10.5315 17.7696 10.622 17.6092 10.7155 17.4505C10.8089 17.2918 10.9052 17.1347 11.0043 16.9795C11.1034 16.8242 11.2053 16.6708 11.31 16.5192C11.4147 16.3677 11.5221 16.2181 11.6322 16.0704C11.7423 15.9227 11.8551 15.7771 11.9705 15.6335C12.0859 15.49 12.2039 15.3485 12.3244 15.2092C12.4449 15.0699 12.5679 14.9329 12.6934 14.798C12.8189 14.6632 12.9468 14.5307 13.0772 14.4005C13.2075 14.2703 13.3401 14.1425 13.475 14.0172C13.61 13.8918 13.7472 13.7689 13.8866 13.6485C14.026 13.5281 14.1675 13.4102 14.3112 13.295C14.4549 13.1797 14.6006 13.0671 14.7484 12.9571C14.8961 12.8471 15.0459 12.7398 15.1975 12.6353C15.3492 12.5308 15.5027 12.429 15.658 12.33Z"   fill="#4080FF" >
</path>
<path d="M26.8641 25.142C26.8642 25.0862 26.8628 25.0303 26.8599 24.9744C26.8569 24.9187 26.8525 24.863 26.8465 24.8074C26.8405 24.7518 26.833 24.6964 26.8241 24.6412C26.815 24.586 26.8045 24.5312 26.7925 24.4766C26.7805 24.4221 26.767 24.3679 26.7521 24.314C26.7371 24.2602 26.7207 24.2068 26.7029 24.1538C26.685 24.1008 26.6657 24.0483 26.6449 23.9964C26.6241 23.9446 26.6019 23.8933 26.5785 23.8426C26.5549 23.7918 26.5299 23.7418 26.5037 23.6924C26.4774 23.6431 26.4498 23.5946 26.4209 23.5468C26.3919 23.499 26.3617 23.452 26.3303 23.4058C26.2988 23.3596 26.2661 23.3143 26.2321 23.27C26.1981 23.2256 26.1629 23.1822 26.1267 23.1396C26.0903 23.0972 26.0528 23.0558 26.0143 23.0152C25.9756 22.9748 25.9359 22.9355 25.8951 22.8972C25.8544 22.8591 25.8127 22.822 25.7699 22.786C25.7271 22.75 25.6833 22.7152 25.6387 22.6816C25.594 22.648 25.5484 22.6157 25.5019 22.5846C25.4555 22.5536 25.4083 22.5238 25.3603 22.4952C25.3121 22.4667 25.2633 22.4395 25.2137 22.4136C25.1642 22.3878 25.114 22.3633 25.0631 22.3402C25.0121 22.3172 24.9607 22.2955 24.9087 22.2752C24.8565 22.2548 24.8039 22.236 24.7509 22.2186C24.6977 22.2012 24.6441 22.1852 24.5901 22.1706C24.5362 22.1562 24.4819 22.1432 24.4271 22.1316C24.3724 22.1202 24.3175 22.1102 24.2623 22.1016C24.2071 22.0931 24.1516 22.0861 24.0959 22.0806C24.0403 22.0752 23.9845 22.0712 23.9287 22.0686C23.8729 22.0662 23.8171 22.0653 23.7611 22.0658C23.7052 22.0665 23.6494 22.0686 23.5937 22.0722C23.5379 22.076 23.4823 22.0812 23.4267 22.0878C23.3712 22.0945 23.3159 22.1027 23.2609 22.1124C23.2059 22.122 23.1512 22.1332 23.0967 22.146C23.0423 22.1587 22.9883 22.1728 22.9347 22.1884C22.8809 22.2042 22.8277 22.2213 22.7751 22.2398C22.7223 22.2584 22.6701 22.2783 22.6185 22.2996C22.5669 22.3211 22.5159 22.3439 22.4655 22.368C22.4151 22.3923 22.3654 22.4179 22.3165 22.4448C22.2674 22.4716 22.2191 22.4998 22.1717 22.5294C22.1242 22.5589 22.0776 22.5897 22.0319 22.6218C21.9861 22.654 21.9413 22.6873 21.8973 22.7218C21.8534 22.7564 21.8105 22.792 21.7685 22.8288C21.7265 22.8658 21.6855 22.9038 21.6455 22.9428C21.6056 22.982 21.5668 23.0222 21.5291 23.0634C21.4913 23.1046 21.4547 23.1469 21.4193 23.1902C21.3838 23.2334 21.3496 23.2776 21.3167 23.3226C21.2836 23.3677 21.2519 23.4137 21.2215 23.4606C21.1909 23.5074 21.1617 23.555 21.1339 23.6034C21.1059 23.652 21.0793 23.7012 21.0541 23.751C21.0289 23.8009 21.0051 23.8514 20.9827 23.9026C20.9601 23.9538 20.9391 24.0056 20.9195 24.0578C20.8999 24.1102 20.8817 24.1631 20.8651 24.2164C20.8483 24.2698 20.8329 24.3235 20.8191 24.3776C20.8053 24.4318 20.7931 24.4862 20.7823 24.541C20.7715 24.596 20.7621 24.6511 20.7543 24.7064C20.7464 24.7618 20.7401 24.8172 20.7353 24.8728C20.7306 24.9286 20.7273 24.9844 20.7255 25.0402C20.7237 25.0961 20.7235 25.152 20.7249 25.2078C20.7262 25.2637 20.7291 25.3195 20.7335 25.3752C20.7379 25.431 20.7437 25.4866 20.7511 25.542C20.7585 25.5974 20.7675 25.6525 20.7779 25.7074C20.7883 25.7624 20.8001 25.817 20.8135 25.8712C20.8269 25.9255 20.8418 25.9794 20.8581 26.0328C20.8743 26.0863 20.8921 26.1392 20.9115 26.1916C20.9307 26.2442 20.9513 26.2961 20.9733 26.3474C20.9954 26.3988 21.0189 26.4495 21.0437 26.4996C21.0685 26.5496 21.0947 26.599 21.1223 26.6476C21.1497 26.6963 21.1785 26.7442 21.2087 26.7912C21.2388 26.8383 21.2702 26.8845 21.3029 26.9298C21.3355 26.9752 21.3695 27.0196 21.4047 27.0632C21.4397 27.1067 21.4759 27.1492 21.5133 27.1906C21.5507 27.2322 21.5893 27.2728 21.6289 27.3122C21.6685 27.3516 21.7091 27.3898 21.7509 27.427C21.7926 27.4642 21.8353 27.5003 21.8791 27.5352C21.9227 27.57 21.9673 27.6036 22.0129 27.636C22.0583 27.6686 22.1047 27.6998 22.1519 27.7296C22.1992 27.7595 22.2472 27.7881 22.2959 27.8154C22.3447 27.8426 22.3942 27.8686 22.4445 27.8932C22.4946 27.9178 22.5454 27.9409 22.5969 27.9626C22.6485 27.9845 22.7005 28.0049 22.7531 28.0238C22.8056 28.0428 22.8587 28.0603 22.9123 28.0764C22.9657 28.0924 23.0197 28.107 23.0741 28.12C23.1283 28.1332 23.183 28.1448 23.2381 28.1548C23.293 28.165 23.3482 28.1736 23.4037 28.1808C23.459 28.1879 23.5146 28.1935 23.5705 28.1976C23.6262 28.2016 23.682 28.2042 23.7379 28.2052C23.7937 28.2063 23.8496 28.2058 23.9055 28.2036C23.9613 28.2016 24.0171 28.1981 24.0727 28.193C24.1284 28.188 24.1839 28.1814 24.2393 28.1732C24.2945 28.1651 24.3495 28.1555 24.4043 28.1444C24.4591 28.1334 24.5135 28.1208 24.5677 28.1066C24.6217 28.0926 24.6753 28.0771 24.7287 28.06C24.7819 28.043 24.8346 28.0245 24.8869 28.0046C24.939 27.9848 24.9906 27.9635 25.0417 27.9408C25.0929 27.918 25.1433 27.8939 25.1931 27.8684C25.2428 27.843 25.2918 27.8162 25.3401 27.788C25.3977 27.7546 25.4541 27.7192 25.5095 27.682C25.5647 27.6448 25.6187 27.6059 25.6715 27.5652C25.7241 27.5246 25.7755 27.4822 25.8255 27.4382C25.8755 27.3942 25.924 27.3486 25.9711 27.3014C26.018 27.2542 26.0634 27.2055 26.1073 27.1552C26.1511 27.1051 26.1933 27.0536 26.2337 27.0006C26.2742 26.9477 26.3129 26.8936 26.3499 26.8382C26.3868 26.7828 26.4219 26.7262 26.4551 26.6684C26.4884 26.6107 26.5197 26.552 26.5491 26.4922C26.5785 26.4324 26.606 26.3717 26.6315 26.3102C26.6569 26.2486 26.6803 26.1863 26.7017 26.1232C26.7231 26.0602 26.7425 25.9964 26.7597 25.932C26.7769 25.8676 26.792 25.8028 26.8051 25.7374C26.8181 25.6721 26.829 25.6064 26.8377 25.5404C26.8463 25.4744 26.8529 25.4082 26.8575 25.3416C26.8619 25.2752 26.8641 25.2087 26.8641 25.142Z"   fill="#4080FF" >
</path>
<path d="M37.646 18.912C37.5108 18.6113 37.3658 18.3153 37.2114 18.0241C37.0568 17.7328 36.893 17.4469 36.7198 17.1663C36.5466 16.8857 36.3644 16.611 36.1734 16.3423C35.9822 16.0736 35.7826 15.8114 35.5746 15.5557C35.3664 15.2999 35.1502 15.0513 34.9258 14.8096C34.7014 14.568 34.4696 14.3339 34.23 14.1074C33.9904 13.8809 33.7436 13.6624 33.4898 13.452C33.2358 13.2416 32.9754 13.0396 32.7086 12.8461C32.4416 12.6527 32.1686 12.4681 31.8896 12.2924C31.6104 12.1167 31.326 11.9503 31.0362 11.7931C30.7464 11.636 30.4518 11.4884 30.1522 11.3505C29.8526 11.2125 29.549 11.0844 29.2414 10.9663C28.9334 10.8481 28.6222 10.7401 28.3073 10.6422C27.9924 10.5443 27.6747 10.4567 27.3541 10.3796C27.0336 10.3024 26.7109 10.2357 26.3859 10.1795C26.061 10.1234 25.7347 10.0778 25.4069 10.0429C25.0789 10.008 24.7503 9.98386 24.4209 9.97038C24.0915 9.9569 23.7619 9.95415 23.4323 9.96214C23.1026 9.97012 22.7735 9.98883 22.4451 10.0183C22.1167 10.0477 21.7897 10.0877 21.4639 10.1385C21.1382 10.1892 20.8144 10.2505 20.4925 10.3223C20.1708 10.3942 19.8517 10.4764 19.5352 10.569C19.2187 10.6616 18.9057 10.7645 18.5959 10.8775C18.2862 10.9905 17.9804 11.1135 17.6787 11.2464C17.377 11.3794 17.0799 11.522 16.7874 11.6743C16.495 11.8266 16.2078 11.9882 15.9259 12.1593C15.644 12.3303 15.368 12.5103 15.0978 12.6993C14.8276 12.8882 14.5639 13.0858 14.3066 13.292C14.0493 13.4982 13.7989 13.7125 13.5556 13.935C13.3123 14.1575 13.0764 14.3877 12.8481 14.6255C12.6197 14.8634 12.3994 15.1084 12.187 15.3606C11.9746 15.6128 11.7707 15.8717 11.5751 16.1372C11.3796 16.4027 11.193 16.6743 11.0151 16.9519C10.8373 17.2296 10.6687 17.5127 10.5093 17.8014C10.35 18.09 10.2002 18.3835 10.0599 18.6819C9.91968 18.9803 9.78929 19.283 9.66877 19.5899C9.54824 19.8968 9.43782 20.2073 9.33751 20.5214C9.23722 20.8355 9.14725 21.1525 9.06761 21.4724C8.98797 21.7924 8.91882 22.1147 8.86017 22.4392C8.80152 22.7636 8.75348 23.0896 8.71607 23.4172C8.67867 23.7448 8.65196 24.0733 8.63595 24.4026C8.61994 24.7319 8.61466 25.0614 8.62013 25.391C8.62558 25.7207 8.64176 26.0499 8.66867 26.3786C8.69558 26.7071 8.73315 27.0345 8.78139 27.3608C8.82962 27.6869 8.88841 28.0111 8.95777 28.3334C9.02714 28.6558 9.10692 28.9756 9.19711 29.2928C9.28731 29.6099 9.38773 29.9237 9.49837 30.2345C9.60901 30.5449 9.72964 30.8517 9.86027 31.1545C9.9909 31.4571 10.1312 31.7553 10.2813 32.0489C10.4313 32.3425 10.5908 32.6309 10.7596 32.9141C10.9285 33.1973 11.1063 33.4747 11.2933 33.7463C11.4802 34.0179 11.6757 34.2833 11.8799 34.5421C12.0841 34.8009 12.2966 35.0529 12.5172 35.2981C12.7378 35.5429 12.9661 35.7805 13.2022 36.0109C13.4383 36.2409 13.6817 36.4631 13.9322 36.6775C14.1828 36.8917 14.4401 37.0977 14.7041 37.2953C14.9681 37.4929 15.2382 37.6815 15.5145 37.8615C15.7908 38.0415 16.0726 38.2123 16.36 38.3739C16.6475 38.5353 16.9398 38.6873 17.2372 38.8299C17.5345 38.9723 17.8361 39.1051 18.1421 39.2281C18.4481 39.3509 18.7577 39.4637 19.071 39.5665C19.3843 39.6691 19.7006 39.7615 20.0199 39.8437C20.3393 39.9257 20.6609 39.9973 20.9849 40.0585C21.3089 40.1197 21.6346 40.1701 21.9619 40.2101L21.9619 30.8441C21.8497 30.8079 21.7385 30.7685 21.6285 30.7259C21.5185 30.6831 21.4099 30.6373 21.3027 30.5881C21.1954 30.5389 21.0897 30.4867 20.9855 30.4315C20.8814 30.3761 20.7789 30.3177 20.6781 30.2565C20.5775 30.1951 20.4787 30.1309 20.3817 30.0637C20.2848 29.9965 20.1899 29.9264 20.0969 29.8536C20.0042 29.7808 19.9136 29.7053 19.8252 29.627C19.7369 29.5489 19.6509 29.4682 19.5673 29.385C19.4837 29.3018 19.4026 29.2162 19.324 29.1282C19.2455 29.0402 19.1696 28.95 19.0963 28.8576C19.0231 28.7651 18.9527 28.6705 18.885 28.5738C18.8174 28.4773 18.7526 28.3787 18.6907 28.2782C18.6289 28.1778 18.5701 28.0757 18.5142 27.9718C18.4584 27.8678 18.4057 27.7623 18.3561 27.6552C18.3065 27.5483 18.2601 27.4399 18.2169 27.3302C18.1737 27.2203 18.1338 27.1093 18.0971 26.9972C18.0604 26.8852 18.0271 26.7721 17.9971 26.658C17.9671 26.5439 17.9405 26.429 17.9173 26.3134C17.8941 26.1977 17.8743 26.0814 17.8579 25.9646C17.8416 25.8478 17.8287 25.7306 17.8192 25.613C17.8098 25.4954 17.8038 25.3777 17.8013 25.2598C17.7988 25.1418 17.7998 25.0239 17.8042 24.906C17.8087 24.7881 17.8166 24.6705 17.828 24.5532C17.8394 24.4357 17.8542 24.3187 17.8725 24.2022C17.8908 24.0857 17.9125 23.9698 17.9376 23.8546C17.9627 23.7393 17.9912 23.6248 18.0231 23.5112C18.055 23.3977 18.0902 23.2852 18.1287 23.1736C18.1672 23.0621 18.209 22.9519 18.254 22.8428C18.299 22.7339 18.3472 22.6263 18.3985 22.52C18.4499 22.4139 18.5043 22.3093 18.5619 22.2062C18.6194 22.1033 18.6799 22.0021 18.7434 21.9026C18.8069 21.8033 18.8733 21.7059 18.9425 21.6104C19.0118 21.5148 19.0838 21.4214 19.1585 21.3302C19.2333 21.239 19.3107 21.15 19.3907 21.0632C19.4707 20.9765 19.5532 20.8923 19.6381 20.8106C19.7231 20.7287 19.8104 20.6495 19.9 20.5728C19.9897 20.4961 20.0815 20.4221 20.1755 20.3508C20.2695 20.2796 20.3655 20.2112 20.4635 20.1456C20.5617 20.08 20.6616 20.0174 20.7633 19.9577C20.8651 19.898 20.9685 19.8413 21.0735 19.7877C21.1786 19.7341 21.2851 19.6836 21.3931 19.6363C21.5013 19.589 21.6107 19.5449 21.7213 19.504C21.8319 19.4632 21.9436 19.4256 22.0565 19.3913C22.1695 19.357 22.2833 19.3261 22.3979 19.2986C22.5126 19.271 22.628 19.2468 22.7441 19.2261C22.8603 19.2053 22.9769 19.188 23.0939 19.1741C23.2111 19.1602 23.3286 19.1498 23.4463 19.1429C23.5641 19.1359 23.6819 19.1325 23.7999 19.1325C23.9179 19.1325 24.0358 19.1359 24.1535 19.1429C24.2713 19.1498 24.3887 19.1602 24.5059 19.1741C24.623 19.188 24.7396 19.2053 24.8557 19.2261C24.9719 19.2468 25.0873 19.271 25.2019 19.2986C25.3166 19.3261 25.4304 19.357 25.5433 19.3913C25.6563 19.4256 25.768 19.4632 25.8785 19.504C25.9892 19.5449 26.0986 19.589 26.2067 19.6363C26.3147 19.6836 26.4213 19.7341 26.5263 19.7877C26.6314 19.8413 26.7348 19.898 26.8365 19.9577C26.9383 20.0174 27.0382 20.08 27.1363 20.1456C27.2343 20.2112 27.3303 20.2796 27.4243 20.3508C27.5183 20.4221 27.6102 20.4961 27.6999 20.5728C27.7895 20.6495 27.8768 20.7287 27.9617 20.8106C28.0467 20.8923 28.1291 20.9765 28.2091 21.0632C28.2891 21.15 28.3665 21.239 28.4413 21.3302C28.5161 21.4214 28.5881 21.5148 28.6574 21.6104C28.7266 21.7059 28.793 21.8033 28.8566 21.9026C28.92 22.0021 28.9804 22.1033 29.038 22.2062C29.0956 22.3093 29.15 22.4139 29.2014 22.52C29.2526 22.6263 29.3008 22.7339 29.346 22.8428C29.3908 22.9519 29.4326 23.0621 29.4712 23.1736C29.5096 23.2852 29.5448 23.3977 29.5768 23.5112C29.6086 23.6248 29.6372 23.7393 29.6624 23.8546C29.6874 23.9698 29.709 24.0857 29.7274 24.2022C29.7456 24.3187 29.7604 24.4357 29.772 24.5532C29.7832 24.6705 29.7912 24.7881 29.7958 24.906C29.8002 25.0239 29.801 25.1418 29.7986 25.2598C29.796 25.3777 29.79 25.4954 29.7808 25.613C29.7712 25.7306 29.7584 25.8478 29.742 25.9646C29.7256 26.0814 29.7058 26.1977 29.6826 26.3134C29.6594 26.429 29.6328 26.5439 29.6028 26.658C29.5728 26.7721 29.5394 26.8852 29.5028 26.9972C29.466 27.1093 29.4262 27.2203 29.383 27.3302C29.3398 27.4399 29.2934 27.5483 29.2438 27.6552C29.1942 27.7623 29.1414 27.8678 29.0856 27.9718C29.0298 28.0757 28.971 28.1778 28.9092 28.2782C28.8472 28.3787 28.7826 28.4773 28.715 28.5738C28.6472 28.6705 28.5767 28.7651 28.5035 28.8576C28.4303 28.95 28.3545 29.0402 28.2759 29.1282C28.1973 29.2162 28.1161 29.3018 28.0325 29.385C27.9489 29.4682 27.863 29.5489 27.7747 29.627C27.6863 29.7053 27.5957 29.7808 27.5029 29.8536C27.41 29.9264 27.3151 29.9965 27.2181 30.0637C27.1212 30.1309 27.0224 30.1951 26.9217 30.2565C26.8209 30.3177 26.7185 30.3761 26.6143 30.4315C26.5102 30.4867 26.4045 30.5389 26.2971 30.5881C26.1899 30.6373 26.0813 30.6831 25.9713 30.7259C25.8613 30.7685 25.7502 30.8079 25.6379 30.8441L25.6379 40.2101C25.9318 40.1741 26.2244 40.1295 26.5157 40.0765C26.8069 40.0233 27.0964 39.9617 27.3841 39.8917C27.6719 39.8217 27.9573 39.7433 28.2403 39.6565C28.5234 39.5697 28.8036 39.4749 29.0812 39.3717C29.3588 39.2685 29.633 39.1573 29.9042 39.0383C30.175 38.9191 30.4424 38.7919 30.706 38.6571C30.9696 38.5223 31.229 38.3799 31.4844 38.2299C31.7396 38.0799 31.9902 37.9225 32.2364 37.7579C32.4824 37.5931 32.7234 37.4215 32.9596 37.2427C33.1956 37.0639 33.426 36.8783 33.6512 36.6861C33.8764 36.4937 34.0958 36.2951 34.3094 36.0901C34.5228 35.8849 34.7302 35.6739 34.9314 35.4567C35.1326 35.2393 35.3272 35.0163 35.5154 34.7879C35.7034 34.5591 35.8848 34.3253 36.0592 34.0861C36.2336 33.8467 36.401 33.6025 36.5612 33.3537C36.7212 33.1045 36.874 32.8511 37.0194 32.5933C37.1646 32.3353 37.3024 32.0733 37.4326 31.8073C37.5626 31.5413 37.6846 31.2717 37.7988 30.9985C37.913 30.7253 38.0192 30.4489 38.1174 30.1697C38.2154 29.8903 38.3052 29.6083 38.3868 29.3236C38.4684 29.0391 38.5416 28.7523 38.6064 28.4634C38.6712 28.1745 38.7274 27.8839 38.7754 27.5918C38.823 27.2995 38.8622 27.0061 38.893 26.7116C38.9236 26.4172 38.9456 26.1221 38.959 25.8262C38.9722 25.5305 38.977 25.2346 38.9732 24.9386C38.9692 24.6425 38.9566 24.3467 38.9354 24.0514C38.9142 23.7561 38.8842 23.4617 38.8458 23.1682C38.8074 22.8746 38.7604 22.5824 38.7048 22.2916C38.6492 22.0007 38.5852 21.7117 38.5128 21.4246C38.4402 21.1375 38.3594 20.8529 38.2704 20.5706C38.1812 20.2882 38.0838 20.0087 37.9784 19.732C37.8728 19.4553 37.7594 19.182 37.638 18.912L37.646 18.912Z"   fill="#FFFFFF" >
</path>
</svg>
