<svg xmlns="http://www.w3.org/2000/svg" xmlns:xlink="http://www.w3.org/1999/xlink" width="48" height="48" viewBox="0 0 48 48" fill="none">
<path d="M29.638 11.2C30.964 11.062 32.356 10.912 33.59 10.492C33.356 10.346 33.208 10.268 33.208 10.268L33.208 4.89C31.642 8.634 27.422 8.702 27.422 8.702L22.756 8.702C22.6283 8.70198 22.5006 8.7051 22.373 8.71134C22.2455 8.7176 22.1182 8.72698 21.991 8.73948C21.8639 8.75198 21.7373 8.7676 21.611 8.78634C21.4846 8.80508 21.3587 8.8269 21.2334 8.8518C21.1082 8.87672 20.9837 8.9047 20.8598 8.93572C20.7359 8.96674 20.6129 9.0008 20.4906 9.03788C20.3683 9.07496 20.2471 9.11502 20.1268 9.15804C20.0066 9.20106 19.8875 9.24702 19.7695 9.29592C19.6515 9.3448 19.5348 9.39654 19.4194 9.45116C19.3039 9.50578 19.1899 9.5632 19.0772 9.62342C18.9646 9.68364 18.8535 9.74658 18.744 9.81226C18.6344 9.87792 18.5266 9.94624 18.4204 10.0172C18.3142 10.0882 18.2098 10.1617 18.1073 10.2378C18.0047 10.3139 17.904 10.3925 17.8053 10.4736C17.7066 10.5546 17.61 10.638 17.5154 10.7238C17.4207 10.8096 17.3283 10.8977 17.238 10.988L15.302 12.924C15.5327 12.7926 15.7666 12.667 16.0036 12.5472C16.2406 12.4274 16.4805 12.3136 16.7232 12.2058C16.9659 12.098 17.2111 11.9964 17.4588 11.9008C17.7066 11.8053 17.9566 11.716 18.2088 11.6329C18.4611 11.5498 18.7152 11.4731 18.9713 11.4027C19.2273 11.3323 19.485 11.2684 19.7442 11.2109C20.0034 11.1534 20.2639 11.1023 20.5258 11.0578C20.7875 11.0133 21.0503 10.9754 21.314 10.944C24.68 10.566 25.89 11.6 29.638 11.2Z"   fill="#4080FF" >
</path>
<path d="M36.8859 25.11L36.8859 15.442C36.8859 12.826 34.5299 11.084 33.5899 10.492C32.3559 10.912 30.9639 11.062 29.6379 11.2C25.8899 11.6 24.6799 10.566 21.3139 10.944C21.0502 10.9754 20.7874 11.0133 20.5257 11.0578C20.2638 11.1024 20.0033 11.1534 19.7441 11.2109C19.4849 11.2684 19.2272 11.3324 18.9712 11.4027C18.7151 11.4731 18.461 11.5498 18.2087 11.6329C17.9565 11.716 17.7065 11.8053 17.4587 11.9008C17.211 11.9964 16.9658 12.098 16.7231 12.2058C16.4804 12.3136 16.2405 12.4274 16.0035 12.5472C15.7665 12.667 15.5326 12.7926 15.3019 12.924C15.3019 22.388 7.7439 22.66 7.7439 22.66L13.7439 28.66C20.2119 22.192 24.1619 24.914 24.1619 24.914C24.2479 24.914 24.3339 24.9119 24.4199 24.9076C24.5059 24.9033 24.5917 24.897 24.6773 24.8886C24.7629 24.8802 24.8482 24.8697 24.9333 24.857C25.0185 24.8443 25.1033 24.8296 25.1877 24.8128C25.2721 24.796 25.356 24.7772 25.4395 24.7564C25.523 24.7355 25.6058 24.7125 25.6881 24.6874C25.7705 24.6625 25.8522 24.6355 25.9333 24.6066C26.0142 24.5775 26.0944 24.5465 26.1739 24.5136C26.2535 24.4807 26.3322 24.4458 26.4099 24.409C26.4878 24.3722 26.5646 24.3335 26.6405 24.293C26.7164 24.2525 26.7912 24.2101 26.8651 24.1658C26.9388 24.1215 27.0115 24.0755 27.0831 24.0278C27.1546 23.9799 27.2249 23.9304 27.2941 23.8792C27.3632 23.828 27.431 23.7751 27.4975 23.7204C27.564 23.6659 27.6292 23.6097 27.6929 23.552C27.7567 23.4941 27.8191 23.4348 27.8799 23.374L29.2679 21.986L29.2679 23.722C29.2679 23.794 29.2661 23.8659 29.2627 23.9378C29.2591 24.0098 29.2537 24.0816 29.2467 24.1532C29.2397 24.2249 29.2309 24.2964 29.2203 24.3676C29.2097 24.4388 29.1975 24.5097 29.1833 24.5804C29.1693 24.6511 29.1535 24.7213 29.1361 24.7912C29.1185 24.8609 29.0993 24.9303 29.0785 24.9992C29.0575 25.0681 29.0349 25.1365 29.0107 25.2044C28.9865 25.2721 28.9605 25.3393 28.9329 25.4058C28.9055 25.4723 28.8763 25.5381 28.8455 25.6032C28.8147 25.6683 28.7823 25.7326 28.7483 25.7962C28.7145 25.8597 28.6789 25.9223 28.6419 25.984C28.6049 26.0457 28.5663 26.1066 28.5263 26.1666C28.4863 26.2265 28.4449 26.2853 28.4021 26.343C28.3591 26.4009 28.3149 26.4577 28.2691 26.5134C28.2235 26.569 28.1765 26.6235 28.1281 26.6768C28.0797 26.7301 28.0301 26.7823 27.9791 26.8332C27.9281 26.8841 27.8761 26.9338 27.8227 26.9822C27.7693 27.0306 27.7149 27.0776 27.6593 27.1232C27.6036 27.1689 27.5468 27.2133 27.4889 27.2562C27.4312 27.299 27.3724 27.3404 27.3125 27.3804C27.2525 27.4204 27.1916 27.4589 27.1299 27.496C27.0682 27.5331 27.0056 27.5685 26.9421 27.6024C26.8785 27.6364 26.8142 27.6688 26.7491 27.6996C26.684 27.7304 26.6182 27.7595 26.5517 27.787C26.4852 27.8146 26.418 27.8405 26.3503 27.8648C26.2824 27.8891 26.214 27.9117 26.1451 27.9326C26.0762 27.9534 26.0068 27.9726 25.9371 27.9902C25.8672 28.0077 25.797 28.0234 25.7263 28.0374C25.6556 28.0515 25.5847 28.0639 25.5135 28.0744C25.4423 28.0849 25.3708 28.0937 25.2991 28.1008C25.2275 28.1079 25.1558 28.1132 25.0839 28.1168C25.0119 28.1203 24.9399 28.122 24.8679 28.122L24.5619 28.122C24.3491 28.122 24.1365 28.1272 23.9241 28.1376C23.7116 28.1481 23.4994 28.1638 23.2877 28.1846C23.076 28.2054 22.8649 28.2315 22.6545 28.2628C22.444 28.294 22.2344 28.3303 22.0257 28.3718C21.817 28.4133 21.6095 28.4599 21.4031 28.5116C21.1967 28.5633 20.9918 28.6201 20.7883 28.6818C20.5847 28.7435 20.3827 28.8103 20.1823 28.882C19.982 28.9536 19.7836 29.0301 19.587 29.1116C19.3905 29.1929 19.196 29.2791 19.0037 29.3702C18.8114 29.4611 18.6214 29.5567 18.4337 29.657C18.2461 29.7573 18.0611 29.8621 17.8786 29.9716C17.6961 30.0809 17.5164 30.1947 17.3395 30.3128C17.1626 30.4311 16.9887 30.5536 16.8178 30.6804C16.6469 30.807 16.4793 30.9378 16.3148 31.0728C16.1503 31.2078 15.9893 31.3468 15.8316 31.4896C15.674 31.6326 15.52 31.7792 15.3695 31.9296C15.2191 32.08 15.0724 32.234 14.9295 32.3918C14.7867 32.5494 14.6477 32.7104 14.5128 32.8748C14.3778 33.0394 14.2469 33.207 14.1202 33.378C13.9935 33.5488 13.871 33.7226 13.7528 33.8996C13.6346 34.0766 13.5208 34.2562 13.4114 34.4386C13.302 34.6212 13.1972 34.8062 13.0969 34.9938C12.9966 35.1814 12.901 35.3714 12.81 35.5638C12.7191 35.756 12.6329 35.9506 12.5515 36.1472C12.47 36.3438 12.3935 36.5422 12.3218 36.7424C12.2502 36.9428 12.1834 37.1448 12.1217 37.3484C12.0599 37.5518 12.0032 37.7568 11.9515 37.9632C11.8998 38.1696 11.8532 38.3772 11.8117 38.5858C11.7702 38.7944 11.7338 39.004 11.7026 39.2146C11.6714 39.425 11.6454 39.636 11.6245 39.8478C11.6036 40.0596 11.588 40.2716 11.5776 40.4842C11.5671 40.6966 11.5619 40.9092 11.5619 41.122L27.8339 41.122C27.9845 41.122 28.1349 41.1184 28.2853 41.111C28.4357 41.1036 28.5859 41.0924 28.7357 41.0778C28.8855 41.063 29.0349 41.0446 29.1839 41.0224C29.3329 41.0002 29.4811 40.9746 29.6287 40.9452C29.7765 40.9158 29.9233 40.8828 30.0693 40.8462C30.2153 40.8096 30.3603 40.7696 30.5045 40.7258C30.6487 40.682 30.7915 40.6348 30.9333 40.5842C31.0751 40.5336 31.2155 40.4794 31.3545 40.4216C31.4937 40.364 31.6313 40.303 31.7675 40.2388C31.9035 40.1744 32.0379 40.1066 32.1707 40.0356C32.3035 39.9646 32.4345 39.8906 32.5637 39.8132C32.6927 39.7358 32.8199 39.6552 32.9451 39.5716C33.0703 39.4878 33.1933 39.4012 33.3143 39.3116C33.4353 39.2218 33.5539 39.1292 33.6703 39.0338C33.7867 38.9382 33.9007 38.8398 34.0123 38.7388C34.1237 38.6376 34.2327 38.5338 34.3393 38.4274C34.4457 38.3208 34.5495 38.2118 34.6507 38.1004C34.7517 37.9888 34.8501 37.8748 34.9457 37.7584C35.0411 37.642 35.1337 37.5234 35.2235 37.4024C35.3131 37.2814 35.3997 37.1584 35.4835 37.0332C35.5671 36.908 35.6477 36.7808 35.7251 36.6518C35.8025 36.5226 35.8765 36.3916 35.9475 36.2588C36.0185 36.126 36.0863 35.9916 36.1507 35.8556C36.2149 35.7194 36.2759 35.5818 36.3335 35.4426C36.3913 35.3036 36.4455 35.1632 36.4961 35.0214C36.5467 34.8796 36.5939 34.7368 36.6377 34.5926C36.6815 34.4484 36.7215 34.3034 36.7581 34.1574C36.7947 34.0114 36.8277 33.8646 36.8571 33.7168C36.8865 33.5692 36.9121 33.421 36.9343 33.272C36.9565 33.123 36.9749 32.9736 36.9897 32.8238C37.0043 32.674 37.0155 32.5238 37.0229 32.3734C37.0303 32.223 37.0339 32.0726 37.0339 31.922L41.9999 31.922C38.7999 31.92 36.8859 25.11 36.8859 25.11ZM16.5439 17.2L19.3019 13.468L22.1619 13.468C22.1619 13.468 23.4899 13.366 23.9479 12.446C23.9479 17.2 16.5439 17.2 16.5439 17.2Z"   fill="#FFFFFF" >
</path>
</svg>
