<svg id="图层_1" data-name="图层 1" xmlns="http://www.w3.org/2000/svg" viewBox="0 0 240 240"><path d="M101.62,71.55c-3.79,1.18-19.54,6.08-24.68,21.1-3.64,10.66.13,20.33,1.53,23.49-1.15-.62-3.7-1.76-6.12-.85-3.9,1.46-4.62,7.12-4.94,9.7-1.15,9.15,4.11,16.22,4.59,16.85,6.19,8.06,15.52,9,17.2,9.19a47.82,47.82,0,0,1-8.34-28.59l3,5.36A35.87,35.87,0,0,1,84.6,113c1.9-7,8.07-20.87,18.13-20.93,6.61,0,13.57,5.91,15.27,8.17l2,2.13v.1l0,0,0,0v-.1l2-2.13c1.7-2.26,8.66-8.22,15.27-8.17,10.06.06,16.23,14,18.13,20.93a35.87,35.87,0,0,1,.77,14.81l3-5.36A47.82,47.82,0,0,1,150.8,151c1.68-.14,11-1.13,17.2-9.19.48-.63,5.74-7.7,4.59-16.85-.32-2.58-1-8.24-4.94-9.7-2.42-.91-5,.23-6.12.85,1.4-3.16,5.17-12.83,1.53-23.49-5.14-15-20.89-19.92-24.68-21.1-1-.32-2.07-.59-3.13-.81h46.66L181.78,66H137a22.85,22.85,0,0,1,4.85-12.63c6.45-7.86,18.62-10.48,30.64-6.52a20.78,20.78,0,0,0-7.66-9.19A21.61,21.61,0,0,0,148.34,35,28.89,28.89,0,0,0,137,24.27c-6.62-3.46-14.42-3.37-17-3.19-2.55-.18-10.35-.27-17,3.19A28.89,28.89,0,0,0,91.66,35,21.61,21.61,0,0,0,75.2,37.67a20.78,20.78,0,0,0-7.66,9.19c12-4,24.19-1.34,30.64,6.52A22.85,22.85,0,0,1,103,66H58.22l-.13,4.73h46.66C103.69,71,102.65,71.23,101.62,71.55Z"/><path d="M71.32,169.42H80q-1.26-8.85-2.54-17.7H74.39Q72.86,160.57,71.32,169.42Z"/><path d="M162.54,151.72q-1.28,8.85-2.54,17.7h8.68q-1.53-8.85-3.07-17.7Z"/><path d="M149.27,174.86a18.6,18.6,0,0,1,3.58-7.48,8.3,8.3,0,0,0-4.26.51,8.63,8.63,0,0,0-4.42,4.08c-.06-3.06-.12-6.13-.17-9.19a45,45,0,0,1-7.49,7c-6.17,4.53-12.45,7.54-16.51,8.49-4.06-.95-10.34-4-16.51-8.49a45,45,0,0,1-7.49-7c0,3.06-.11,6.13-.17,9.19a8.63,8.63,0,0,0-4.42-4.08,8.3,8.3,0,0,0-4.26-.51,18.6,18.6,0,0,1,3.58,7.48,18.86,18.86,0,0,1-.68,10.39H52.25A70,70,0,0,0,73,204.14C93.14,216,112,219,120,219c-.09-6,0-13.16,0-20.37,0,7.21.09,14.41,0,20.37,7.83,0,26.86-3,47-14.85a70,70,0,0,0,20.78-18.89H150A18.86,18.86,0,0,1,149.27,174.86Z"/></svg>